<?xml version="1.0" encoding="UTF-8" ?>
<!DOCTYPE svg PUBLIC "-//W3C//DTD SVG 1.1//EN" "http://www.w3.org/Graphics/SVG/1.1/DTD/svg11.dtd">
<svg width="1500pt" height="500pt" viewBox="0 0 1500 500" version="1.1" xmlns="http://www.w3.org/2000/svg">
<path fill="#ffffff" d=" M 0.00 0.00 L 1500.00 0.00 L 1500.00 434.58 C 1478.06 399.65 1456.17 364.67 1434.28 329.70 C 1422.93 311.41 1411.26 293.32 1400.09 274.92 C 1391.79 260.12 1382.24 246.08 1373.47 231.57 C 1371.07 227.50 1368.35 223.63 1365.46 219.91 C 1367.63 217.66 1369.60 215.04 1369.48 211.74 C 1371.20 208.42 1372.91 204.99 1373.40 201.24 C 1375.59 189.39 1370.78 176.54 1361.22 169.17 C 1361.03 168.75 1360.66 167.92 1360.48 167.50 C 1362.24 165.37 1363.99 163.23 1365.50 160.91 C 1368.44 154.02 1365.96 145.32 1359.39 141.51 C 1355.17 138.74 1349.76 138.82 1345.13 140.41 C 1339.68 143.13 1335.42 148.68 1335.89 154.99 C 1335.65 160.19 1339.12 164.37 1342.52 167.87 C 1337.96 171.97 1333.68 176.62 1331.40 182.41 C 1327.40 191.52 1327.69 202.37 1332.53 211.11 C 1333.51 213.92 1334.58 216.72 1336.01 219.35 C 1333.16 221.36 1330.51 223.72 1328.74 226.76 C 1323.12 236.01 1316.52 244.62 1310.98 253.92 C 1288.74 286.67 1266.30 319.29 1244.00 352.00 C 1238.00 361.04 1231.34 369.67 1226.03 379.15 C 1224.32 380.98 1222.51 382.70 1220.76 384.47 C 1220.26 384.93 1219.77 385.40 1219.29 385.86 C 1157.37 317.38 1095.77 248.60 1033.89 180.07 C 1029.36 174.94 1024.50 170.11 1020.39 164.63 C 1010.80 152.02 999.52 140.80 989.17 128.82 C 984.12 122.76 978.32 117.36 973.55 111.06 C 974.19 106.43 974.22 101.73 973.80 97.08 C 972.15 88.79 967.38 81.30 960.63 76.21 C 962.31 74.18 963.91 72.08 965.40 69.90 C 968.24 64.17 967.66 56.63 962.96 52.05 C 958.60 47.27 951.48 46.21 945.57 48.39 C 940.15 51.13 935.99 56.68 936.28 62.93 C 936.13 68.09 939.60 72.20 942.79 75.84 C 941.81 76.82 940.81 77.78 939.84 78.75 C 938.58 80.02 937.38 81.35 936.24 82.73 C 929.39 91.33 927.17 103.21 930.33 113.73 C 926.04 121.45 920.83 128.60 916.00 135.99 C 909.46 145.79 902.97 155.63 896.35 165.37 C 894.29 168.40 892.52 171.61 890.85 174.86 C 887.30 181.73 882.64 187.94 878.50 194.45 C 851.38 235.99 824.20 277.50 797.06 319.03 C 791.22 327.61 786.05 336.64 779.66 344.84 C 743.25 311.10 706.61 277.60 670.00 244.08 C 664.56 238.88 658.77 234.06 653.65 228.55 C 655.83 226.80 658.29 225.28 659.96 222.98 C 660.55 221.37 660.38 219.63 660.54 217.95 C 662.83 213.98 664.26 209.54 664.54 204.94 C 665.35 193.80 660.58 182.12 651.29 175.66 C 653.43 172.93 655.43 170.08 657.18 167.09 C 659.52 160.26 656.89 152.12 650.56 148.45 C 646.82 146.00 642.12 146.00 637.87 146.81 C 631.70 149.18 626.81 155.14 627.13 161.96 C 626.98 167.06 630.39 171.14 633.60 174.71 C 626.95 180.06 621.33 187.40 620.19 196.06 C 619.54 203.60 619.08 211.87 623.66 218.38 C 622.68 222.91 626.86 225.47 628.92 228.87 C 626.25 232.81 622.54 235.86 619.45 239.44 C 613.25 246.53 606.69 253.31 600.77 260.65 C 590.30 273.15 579.04 284.97 568.16 297.11 C 565.46 300.16 562.38 302.84 559.57 305.78 C 521.69 272.94 484.22 239.63 446.38 206.75 C 439.80 200.57 432.73 194.94 425.99 188.96 C 422.68 186.53 424.21 182.10 424.12 178.66 C 426.11 175.42 427.32 171.75 428.02 168.02 C 428.25 163.88 428.02 159.70 427.11 155.65 C 425.08 148.12 420.88 140.99 414.29 136.60 C 414.70 135.95 415.12 135.30 415.56 134.67 C 416.91 132.65 418.46 130.75 419.60 128.60 C 421.12 125.61 420.86 122.12 420.54 118.88 C 418.94 113.28 414.15 108.41 408.25 107.60 C 403.79 106.74 399.21 107.98 395.57 110.63 C 392.02 114.09 389.41 118.88 390.00 123.97 C 390.13 128.80 393.59 132.48 396.63 135.86 C 395.93 136.53 395.22 137.19 394.50 137.84 C 390.26 141.53 386.83 146.16 384.94 151.48 C 381.67 160.22 381.26 170.88 386.81 178.79 C 386.66 182.75 387.04 187.13 384.53 190.49 C 381.52 194.78 378.40 199.02 376.04 203.73 C 372.61 210.20 368.28 216.11 364.27 222.22 C 330.59 273.57 297.24 325.15 263.39 376.40 C 260.37 380.79 257.73 385.42 254.93 389.94 C 253.18 392.13 251.38 394.29 249.57 396.44 C 245.95 391.76 241.78 387.57 237.74 383.26 C 218.21 362.14 198.88 340.84 179.42 319.66 C 173.70 312.39 167.25 305.76 161.10 298.87 C 158.13 295.94 158.14 291.59 158.02 287.72 C 160.70 284.00 162.05 279.53 162.31 274.99 C 163.06 263.83 158.35 251.83 148.72 245.67 C 149.97 243.06 151.73 240.76 153.36 238.39 C 157.16 231.06 153.76 221.18 146.23 217.81 C 142.35 216.40 138.11 216.91 134.07 217.11 C 127.86 219.64 123.36 226.09 124.06 232.90 C 124.24 237.75 127.59 241.54 130.73 244.89 C 124.54 250.37 119.39 257.38 117.77 265.63 C 116.06 273.42 117.14 281.89 121.59 288.60 C 121.73 291.06 121.98 293.51 122.18 295.96 C 117.99 300.90 113.56 305.62 109.38 310.57 C 73.04 352.05 36.69 393.51 0.00 434.67 L 0.00 0.00 Z" />
<path fill="#b7d00c" d=" M 945.57 48.39 C 951.48 46.21 958.60 47.27 962.96 52.05 C 967.66 56.63 968.24 64.17 965.40 69.90 C 961.66 70.85 957.69 72.51 953.85 71.18 C 949.86 69.86 946.64 66.59 945.35 62.60 C 943.65 57.99 944.87 53.06 945.57 48.39 Z" />
<path fill="#9ebb14" d=" M 936.28 62.93 C 935.99 56.68 940.15 51.13 945.57 48.39 C 944.87 53.06 943.65 57.99 945.35 62.60 C 946.64 66.59 949.86 69.86 953.85 71.18 C 957.69 72.51 961.66 70.85 965.40 69.90 C 963.91 72.08 962.31 74.18 960.63 76.21 C 958.04 80.09 953.37 81.35 948.94 80.97 C 945.86 80.39 942.85 79.55 939.84 78.75 C 940.81 77.78 941.81 76.82 942.79 75.84 C 939.60 72.20 936.13 68.09 936.28 62.93 Z" />
<path fill="#bdd50a" d=" M 960.63 76.21 C 967.38 81.30 972.15 88.79 973.80 97.08 C 969.93 100.81 965.39 105.40 959.49 104.44 C 949.18 102.91 943.98 89.73 948.94 80.97 C 953.37 81.35 958.04 80.09 960.63 76.21 Z" />
<path fill="#abc610" d=" M 936.24 82.73 C 937.38 81.35 938.58 80.02 939.84 78.75 C 942.85 79.55 945.86 80.39 948.94 80.97 C 943.98 89.73 949.18 102.91 959.49 104.44 C 965.39 105.40 969.93 100.81 973.80 97.08 C 974.22 101.73 974.19 106.43 973.55 111.06 C 973.23 112.01 972.87 112.94 972.48 113.85 C 968.40 114.84 964.43 116.49 960.21 116.66 C 951.84 116.31 944.32 110.78 940.48 103.49 C 936.81 97.21 937.15 89.71 936.24 82.73 Z" />
<path fill="#9cb915" d=" M 936.24 82.73 C 937.15 89.71 936.81 97.21 940.48 103.49 C 944.32 110.78 951.84 116.31 960.21 116.66 C 964.43 116.49 968.40 114.84 972.48 113.85 C 971.12 116.57 969.51 119.14 967.83 121.65 C 957.16 125.34 945.32 125.53 934.83 121.12 C 933.24 118.71 931.69 116.27 930.33 113.73 C 927.17 103.21 929.39 91.33 936.24 82.73 Z" />
<path fill="#000000" d=" M 1299.34 106.31 C 1308.86 105.54 1318.48 106.24 1328.05 105.97 C 1332.83 105.41 1337.71 109.15 1337.95 114.04 C 1338.17 119.36 1337.90 124.68 1338.04 130.00 C 1337.97 133.14 1338.47 136.71 1336.26 139.29 C 1334.55 141.52 1331.56 141.87 1329.33 143.34 C 1327.34 145.52 1326.14 148.32 1324.00 150.37 C 1321.81 148.24 1320.52 145.42 1318.58 143.11 C 1311.63 141.72 1304.36 143.34 1297.45 141.61 C 1294.76 140.12 1292.85 137.15 1293.00 134.02 C 1292.96 127.67 1292.96 121.32 1293.00 114.97 C 1292.82 111.06 1295.64 107.43 1299.34 106.31 Z" />
<path fill="#da21d2" d=" M 395.57 110.63 C 399.21 107.98 403.79 106.74 408.25 107.60 C 406.89 107.82 405.53 108.08 404.19 108.37 C 402.55 113.07 400.47 118.76 403.77 123.26 C 406.74 128.28 414.30 128.11 418.16 124.26 C 419.45 122.74 419.93 120.73 420.54 118.88 C 420.86 122.12 421.12 125.61 419.60 128.60 C 418.46 130.75 416.91 132.65 415.56 134.67 C 410.40 133.84 404.34 133.64 400.71 129.29 C 396.02 124.29 395.92 117.06 395.57 110.63 Z" />
<path fill="#e612e6" d=" M 404.19 108.37 C 405.53 108.08 406.89 107.82 408.25 107.60 C 414.15 108.41 418.94 113.28 420.54 118.88 C 419.93 120.73 419.45 122.74 418.16 124.26 C 414.30 128.11 406.74 128.28 403.77 123.26 C 400.47 118.76 402.55 113.07 404.19 108.37 Z" />
<path fill="#ce2ebf" d=" M 390.00 123.97 C 389.41 118.88 392.02 114.09 395.57 110.63 C 395.92 117.06 396.02 124.29 400.71 129.29 C 404.34 133.64 410.40 133.84 415.56 134.67 C 415.12 135.30 414.70 135.95 414.29 136.60 C 413.02 137.63 411.76 138.66 410.43 139.59 C 405.07 139.74 399.69 139.24 394.50 137.84 C 395.22 137.19 395.93 136.53 396.63 135.86 C 393.59 132.48 390.13 128.80 390.00 123.97 Z" />
<path fill="#eeeeee" d=" M 972.48 113.85 C 972.87 112.94 973.23 112.01 973.55 111.06 C 978.32 117.36 984.12 122.76 989.17 128.82 C 999.52 140.80 1010.80 152.02 1020.39 164.63 C 1005.48 161.61 990.60 158.45 975.79 155.00 C 968.32 161.04 962.23 168.55 955.07 174.93 C 948.58 172.05 942.44 168.47 935.99 165.51 C 930.91 165.44 926.01 166.96 921.11 168.08 C 911.03 170.38 900.91 172.49 890.85 174.86 C 892.52 171.61 894.29 168.40 896.35 165.37 C 902.97 155.63 909.46 145.79 916.00 135.99 C 920.83 128.60 926.04 121.45 930.33 113.73 C 931.69 116.27 933.24 118.71 934.83 121.12 C 936.38 123.46 938.19 126.10 941.23 126.48 C 947.93 127.73 954.92 127.77 961.62 126.45 C 964.40 126.04 966.30 123.84 967.83 121.65 C 969.51 119.14 971.12 116.57 972.48 113.85 Z" />
<path fill="#000000" d=" M 594.34 112.31 C 601.18 111.51 608.12 112.24 615.00 111.99 C 618.61 112.03 622.24 111.78 625.85 112.14 C 629.94 112.85 633.17 116.81 633.00 120.97 C 633.10 126.32 632.94 131.67 633.05 137.01 C 632.99 139.61 633.28 142.46 631.68 144.70 C 630.36 146.92 627.76 147.63 625.57 148.66 C 622.32 149.94 621.91 154.56 619.00 155.97 C 616.48 154.65 615.68 151.11 613.58 149.11 C 606.63 147.72 599.36 149.34 592.45 147.61 C 587.33 145.06 587.78 138.82 587.98 134.00 C 588.12 129.05 587.72 124.09 588.14 119.15 C 588.71 115.94 591.25 113.27 594.34 112.31 Z" />
<path fill="#fefefe" d=" M 1301.12 114.11 C 1310.73 113.88 1320.34 114.02 1329.95 114.12 C 1329.97 114.83 1330.00 116.26 1330.02 116.97 C 1320.33 117.02 1310.64 117.03 1300.96 116.97 C 1301.00 116.25 1301.08 114.82 1301.12 114.11 Z" />
<path fill="#fefefe" d=" M 596.13 120.10 C 605.73 119.88 615.34 120.02 624.95 120.12 C 624.97 120.83 625.00 122.26 625.02 122.97 C 615.33 123.02 605.64 123.03 595.96 122.97 C 596.00 122.25 596.08 120.82 596.13 120.10 Z" />
<path fill="#ffffff" d=" M 1301.00 120.02 C 1310.65 120.00 1320.31 119.95 1329.97 120.05 C 1329.98 120.78 1330.00 122.25 1330.01 122.98 C 1320.34 123.02 1310.67 123.01 1301.00 122.98 C 1301.00 122.24 1301.00 120.76 1301.00 120.02 Z" />
<path fill="#969699" d=" M 934.83 121.12 C 945.32 125.53 957.16 125.34 967.83 121.65 C 966.30 123.84 964.40 126.04 961.62 126.45 C 954.92 127.77 947.93 127.73 941.23 126.48 C 938.19 126.10 936.38 123.46 934.83 121.12 Z" />
<path fill="#ffffff" d=" M 596.00 126.02 C 605.65 125.99 615.31 125.96 624.96 126.04 C 624.98 126.78 625.00 128.24 625.01 128.98 C 615.34 129.02 605.67 129.02 596.00 128.98 C 596.00 128.24 596.00 126.76 596.00 126.02 Z" />
<path fill="#ffffff" d=" M 1300.94 126.04 C 1310.64 125.97 1320.35 125.97 1330.06 126.04 C 1330.00 126.71 1329.89 128.04 1329.83 128.71 C 1320.27 128.61 1310.72 128.62 1301.17 128.71 C 1301.11 128.04 1301.00 126.71 1300.94 126.04 Z" />
<path fill="#ffffff" d=" M 1301.00 131.02 C 1305.92 130.96 1310.84 130.95 1315.77 131.12 C 1315.77 131.81 1315.77 133.19 1315.77 133.88 C 1310.84 134.05 1305.92 134.03 1301.00 133.98 C 1301.00 133.24 1301.00 131.76 1301.00 131.02 Z" />
<path fill="#ffffff" d=" M 595.94 132.04 C 605.64 131.97 615.35 131.97 625.06 132.04 C 625.00 132.71 624.89 134.04 624.84 134.71 C 615.28 134.62 605.72 134.61 596.17 134.71 C 596.11 134.05 596.00 132.71 595.94 132.04 Z" />
<path fill="#e910ea" d=" M 414.29 136.60 C 420.88 140.99 425.08 148.12 427.11 155.65 C 422.69 158.59 418.02 163.14 412.24 161.82 C 404.35 159.74 400.95 150.02 403.71 142.84 C 404.99 141.29 407.16 140.89 408.93 140.12 C 409.31 139.99 410.06 139.72 410.43 139.59 C 411.76 138.66 413.02 137.63 414.29 136.60 Z" />
<path fill="#ffffff" d=" M 596.00 137.02 C 600.92 136.96 605.84 136.95 610.77 137.12 C 610.77 137.81 610.77 139.19 610.77 139.88 C 605.85 140.05 600.92 140.03 596.00 139.97 C 596.00 139.24 596.00 137.76 596.00 137.02 Z" />
<path fill="#d329c7" d=" M 384.94 151.48 C 386.83 146.16 390.26 141.53 394.50 137.84 C 399.69 139.24 405.07 139.74 410.43 139.59 C 410.06 139.72 409.31 139.99 408.93 140.12 C 404.84 140.42 400.67 139.96 396.63 140.81 C 394.69 141.16 394.26 143.44 394.07 145.07 C 393.18 155.33 398.27 166.71 408.06 170.91 C 414.75 173.75 421.86 170.77 428.02 168.02 C 427.32 171.75 426.11 175.42 424.12 178.66 C 423.54 179.51 422.95 180.36 422.34 181.18 C 420.15 181.88 417.95 182.52 415.73 183.09 C 409.21 179.68 401.29 178.56 396.19 172.82 C 390.04 167.16 388.51 158.67 384.94 151.48 Z" />
<path fill="#0b6ad0" d=" M 1345.13 140.41 C 1349.76 138.82 1355.17 138.74 1359.39 141.51 C 1365.96 145.32 1368.44 154.02 1365.50 160.91 C 1361.82 161.83 1358.08 163.37 1354.24 162.81 C 1348.56 161.40 1344.45 155.62 1344.54 149.84 C 1344.52 146.69 1344.93 143.55 1345.13 140.41 Z" />
<path fill="#dd1ed6" d=" M 396.63 140.81 C 400.67 139.96 404.84 140.42 408.93 140.12 C 407.16 140.89 404.99 141.29 403.71 142.84 C 400.95 150.02 404.35 159.74 412.24 161.82 C 418.02 163.14 422.69 158.59 427.11 155.65 C 428.02 159.70 428.25 163.88 428.02 168.02 C 421.86 170.77 414.75 173.75 408.06 170.91 C 398.27 166.71 393.18 155.33 394.07 145.07 C 394.26 143.44 394.69 141.16 396.63 140.81 Z" />
<path fill="#135cbc" d=" M 1335.89 154.99 C 1335.42 148.68 1339.68 143.13 1345.13 140.41 C 1344.93 143.55 1344.52 146.69 1344.54 149.84 C 1344.45 155.62 1348.56 161.40 1354.24 162.81 C 1358.08 163.37 1361.82 161.83 1365.50 160.91 C 1363.99 163.23 1362.24 165.37 1360.48 167.50 C 1360.66 167.92 1361.03 168.75 1361.22 169.17 C 1355.77 173.31 1348.85 174.01 1342.27 174.51 C 1341.90 179.79 1341.35 185.39 1343.64 190.35 C 1346.58 196.87 1352.92 202.11 1360.19 202.71 C 1364.91 202.94 1369.02 200.18 1373.12 198.25 C 1373.19 198.99 1373.33 200.49 1373.40 201.24 C 1372.91 204.99 1371.20 208.42 1369.48 211.74 L 1368.90 212.39 C 1358.41 218.29 1345.51 217.89 1334.63 213.30 C 1333.90 212.59 1333.20 211.86 1332.53 211.11 C 1327.69 202.37 1327.40 191.52 1331.40 182.41 C 1333.68 176.62 1337.96 171.97 1342.52 167.87 C 1339.12 164.37 1335.65 160.19 1335.89 154.99 Z" />
<path fill="#d20c8f" d=" M 637.87 146.81 C 642.12 146.00 646.82 146.00 650.56 148.45 C 656.89 152.12 659.52 160.26 657.18 167.09 C 653.91 168.27 650.65 169.85 647.12 169.86 C 642.32 169.47 638.14 165.77 636.77 161.22 C 635.17 156.46 636.77 151.48 637.87 146.81 Z" />
<path fill="#be147d" d=" M 627.13 161.96 C 626.81 155.14 631.70 149.18 637.87 146.81 C 636.77 151.48 635.17 156.46 636.77 161.22 C 638.14 165.77 642.32 169.47 647.12 169.86 C 650.65 169.85 653.91 168.27 657.18 167.09 C 655.43 170.08 653.43 172.93 651.29 175.66 C 647.08 181.33 639.37 179.08 633.67 181.65 C 630.15 192.71 636.58 205.83 647.82 209.22 C 653.78 211.50 659.47 207.64 664.54 204.94 C 664.26 209.54 662.83 213.98 660.54 217.95 C 660.28 218.28 659.76 218.95 659.50 219.28 C 649.08 225.18 636.24 224.51 625.35 220.31 C 624.93 219.82 624.08 218.86 623.66 218.38 C 619.08 211.87 619.54 203.60 620.19 196.06 C 621.33 187.40 626.95 180.06 633.60 174.71 C 630.39 171.14 626.98 167.06 627.13 161.96 Z" />
<path fill="#ca33b8" d=" M 386.81 178.79 C 381.26 170.88 381.67 160.22 384.94 151.48 C 388.51 158.67 390.04 167.16 396.19 172.82 C 401.29 178.56 409.21 179.68 415.73 183.09 C 406.78 186.01 397.17 184.47 388.53 181.27 C 387.91 180.47 387.34 179.64 386.81 178.79 Z" />
<path fill="#b0b0b0" d=" M 955.07 174.93 C 962.23 168.55 968.32 161.04 975.79 155.00 C 1018.57 269.91 1060.77 385.05 1103.46 500.00 L 869.05 500.00 C 873.30 482.40 875.93 464.45 879.74 446.75 C 896.67 359.74 913.87 272.78 930.75 185.75 C 932.07 178.91 932.97 171.88 935.99 165.51 C 942.44 168.47 948.58 172.05 955.07 174.93 Z" />
<path fill="#cccccc" d=" M 975.79 155.00 C 990.60 158.45 1005.48 161.61 1020.39 164.63 C 1024.50 170.11 1029.36 174.94 1033.89 180.07 C 1095.77 248.60 1157.37 317.38 1219.29 385.86 C 1219.77 385.40 1220.26 384.93 1220.76 384.47 C 1224.68 390.06 1230.04 394.37 1234.73 399.27 C 1264.22 428.78 1293.72 458.28 1323.23 487.76 C 1327.33 491.62 1331.09 495.82 1334.85 500.00 L 1103.46 500.00 C 1060.77 385.05 1018.57 269.91 975.79 155.00 Z" />
<path fill="#b8b8b8" d=" M 921.11 168.08 C 926.01 166.96 930.91 165.44 935.99 165.51 C 932.97 171.88 932.07 178.91 930.75 185.75 C 913.87 272.78 896.67 359.74 879.74 446.75 C 875.93 464.45 873.30 482.40 869.05 500.00 L 695.45 500.00 C 706.23 479.42 717.75 459.24 728.84 438.83 C 731.34 433.98 735.54 429.09 734.18 423.26 C 735.08 423.41 735.99 423.56 736.91 423.73 C 740.95 417.64 744.00 410.98 747.55 404.61 C 758.26 384.69 769.16 364.86 779.66 344.84 C 786.05 336.64 791.22 327.61 797.06 319.03 C 824.20 277.50 851.38 235.99 878.50 194.45 C 882.64 187.94 887.30 181.73 890.85 174.86 C 900.91 172.49 911.03 170.38 921.11 168.08 Z" />
<path fill="#0c6bd1" d=" M 1361.22 169.17 C 1370.78 176.54 1375.59 189.39 1373.40 201.24 C 1373.33 200.49 1373.19 198.99 1373.12 198.25 C 1369.02 200.18 1364.91 202.94 1360.19 202.71 C 1352.92 202.11 1346.58 196.87 1343.64 190.35 C 1341.35 185.39 1341.90 179.79 1342.27 174.51 C 1348.85 174.01 1355.77 173.31 1361.22 169.17 Z" />
<path fill="#000000" d=" M 139.33 172.31 C 148.86 171.54 158.48 172.24 168.05 171.97 C 173.19 171.34 178.26 175.72 178.00 180.97 C 177.94 187.92 178.24 194.89 177.85 201.83 C 177.35 205.60 173.80 207.53 170.57 208.66 C 167.04 209.77 166.97 215.73 163.32 215.85 C 161.59 213.72 160.39 211.19 158.58 209.11 C 151.63 207.72 144.36 209.34 137.45 207.61 C 134.76 206.12 132.85 203.15 133.00 200.02 C 132.96 193.67 132.96 187.32 133.00 180.97 C 132.83 177.06 135.64 173.43 139.33 172.31 Z" />
<path fill="#d20d8f" d=" M 651.29 175.66 C 660.58 182.12 665.35 193.80 664.54 204.94 C 659.47 207.64 653.78 211.50 647.82 209.22 C 636.58 205.83 630.15 192.71 633.67 181.65 C 639.37 179.08 647.08 181.33 651.29 175.66 Z" />
<path fill="#f6f6f6" d=" M 386.81 178.79 C 387.34 179.64 387.91 180.47 388.53 181.27 C 390.06 183.36 391.49 186.09 394.35 186.47 C 401.43 187.88 408.81 187.77 415.94 186.71 C 419.14 186.52 420.62 183.42 422.34 181.18 C 422.95 180.36 423.54 179.51 424.12 178.66 C 424.21 182.10 422.68 186.53 425.99 188.96 C 432.73 194.94 439.80 200.57 446.38 206.75 C 435.25 207.86 424.42 204.33 413.36 204.31 C 407.35 206.29 402.21 210.15 396.29 212.33 C 393.54 213.52 390.71 211.98 388.28 210.75 C 384.15 208.50 380.17 205.97 376.04 203.73 C 378.40 199.02 381.52 194.78 384.53 190.49 C 387.04 187.13 386.66 182.75 386.81 178.79 Z" />
<path fill="#fefefe" d=" M 141.13 180.11 C 150.73 179.88 160.34 180.02 169.95 180.12 C 169.97 180.83 170.00 182.26 170.02 182.97 C 160.33 183.02 150.65 183.02 140.96 182.97 C 141.00 182.25 141.08 180.82 141.13 180.11 Z" />
<path fill="#a0a4a0" d=" M 388.53 181.27 C 397.17 184.47 406.78 186.01 415.73 183.09 C 417.95 182.52 420.15 181.88 422.34 181.18 C 420.62 183.42 419.14 186.52 415.94 186.71 C 408.81 187.77 401.43 187.88 394.35 186.47 C 391.49 186.09 390.06 183.36 388.53 181.27 Z" />
<path fill="#ffffff" d=" M 141.00 186.02 C 150.65 185.99 160.31 185.96 169.97 186.05 C 169.98 186.78 170.00 188.24 170.01 188.98 C 160.34 189.02 150.67 189.02 141.00 188.98 C 141.00 188.24 141.00 186.76 141.00 186.02 Z" />
<path fill="#ffffff" d=" M 140.94 192.04 C 150.65 191.97 160.36 191.97 170.06 192.05 C 170.00 192.71 169.89 194.05 169.83 194.71 C 160.27 194.61 150.72 194.62 141.17 194.71 C 141.11 194.04 141.00 192.71 140.94 192.04 Z" />
<path fill="#ffffff" d=" M 141.00 197.02 C 145.92 196.96 150.85 196.95 155.77 197.12 C 155.77 197.81 155.77 199.19 155.77 199.88 C 150.85 200.05 145.92 200.03 141.00 199.98 C 141.00 199.24 141.00 197.76 141.00 197.02 Z" />
<path fill="#cccccc" d=" M 376.04 203.73 C 380.17 205.97 384.15 208.50 388.28 210.75 C 390.71 211.98 393.54 213.52 396.29 212.33 C 402.21 210.15 407.35 206.29 413.36 204.31 C 412.56 205.36 411.80 206.43 411.03 207.50 C 362.23 264.86 313.30 322.12 264.47 379.46 C 261.41 383.06 258.07 386.41 254.93 389.94 C 257.73 385.42 260.37 380.79 263.39 376.40 C 297.24 325.15 330.59 273.57 364.27 222.22 C 368.28 216.11 372.61 210.20 376.04 203.73 Z" />
<path fill="#b7b7b7" d=" M 413.36 204.31 C 424.42 204.33 435.25 207.86 446.38 206.75 C 484.22 239.63 521.69 272.94 559.57 305.78 C 508.33 370.58 457.02 435.35 405.59 500.00 L 374.96 500.00 C 377.15 477.63 380.68 455.41 383.34 433.09 C 392.21 364.67 401.08 296.24 409.97 227.82 C 410.74 221.09 412.67 214.26 411.03 207.50 C 411.80 206.43 412.56 205.36 413.36 204.31 Z" />
<path fill="#a7a7a7" d=" M 264.47 379.46 C 313.30 322.12 362.23 264.86 411.03 207.50 C 412.67 214.26 410.74 221.09 409.97 227.82 C 401.08 296.24 392.21 364.67 383.34 433.09 C 380.68 455.41 377.15 477.63 374.96 500.00 L 333.48 500.00 C 307.65 468.65 282.24 436.94 256.46 405.55 C 254.02 402.62 251.84 399.49 249.57 396.44 C 251.38 394.29 253.18 392.13 254.93 389.94 C 258.07 386.41 261.41 383.06 264.47 379.46 Z" />
<path fill="#ececec" d=" M 1332.53 211.11 C 1333.20 211.86 1333.90 212.59 1334.63 213.30 C 1338.64 218.70 1345.80 219.35 1352.01 219.35 C 1358.19 219.19 1365.24 217.98 1368.90 212.39 L 1369.48 211.74 C 1369.60 215.04 1367.63 217.66 1365.46 219.91 C 1368.35 223.63 1371.07 227.50 1373.47 231.57 C 1382.24 246.08 1391.79 260.12 1400.09 274.92 C 1392.01 272.30 1383.95 269.64 1375.92 266.89 C 1374.04 266.30 1372.16 265.60 1370.20 265.57 C 1367.40 266.29 1365.13 268.21 1362.77 269.77 C 1355.30 275.07 1347.47 279.84 1339.99 285.11 C 1336.46 275.20 1333.45 265.11 1329.83 255.22 C 1323.55 254.64 1317.27 254.19 1310.98 253.92 C 1316.52 244.62 1323.12 236.01 1328.74 226.76 C 1330.51 223.72 1333.16 221.36 1336.01 219.35 C 1334.58 216.72 1333.51 213.92 1332.53 211.11 Z" />
<path fill="#959997" d=" M 1334.63 213.30 C 1345.51 217.89 1358.41 218.29 1368.90 212.39 C 1365.24 217.98 1358.19 219.19 1352.01 219.35 C 1345.80 219.35 1338.64 218.70 1334.63 213.30 Z" />
<path fill="#2913bc" d=" M 124.06 232.90 C 123.36 226.09 127.86 219.64 134.07 217.11 C 133.08 221.57 131.53 226.32 133.12 230.84 C 134.56 234.66 137.51 238.14 141.42 239.56 C 145.40 240.64 149.49 239.33 153.36 238.39 C 151.73 240.76 149.97 243.06 148.72 245.67 C 143.64 250.88 135.93 250.44 129.27 251.46 C 128.76 257.44 128.67 263.84 131.86 269.17 C 134.95 274.78 140.36 279.69 147.04 280.05 C 152.68 280.85 157.68 277.71 162.31 274.99 C 162.05 279.53 160.70 284.00 158.02 287.72 C 157.47 288.54 156.92 289.37 156.36 290.19 C 145.64 294.76 133.21 294.56 122.52 290.04 C 122.29 289.68 121.82 288.96 121.59 288.60 C 117.14 281.89 116.06 273.42 117.77 265.63 C 119.39 257.38 124.54 250.37 130.73 244.89 C 127.59 241.54 124.24 237.75 124.06 232.90 Z" />
<path fill="#2c0cd1" d=" M 134.07 217.11 C 138.11 216.91 142.35 216.40 146.23 217.81 C 153.76 221.18 157.16 231.06 153.36 238.39 C 149.49 239.33 145.40 240.64 141.42 239.56 C 137.51 238.14 134.56 234.66 133.12 230.84 C 131.53 226.32 133.08 221.57 134.07 217.11 Z" />
<path fill="#f3f3f3" d=" M 659.50 219.28 C 659.76 218.95 660.28 218.28 660.54 217.95 C 660.38 219.63 660.55 221.37 659.96 222.98 C 658.29 225.28 655.83 226.80 653.65 228.55 C 658.77 234.06 664.56 238.88 670.00 244.08 C 667.49 250.79 664.72 259.04 657.23 261.54 C 652.64 259.23 648.79 255.71 644.37 253.09 C 642.55 260.93 641.23 268.87 639.24 276.67 C 634.56 271.09 630.50 265.03 625.79 259.48 C 617.44 258.64 609.13 260.56 600.77 260.65 C 606.69 253.31 613.25 246.53 619.45 239.44 C 622.54 235.86 626.25 232.81 628.92 228.87 C 626.86 225.47 622.68 222.91 623.66 218.38 C 624.08 218.86 624.93 219.82 625.35 220.31 C 629.06 225.67 636.03 226.34 642.00 226.42 C 648.39 226.35 656.02 225.45 659.50 219.28 Z" />
<path fill="#959997" d=" M 625.35 220.31 C 636.24 224.51 649.08 225.18 659.50 219.28 C 656.02 225.45 648.39 226.35 642.00 226.42 C 636.03 226.34 629.06 225.67 625.35 220.31 Z" />
<path fill="#ababab" d=" M 670.00 244.08 C 706.61 277.60 743.25 311.10 779.66 344.84 C 769.16 364.86 758.26 384.69 747.55 404.61 C 744.00 410.98 740.95 417.64 736.91 423.73 C 735.99 423.56 735.08 423.41 734.18 423.26 C 704.04 377.22 674.20 330.98 644.09 284.93 C 642.44 282.19 640.97 279.35 639.24 276.67 C 641.23 268.87 642.55 260.93 644.37 253.09 C 648.79 255.71 652.64 259.23 657.23 261.54 C 664.72 259.04 667.49 250.79 670.00 244.08 Z" />
<path fill="#2c0cd0" d=" M 129.27 251.46 C 135.93 250.44 143.64 250.88 148.72 245.67 C 158.35 251.83 163.06 263.83 162.31 274.99 C 157.68 277.71 152.68 280.85 147.04 280.05 C 140.36 279.69 134.95 274.78 131.86 269.17 C 128.67 263.84 128.76 257.44 129.27 251.46 Z" />
<path fill="#cccccc" d=" M 1310.98 253.92 C 1317.27 254.19 1323.55 254.64 1329.83 255.22 C 1333.45 265.11 1336.46 275.20 1339.99 285.11 C 1309.34 310.40 1278.93 335.97 1248.37 361.36 C 1240.94 367.32 1234.05 373.98 1226.03 379.15 C 1231.34 369.67 1238.00 361.04 1244.00 352.00 C 1266.30 319.29 1288.74 286.67 1310.98 253.92 Z" />
<path fill="#cccccc" d=" M 600.77 260.65 C 609.13 260.56 617.44 258.64 625.79 259.48 C 624.35 261.86 622.97 264.29 621.89 266.87 C 605.59 309.51 589.13 352.10 572.76 394.72 C 559.37 429.83 545.58 464.80 532.45 500.00 L 405.59 500.00 C 457.02 435.35 508.33 370.58 559.57 305.78 C 562.38 302.84 565.46 300.16 568.16 297.11 C 579.04 284.97 590.30 273.15 600.77 260.65 Z" />
<path fill="#c1c1c1" d=" M 621.89 266.87 C 622.97 264.29 624.35 261.86 625.79 259.48 C 630.50 265.03 634.56 271.09 639.24 276.67 C 640.97 279.35 642.44 282.19 644.09 284.93 C 674.20 330.98 704.04 377.22 734.18 423.26 C 735.54 429.09 731.34 433.98 728.84 438.83 C 717.75 459.24 706.23 479.42 695.45 500.00 L 532.45 500.00 C 545.58 464.80 559.37 429.83 572.76 394.72 C 589.13 352.10 605.59 309.51 621.89 266.87 Z" />
<path fill="#b7b7b7" d=" M 1362.77 269.77 C 1365.13 268.21 1367.40 266.29 1370.20 265.57 C 1372.16 265.60 1374.04 266.30 1375.92 266.89 C 1376.69 276.05 1380.38 284.55 1382.84 293.32 C 1403.69 362.23 1424.71 431.09 1445.52 500.00 L 1334.85 500.00 C 1331.09 495.82 1327.33 491.62 1323.23 487.76 C 1293.72 458.28 1264.22 428.78 1234.73 399.27 C 1230.04 394.37 1224.68 390.06 1220.76 384.47 C 1222.51 382.70 1224.32 380.98 1226.03 379.15 C 1234.05 373.98 1240.94 367.32 1248.37 361.36 C 1278.93 335.97 1309.34 310.40 1339.99 285.11 C 1347.47 279.84 1355.30 275.07 1362.77 269.77 Z" />
<path fill="#a7a7a7" d=" M 1375.92 266.89 C 1383.95 269.64 1392.01 272.30 1400.09 274.92 C 1411.26 293.32 1422.93 311.41 1434.28 329.70 C 1456.17 364.67 1478.06 399.65 1500.00 434.58 L 1500.00 500.00 L 1445.52 500.00 C 1424.71 431.09 1403.69 362.23 1382.84 293.32 C 1380.38 284.55 1376.69 276.05 1375.92 266.89 Z" />
<path fill="#f2f2f2" d=" M 156.36 290.19 C 156.92 289.37 157.47 288.54 158.02 287.72 C 158.14 291.59 158.13 295.94 161.10 298.87 C 167.25 305.76 173.70 312.39 179.42 319.66 C 172.99 320.01 166.54 320.02 160.10 320.10 C 158.26 326.53 157.19 333.22 154.38 339.34 C 147.97 331.25 141.56 323.16 135.03 315.18 C 134.77 315.38 134.24 315.78 133.98 315.97 C 129.34 319.00 124.64 321.93 120.02 324.99 C 116.59 320.10 113.60 314.85 109.38 310.57 C 113.56 305.62 117.99 300.90 122.18 295.96 C 121.98 293.51 121.73 291.06 121.59 288.60 C 121.82 288.96 122.29 289.68 122.52 290.04 C 123.87 292.06 125.18 294.47 127.67 295.26 C 132.58 297.04 137.92 296.84 143.06 296.74 C 146.36 296.50 149.87 296.41 152.83 294.76 C 154.31 293.51 155.29 291.78 156.36 290.19 Z" />
<path fill="#a3a4a0" d=" M 122.52 290.04 C 133.21 294.56 145.64 294.76 156.36 290.19 C 155.29 291.78 154.31 293.51 152.83 294.76 C 149.87 296.41 146.36 296.50 143.06 296.74 C 137.92 296.84 132.58 297.04 127.67 295.26 C 125.18 294.47 123.87 292.06 122.52 290.04 Z" />
<path fill="#b1b1b1" d=" M 109.38 310.57 C 113.60 314.85 116.59 320.10 120.02 324.99 C 124.64 321.93 129.34 319.00 133.98 315.97 C 131.32 327.60 126.48 338.54 122.86 349.88 C 105.46 399.91 88.00 449.94 70.68 500.00 L 0.00 500.00 L 0.00 434.67 C 36.69 393.51 73.04 352.05 109.38 310.57 Z" />
<path fill="#c1c1c1" d=" M 133.98 315.97 C 134.24 315.78 134.77 315.38 135.03 315.18 C 141.56 323.16 147.97 331.25 154.38 339.34 C 157.68 343.87 160.54 348.70 163.59 353.41 C 194.44 402.32 225.64 451.03 256.39 500.00 L 70.68 500.00 C 88.00 449.94 105.46 399.91 122.86 349.88 C 126.48 338.54 131.32 327.60 133.98 315.97 Z" />
<path fill="#cccccc" d=" M 160.10 320.10 C 166.54 320.02 172.99 320.01 179.42 319.66 C 198.88 340.84 218.21 362.14 237.74 383.26 C 241.78 387.57 245.95 391.76 249.57 396.44 C 251.84 399.49 254.02 402.62 256.46 405.55 C 282.24 436.94 307.65 468.65 333.48 500.00 L 256.39 500.00 C 225.64 451.03 194.44 402.32 163.59 353.41 C 160.54 348.70 157.68 343.87 154.38 339.34 C 157.19 333.22 158.26 326.53 160.10 320.10 Z" />
</svg>
