<?xml version="1.0" encoding="UTF-8" ?>
<!DOCTYPE svg PUBLIC "-//W3C//DTD SVG 1.1//EN" "http://www.w3.org/Graphics/SVG/1.1/DTD/svg11.dtd">
<svg width="480pt" height="480pt" viewBox="0 0 480 480" version="1.1" xmlns="http://www.w3.org/2000/svg">
<path fill="#ffffff" d=" M 0.00 0.00 L 480.00 0.00 L 480.00 384.07 C 443.67 350.74 407.38 317.37 371.05 284.04 C 365.50 279.18 360.48 273.67 354.50 269.33 C 349.66 269.13 344.86 270.49 340.00 269.99 C 336.82 269.95 333.66 268.74 330.55 268.84 C 324.81 273.69 320.42 279.91 315.21 285.30 C 310.99 290.35 306.09 294.82 302.30 300.22 C 288.66 315.66 275.05 331.17 260.60 345.88 C 222.83 312.96 185.30 279.76 147.53 246.84 C 139.93 240.10 132.46 233.17 124.33 227.07 C 125.30 225.72 126.25 224.35 127.22 222.99 C 126.97 222.29 126.47 220.90 126.22 220.21 C 129.63 216.22 130.68 210.95 130.96 205.85 C 131.10 200.62 130.03 195.39 127.89 190.61 C 125.74 185.87 122.62 181.52 118.51 178.30 C 118.05 177.94 117.14 177.22 116.68 176.86 C 119.99 174.16 122.79 170.70 123.55 166.38 C 124.62 160.02 121.49 153.16 115.74 150.13 C 112.64 148.35 108.96 148.13 105.48 148.42 C 98.65 149.78 92.90 155.94 92.90 163.04 C 92.43 168.54 95.55 173.65 99.90 176.79 C 91.63 182.91 86.10 192.76 85.70 203.10 C 85.43 208.81 86.14 214.91 89.74 219.57 C 88.77 222.54 89.60 225.37 91.56 227.71 C 90.14 227.92 88.73 228.15 87.33 228.39 C 83.86 233.38 80.46 238.42 77.34 243.64 C 65.25 262.73 52.54 281.42 40.29 300.41 C 28.21 318.96 16.10 337.49 4.03 356.05 C 2.75 357.92 1.35 359.72 0.00 361.56 L 0.00 0.00 Z" />
<path fill="#000000" d=" M 110.47 104.07 C 121.16 103.95 131.85 103.97 142.53 104.06 C 143.08 104.34 144.17 104.91 144.72 105.20 C 145.87 106.10 146.93 107.10 147.77 108.30 C 148.06 108.85 148.64 109.94 148.92 110.48 C 149.10 117.00 148.93 123.52 149.02 130.04 C 149.00 131.85 149.17 133.75 148.47 135.47 C 147.13 137.45 145.57 139.82 142.96 140.05 C 138.50 140.38 138.35 146.39 134.99 148.08 C 132.45 146.65 131.69 143.13 129.65 141.02 C 122.73 140.12 115.67 140.67 108.70 139.99 C 107.09 138.70 105.63 137.24 104.52 135.49 C 103.83 133.74 104.00 131.84 103.98 130.01 C 104.06 123.50 103.90 116.98 104.07 110.47 C 104.35 109.93 104.92 108.84 105.21 108.29 C 106.10 107.13 107.13 106.09 108.29 105.21 C 108.84 104.93 109.93 104.35 110.47 104.07 Z" />
<path fill="#ffffff" d=" M 112.14 112.15 C 121.73 111.83 131.33 112.10 140.92 112.10 C 140.94 112.83 140.99 114.28 141.01 115.00 C 131.34 115.00 121.67 115.00 112.00 115.00 C 112.04 114.29 112.11 112.86 112.14 112.15 Z" />
<path fill="#ffffff" d=" M 112.00 118.00 C 121.65 118.02 131.30 117.96 140.94 118.03 C 140.96 118.77 141.00 120.26 141.01 121.00 C 131.34 121.00 121.67 121.00 112.00 121.00 C 112.00 120.25 112.00 118.75 112.00 118.00 Z" />
<path fill="#ffffff" d=" M 112.00 124.00 C 121.67 124.00 131.33 124.00 141.00 124.00 C 141.00 124.67 141.00 126.00 141.00 126.66 C 131.33 126.64 121.67 126.63 112.00 126.67 C 112.00 126.00 112.00 124.67 112.00 124.00 Z" />
<path fill="#ffffff" d=" M 112.00 129.00 C 116.89 129.00 121.78 129.00 126.67 129.00 C 126.66 129.75 126.65 131.25 126.64 131.99 C 121.76 132.00 116.88 132.00 112.00 132.00 C 112.00 131.25 112.00 129.75 112.00 129.00 Z" />
<path fill="#0c6bd1" d=" M 105.48 148.42 C 108.96 148.13 112.64 148.35 115.74 150.13 C 121.49 153.16 124.62 160.02 123.55 166.38 C 120.67 169.05 117.49 172.45 113.14 171.72 C 105.89 171.28 101.45 163.64 101.90 156.92 C 101.98 153.73 103.91 151.06 105.48 148.42 Z" />
<path fill="#145cbd" d=" M 92.90 163.04 C 92.90 155.94 98.65 149.78 105.48 148.42 C 103.91 151.06 101.98 153.73 101.90 156.92 C 101.45 163.64 105.89 171.28 113.14 171.72 C 117.49 172.45 120.67 169.05 123.55 166.38 C 122.79 170.70 119.99 174.16 116.68 176.86 C 117.14 177.22 118.05 177.94 118.51 178.30 C 115.97 179.98 113.28 181.47 110.35 182.32 C 106.77 182.24 103.10 181.60 99.58 182.53 C 97.66 189.40 98.74 197.22 102.93 203.08 C 106.13 207.90 111.67 210.90 117.36 211.50 C 122.46 211.60 127.05 208.87 130.96 205.85 C 130.68 210.95 129.63 216.22 126.22 220.21 C 126.08 220.38 125.81 220.73 125.68 220.91 C 125.06 221.40 123.81 222.39 123.19 222.88 C 114.54 226.33 104.98 226.01 96.00 224.19 C 94.09 223.06 92.28 221.77 90.41 220.58 C 90.24 220.33 89.91 219.82 89.74 219.57 C 86.14 214.91 85.43 208.81 85.70 203.10 C 86.10 192.76 91.63 182.91 99.90 176.79 C 95.55 173.65 92.43 168.54 92.90 163.04 Z" />
<path fill="#000000" d=" M 295.48 152.07 C 306.16 151.95 316.85 151.97 327.53 152.06 C 328.08 152.34 329.17 152.91 329.71 153.19 C 330.86 154.09 331.93 155.09 332.77 156.30 C 333.06 156.85 333.63 157.94 333.92 158.49 C 334.11 165.00 333.93 171.52 334.02 178.04 C 333.99 179.86 334.18 181.75 333.47 183.48 C 332.12 185.43 330.59 187.81 327.99 188.04 C 323.51 188.36 323.35 194.36 320.00 196.07 C 317.08 194.74 316.82 190.00 313.79 188.82 C 307.11 188.33 300.39 188.54 293.71 188.00 C 292.09 186.71 290.63 185.23 289.51 183.49 C 288.84 181.75 288.99 179.87 288.98 178.06 C 289.07 171.53 288.90 165.00 289.07 158.48 C 289.36 157.93 289.93 156.84 290.22 156.30 C 291.09 155.12 292.13 154.09 293.29 153.21 C 293.84 152.92 294.93 152.35 295.48 152.07 Z" />
<path fill="#ffffff" d=" M 297.13 160.16 C 306.72 159.82 316.32 160.11 325.92 160.10 C 325.94 160.83 325.99 162.28 326.01 163.00 C 316.34 163.00 306.67 163.00 297.00 163.00 C 297.03 162.29 297.10 160.87 297.13 160.16 Z" />
<path fill="#ffffff" d=" M 297.00 166.00 C 306.65 166.02 316.30 165.96 325.95 166.03 C 325.96 166.77 326.00 168.26 326.01 169.00 C 316.34 169.00 306.67 169.00 297.00 169.00 C 297.00 168.25 297.00 166.75 297.00 166.00 Z" />
<path fill="#ffffff" d=" M 297.00 172.00 C 306.66 172.00 316.33 172.00 326.00 172.00 C 326.00 172.67 326.00 174.00 326.00 174.66 C 316.33 174.64 306.67 174.63 297.00 174.67 C 297.00 174.00 297.00 172.67 297.00 172.00 Z" />
<path fill="#ffffff" d=" M 297.00 177.00 C 301.89 177.00 306.78 176.99 311.67 177.01 C 311.67 177.75 311.65 179.25 311.64 180.00 C 306.76 180.00 301.88 180.00 297.00 180.00 C 297.00 179.25 297.00 177.75 297.00 177.00 Z" />
<path fill="#096fd7" d=" M 118.51 178.30 C 122.62 181.52 125.74 185.87 127.89 190.61 C 127.81 194.28 127.03 198.53 123.37 200.30 C 118.90 203.58 112.41 202.09 109.37 197.60 C 106.19 193.52 106.85 188.08 107.50 183.30 C 108.45 182.97 109.40 182.64 110.35 182.32 C 113.28 181.47 115.97 179.98 118.51 178.30 Z" />
<path fill="#0e67cc" d=" M 99.58 182.53 C 103.10 181.60 106.77 182.24 110.35 182.32 C 109.40 182.64 108.45 182.97 107.50 183.30 C 106.85 188.08 106.19 193.52 109.37 197.60 C 112.41 202.09 118.90 203.58 123.37 200.30 C 127.03 198.53 127.81 194.28 127.89 190.61 C 130.03 195.39 131.10 200.62 130.96 205.85 C 127.05 208.87 122.46 211.60 117.36 211.50 C 111.67 210.90 106.13 207.90 102.93 203.08 C 98.74 197.22 97.66 189.40 99.58 182.53 Z" />
<path fill="#c81187" d=" M 335.31 188.42 C 339.32 186.34 343.94 185.74 348.32 186.91 C 345.97 187.80 342.94 188.25 341.75 190.75 C 339.21 195.24 340.46 201.32 344.55 204.44 C 347.83 207.39 353.30 206.08 355.79 202.74 C 357.01 200.55 357.34 198.01 357.99 195.62 C 360.22 201.59 358.91 209.66 353.44 213.23 C 347.93 213.55 341.78 212.37 338.03 207.99 C 333.92 202.36 334.01 194.96 335.31 188.42 Z" />
<path fill="#d60b93" d=" M 348.32 186.91 C 352.65 188.27 355.87 191.73 357.99 195.62 C 357.34 198.01 357.01 200.55 355.79 202.74 C 353.30 206.08 347.83 207.39 344.55 204.44 C 340.46 201.32 339.21 195.24 341.75 190.75 C 342.94 188.25 345.97 187.80 348.32 186.91 Z" />
<path fill="#bc167b" d=" M 329.19 196.11 C 330.27 192.90 332.79 190.54 335.31 188.42 C 334.01 194.96 333.92 202.36 338.03 207.99 C 341.78 212.37 347.93 213.55 353.44 213.23 C 352.24 214.23 351.78 215.34 352.96 216.61 C 351.06 217.61 349.11 218.53 347.08 219.24 C 347.38 218.66 347.97 217.50 348.26 216.91 C 343.83 216.89 339.26 216.62 335.26 214.52 C 329.10 210.98 326.46 202.62 329.19 196.11 Z" />
<path fill="#edf3cb" d=" M 82.34 201.36 C 83.90 202.46 83.28 205.77 82.65 207.51 C 81.36 206.18 81.54 203.10 82.34 201.36 Z" />
<path fill="#9c1b6d" d=" M 332.41 216.69 C 333.35 215.95 334.30 215.23 335.26 214.52 C 339.26 216.62 343.83 216.89 348.26 216.91 C 347.97 217.50 347.38 218.66 347.08 219.24 C 343.25 219.70 339.23 219.94 335.61 218.36 C 334.53 217.82 333.47 217.24 332.41 216.69 Z" />
<path fill="#d20d90" d=" M 352.96 216.61 L 353.63 216.26 C 361.44 223.14 366.12 233.45 365.79 243.89 C 361.26 248.50 354.42 251.44 348.04 249.09 C 340.08 246.79 335.93 238.81 333.67 231.44 C 332.36 227.03 333.55 222.34 335.61 218.36 C 339.23 219.94 343.25 219.70 347.08 219.24 C 349.11 218.53 351.06 217.61 352.96 216.61 Z" />
<path fill="#bf147f" d=" M 321.07 235.25 C 322.80 228.06 326.82 221.63 332.14 216.55 L 332.41 216.69 C 333.47 217.24 334.53 217.82 335.61 218.36 C 333.55 222.34 332.36 227.03 333.67 231.44 C 335.93 238.81 340.08 246.79 348.04 249.09 C 354.42 251.44 361.26 248.50 365.79 243.89 C 365.23 248.96 364.50 254.50 360.66 258.24 C 354.60 264.19 345.48 263.91 337.62 263.44 C 333.61 259.13 328.43 255.88 325.38 250.74 C 322.43 246.09 322.51 240.41 321.07 235.25 Z" />
<path fill="#f6f6f6" d=" M 89.74 219.57 C 89.91 219.82 90.24 220.33 90.41 220.58 C 90.87 223.49 92.46 226.31 95.50 227.10 C 102.47 229.09 109.88 228.37 117.01 227.90 C 121.02 227.66 125.58 225.52 125.68 220.91 C 125.81 220.73 126.08 220.38 126.22 220.21 C 126.47 220.90 126.97 222.29 127.22 222.99 C 126.25 224.35 125.30 225.72 124.33 227.07 C 132.46 233.17 139.93 240.10 147.53 246.84 C 136.43 247.71 125.57 244.66 114.54 244.09 C 107.86 246.82 101.68 250.63 95.04 253.47 C 88.90 250.66 83.03 247.29 77.34 243.64 C 80.46 238.42 83.86 233.38 87.33 228.39 C 88.73 228.15 90.14 227.92 91.56 227.71 C 89.60 225.37 88.77 222.54 89.74 219.57 Z" />
<path fill="#b6b6b6" d=" M 90.41 220.58 C 92.28 221.77 94.09 223.06 96.00 224.19 C 101.62 228.24 109.12 227.67 115.60 226.58 C 118.49 226.22 121.08 224.84 123.19 222.88 C 123.81 222.39 125.06 221.40 125.68 220.91 C 125.58 225.52 121.02 227.66 117.01 227.90 C 109.88 228.37 102.47 229.09 95.50 227.10 C 92.46 226.31 90.87 223.49 90.41 220.58 Z" />
<path fill="#838b96" d=" M 96.00 224.19 C 104.98 226.01 114.54 226.33 123.19 222.88 C 121.08 224.84 118.49 226.22 115.60 226.58 C 109.12 227.67 101.62 228.24 96.00 224.19 Z" />
<path fill="#b21973" d=" M 321.07 235.25 C 322.51 240.41 322.43 246.09 325.38 250.74 C 328.43 255.88 333.61 259.13 337.62 263.44 C 333.39 263.14 329.25 261.69 325.99 258.95 C 323.41 256.73 321.73 253.55 321.09 250.24 C 320.84 245.25 321.01 240.24 321.07 235.25 Z" />
<path fill="#cccccc" d=" M 77.34 243.64 C 83.03 247.29 88.90 250.66 95.04 253.47 C 101.68 250.63 107.86 246.82 114.54 244.09 L 114.47 244.65 C 90.32 273.11 66.04 301.47 41.83 329.89 C 27.97 345.98 14.40 362.33 0.40 378.29 L 0.00 376.81 L 0.00 361.56 C 1.35 359.72 2.75 357.92 4.03 356.05 C 16.10 337.49 28.21 318.96 40.29 300.41 C 52.54 281.42 65.25 262.73 77.34 243.64 Z" />
<path fill="#b7b7b7" d=" M 114.54 244.09 C 125.57 244.66 136.43 247.71 147.53 246.84 C 185.30 279.76 222.83 312.96 260.60 345.88 C 225.09 390.54 189.75 435.36 154.19 480.00 L 84.19 480.00 C 94.28 403.69 103.99 327.33 114.01 251.01 C 114.24 248.89 114.32 246.77 114.47 244.65 L 114.54 244.09 Z" />
<path fill="#a7a7a7" d=" M 114.47 244.65 C 114.32 246.77 114.24 248.89 114.01 251.01 C 103.99 327.33 94.28 403.69 84.19 480.00 L 0.00 480.00 L 0.00 376.81 L 0.40 378.29 C 14.40 362.33 27.97 345.98 41.83 329.89 C 66.04 301.47 90.32 273.11 114.47 244.65 Z" />
<path fill="#b4b4b4" d=" M 337.62 263.44 C 345.48 263.91 354.60 264.19 360.66 258.24 C 360.49 259.60 360.46 260.99 360.11 262.32 C 355.30 266.77 348.33 267.73 342.03 267.46 C 335.51 267.62 328.26 265.90 324.32 260.27 L 325.36 260.51 C 325.52 260.12 325.83 259.34 325.99 258.95 C 329.25 261.69 333.39 263.14 337.62 263.44 Z" />
<path fill="#f3f3f3" d=" M 330.55 268.84 C 333.66 268.74 336.82 269.95 340.00 269.99 C 344.86 270.49 349.66 269.13 354.50 269.33 C 360.48 273.67 365.50 279.18 371.05 284.04 C 369.41 287.77 368.18 291.70 366.15 295.25 C 364.17 298.07 361.16 299.90 358.57 302.11 C 354.18 299.09 349.93 295.87 345.41 293.05 C 343.62 301.03 342.12 309.08 340.34 317.07 C 335.63 311.19 331.50 304.86 326.49 299.23 C 318.41 298.68 310.41 301.11 302.30 300.22 C 306.09 294.82 310.99 290.35 315.21 285.30 C 320.42 279.91 324.81 273.69 330.55 268.84 Z" />
<path fill="#ababab" d=" M 371.05 284.04 C 407.38 317.37 443.67 350.74 480.00 384.07 L 480.00 386.49 C 469.49 405.84 458.88 425.13 448.61 444.60 C 444.67 451.60 441.18 458.86 436.75 465.58 C 417.22 435.65 397.70 405.72 378.26 375.74 C 365.65 356.16 352.64 336.84 340.34 317.07 C 342.12 309.08 343.62 301.03 345.41 293.05 C 349.93 295.87 354.18 299.09 358.57 302.11 C 361.16 299.90 364.17 298.07 366.15 295.25 C 368.18 291.70 369.41 287.77 371.05 284.04 Z" />
<path fill="#cccccc" d=" M 302.30 300.22 C 310.41 301.11 318.41 298.68 326.49 299.23 C 324.50 302.55 323.04 306.15 321.82 309.82 C 303.75 356.73 285.71 403.67 267.66 450.59 C 263.95 460.38 259.89 470.04 256.65 480.00 L 154.19 480.00 C 189.75 435.36 225.09 390.54 260.60 345.88 C 275.05 331.17 288.66 315.66 302.30 300.22 Z" />
<path fill="#c1c1c1" d=" M 321.82 309.82 C 323.04 306.15 324.50 302.55 326.49 299.23 C 331.50 304.86 335.63 311.19 340.34 317.07 C 352.64 336.84 365.65 356.16 378.26 375.74 C 397.70 405.72 417.22 435.65 436.75 465.58 C 434.12 470.38 432.04 475.50 428.87 480.00 L 256.65 480.00 C 259.89 470.04 263.95 460.38 267.66 450.59 C 285.71 403.67 303.75 356.73 321.82 309.82 Z" />
<path fill="#b8b8b8" d=" M 448.61 444.60 C 458.88 425.13 469.49 405.84 480.00 386.49 L 480.00 480.00 L 428.87 480.00 C 432.04 475.50 434.12 470.38 436.75 465.58 C 441.18 458.86 444.67 451.60 448.61 444.60 Z" />
</svg>
