<?xml version="1.0" encoding="UTF-8" standalone="no"?>
<svg
   xmlns:dc="http://purl.org/dc/elements/1.1/"
   xmlns:cc="http://creativecommons.org/ns#"
   xmlns:rdf="http://www.w3.org/1999/02/22-rdf-syntax-ns#"
   xmlns:svg="http://www.w3.org/2000/svg"
   xmlns="http://www.w3.org/2000/svg"
   viewBox="0 0 85.333336 85.333336"
   height="85.333336"
   width="85.333336"
   xml:space="preserve"
   id="svg2"
   version="1.1"><metadata
     id="metadata8"><rdf:RDF><cc:Work
         rdf:about=""><dc:format>image/svg+xml</dc:format><dc:type
           rdf:resource="http://purl.org/dc/dcmitype/StillImage" /></cc:Work></rdf:RDF></metadata><defs
     id="defs6"><clipPath
       id="clipPath18"
       clipPathUnits="userSpaceOnUse"><path
         id="path16"
         d="M 0,64 H 64 V 0 H 0 Z" /></clipPath></defs><g
     transform="matrix(1.3333333,0,0,-1.3333333,0,85.333333)"
     id="g10"><g
       id="g12"><g
         clip-path="url(#clipPath18)"
         id="g14"><g
           transform="translate(32,64)"
           id="g20"><path
             id="path22"
             style="fill:#4ac694;fill-opacity:1;fill-rule:nonzero;stroke:none"
             d="m 0,0 c 17.68,0 32,-14.32 32,-32 0,-17.68 -14.32,-32 -32,-32 -17.68,0 -32,14.32 -32,32 0,17.68 14.32,32 32,32" /></g><g
           transform="translate(52,47)"
           id="g24"><path
             id="path26"
             style="fill:#424c72;fill-opacity:1;fill-rule:nonzero;stroke:none"
             d="m 0,0 h -40 c -0.552,0 -1,-0.448 -1,-1 v -30 c 0,-0.552 0.448,-1 1,-1 h 14.274 c 0.955,0 1.886,-0.431 2.416,-1.225 0.714,-1.069 1.926,-1.775 3.31,-1.775 1.384,0 2.596,0.706 3.31,1.775 0.53,0.794 1.461,1.225 2.416,1.225 H 0 c 0.552,0 1,0.448 1,1 V -1 C 1,-0.448 0.552,0 0,0" /></g><g
           transform="translate(14,36)"
           id="g28"><path
             id="path30"
             style="fill:#e4e7ef;fill-opacity:1;fill-rule:nonzero;stroke:none"
             d="m 0,0 v -18 h 16 c 1.105,0 2,-0.895 2,-2 0,1.105 0.895,2 2,2 H 36 V 0 Z" /></g><g
           transform="translate(35,51)"
           id="g32"><path
             id="path34"
             style="fill:#ffffff;fill-opacity:1;fill-rule:nonzero;stroke:none"
             d="m 0,0 c -1.657,0 -3,-1.343 -3,-3 0,1.657 -1.343,3 -3,3 h -15 v -31 h 16 c 1.105,0 2,-0.895 2,-2 0,1.105 0.895,2 2,2 H 15 V 0 Z" /></g><path
           id="path36"
           style="fill:#57d1f7;fill-opacity:1;fill-rule:nonzero;stroke:none"
           d="m 22,41 h -4 v 7 h 4 z" /><g
           transform="translate(18,38)"
           id="g38"><path
             id="path40"
             style="fill:none;stroke:#e4e7ef;stroke-width:1;stroke-linecap:round;stroke-linejoin:miter;stroke-miterlimit:10;stroke-dasharray:none;stroke-opacity:1"
             d="M 0,0 H 11" /></g><g
           transform="translate(24.6,41)"
           id="g42"><path
             id="path44"
             style="fill:none;stroke:#e4e7ef;stroke-width:1;stroke-linecap:round;stroke-linejoin:miter;stroke-miterlimit:10;stroke-dasharray:none;stroke-opacity:1"
             d="M 0,0 H 4.4" /></g><g
           transform="translate(24.6,44)"
           id="g46"><path
             id="path48"
             style="fill:none;stroke:#e4e7ef;stroke-width:1;stroke-linecap:round;stroke-linejoin:miter;stroke-miterlimit:10;stroke-dasharray:none;stroke-opacity:1"
             d="M 0,0 H 4.4" /></g><g
           transform="translate(24.6,47)"
           id="g50"><path
             id="path52"
             style="fill:none;stroke:#e4e7ef;stroke-width:1;stroke-linecap:round;stroke-linejoin:miter;stroke-miterlimit:10;stroke-dasharray:none;stroke-opacity:1"
             d="M 0,0 H 4.4" /></g><g
           transform="translate(18,35)"
           id="g54"><path
             id="path56"
             style="fill:none;stroke:#e4e7ef;stroke-width:1;stroke-linecap:round;stroke-linejoin:miter;stroke-miterlimit:10;stroke-dasharray:none;stroke-opacity:1"
             d="M 0,0 H 11" /></g><g
           transform="translate(18,32)"
           id="g58"><path
             id="path60"
             style="fill:none;stroke:#e4e7ef;stroke-width:1;stroke-linecap:round;stroke-linejoin:miter;stroke-miterlimit:10;stroke-dasharray:none;stroke-opacity:1"
             d="M 0,0 H 11" /></g><g
           transform="translate(18,29)"
           id="g62"><path
             id="path64"
             style="fill:none;stroke:#e4e7ef;stroke-width:1;stroke-linecap:round;stroke-linejoin:miter;stroke-miterlimit:10;stroke-dasharray:none;stroke-opacity:1"
             d="M 0,0 H 11" /></g><g
           transform="translate(18,26)"
           id="g66"><path
             id="path68"
             style="fill:none;stroke:#e4e7ef;stroke-width:1;stroke-linecap:round;stroke-linejoin:miter;stroke-miterlimit:10;stroke-dasharray:none;stroke-opacity:1"
             d="M 0,0 H 11" /></g><g
           transform="translate(18,23)"
           id="g70"><path
             id="path72"
             style="fill:none;stroke:#e4e7ef;stroke-width:1;stroke-linecap:round;stroke-linejoin:miter;stroke-miterlimit:10;stroke-dasharray:none;stroke-opacity:1"
             d="M 0,0 H 11" /></g><g
           transform="translate(35,38)"
           id="g74"><path
             id="path76"
             style="fill:none;stroke:#e4e7ef;stroke-width:1;stroke-linecap:round;stroke-linejoin:miter;stroke-miterlimit:10;stroke-dasharray:none;stroke-opacity:1"
             d="M 0,0 H 11" /></g><g
           transform="translate(35,35)"
           id="g78"><path
             id="path80"
             style="fill:none;stroke:#e4e7ef;stroke-width:1;stroke-linecap:round;stroke-linejoin:miter;stroke-miterlimit:10;stroke-dasharray:none;stroke-opacity:1"
             d="M 0,0 H 11" /></g><g
           transform="translate(35,44)"
           id="g82"><path
             id="path84"
             style="fill:none;stroke:#e4e7ef;stroke-width:1;stroke-linecap:round;stroke-linejoin:miter;stroke-miterlimit:10;stroke-dasharray:none;stroke-opacity:1"
             d="M 0,0 H 11" /></g><g
           transform="translate(35,47)"
           id="g86"><path
             id="path88"
             style="fill:none;stroke:#e4e7ef;stroke-width:1;stroke-linecap:round;stroke-linejoin:miter;stroke-miterlimit:10;stroke-dasharray:none;stroke-opacity:1"
             d="M 0,0 H 11" /></g><g
           transform="translate(35,41)"
           id="g90"><path
             id="path92"
             style="fill:none;stroke:#e4e7ef;stroke-width:1;stroke-linecap:round;stroke-linejoin:miter;stroke-miterlimit:10;stroke-dasharray:none;stroke-opacity:1"
             d="M 0,0 H 11" /></g><g
           transform="translate(35,32)"
           id="g94"><path
             id="path96"
             style="fill:none;stroke:#e4e7ef;stroke-width:1;stroke-linecap:round;stroke-linejoin:miter;stroke-miterlimit:10;stroke-dasharray:none;stroke-opacity:1"
             d="M 0,0 H 11" /></g><g
           transform="translate(35,29)"
           id="g98"><path
             id="path100"
             style="fill:none;stroke:#e4e7ef;stroke-width:1;stroke-linecap:round;stroke-linejoin:miter;stroke-miterlimit:10;stroke-dasharray:none;stroke-opacity:1"
             d="M 0,0 H 11" /></g><g
           transform="translate(35,26)"
           id="g102"><path
             id="path104"
             style="fill:none;stroke:#e4e7ef;stroke-width:1;stroke-linecap:round;stroke-linejoin:miter;stroke-miterlimit:10;stroke-dasharray:none;stroke-opacity:1"
             d="M 0,0 H 11" /></g><g
           transform="translate(35,23)"
           id="g106"><path
             id="path108"
             style="fill:none;stroke:#e4e7ef;stroke-width:1;stroke-linecap:round;stroke-linejoin:miter;stroke-miterlimit:10;stroke-dasharray:none;stroke-opacity:1"
             d="M 0,0 H 11" /></g></g></g></g></svg>