<?xml version="1.0" encoding="UTF-8" ?>
<!DOCTYPE svg PUBLIC "-//W3C//DTD SVG 1.1//EN" "http://www.w3.org/Graphics/SVG/1.1/DTD/svg11.dtd">
<svg width="1000pt" height="1000pt" viewBox="0 0 1000 1000" version="1.1" xmlns="http://www.w3.org/2000/svg">
<path fill="#feffff" d=" M 0.00 0.00 L 1000.00 0.00 L 1000.00 1000.00 L 0.00 1000.00 L 0.00 0.00 Z" />
<path fill="#697c8c" d=" M 144.53 73.01 C 144.41 48.99 165.88 27.28 189.94 27.35 C 393.96 27.31 597.99 27.32 802.02 27.35 C 826.11 27.16 847.83 48.90 847.65 72.99 C 847.70 208.67 847.66 344.36 847.67 480.05 C 847.60 487.07 847.87 494.11 847.42 501.14 C 845.89 518.03 834.01 533.19 818.47 539.64 C 810.77 542.91 802.26 543.16 794.03 542.99 C 719.47 543.05 644.92 542.85 570.37 543.09 C 579.87 574.26 589.24 605.47 598.62 636.68 C 615.23 636.74 631.83 636.68 648.44 636.71 C 648.46 644.53 648.45 652.34 648.45 660.16 C 622.40 660.18 596.35 660.15 570.30 660.17 C 571.15 665.76 574.76 670.58 578.08 675.04 C 580.23 678.11 583.61 679.89 586.35 682.34 C 593.75 686.82 602.25 689.55 610.95 689.48 C 637.30 689.30 663.66 689.64 690.01 689.31 C 690.44 689.60 691.31 690.17 691.74 690.46 C 693.02 690.43 694.31 690.40 695.61 690.39 C 698.94 691.39 702.20 692.63 705.61 693.38 C 707.74 694.83 710.31 695.32 712.60 696.46 C 716.34 698.62 719.82 701.22 723.57 703.38 C 727.85 707.62 732.17 711.80 736.22 716.28 C 738.88 721.09 742.65 725.34 744.34 730.66 C 745.33 733.69 746.54 736.64 747.88 739.54 C 748.00 740.46 748.13 741.39 748.27 742.34 C 749.08 744.21 749.03 746.27 749.24 748.28 C 750.67 751.24 749.83 754.65 749.98 757.83 C 741.27 757.83 732.55 757.82 723.84 757.83 C 722.48 753.46 722.94 748.73 721.01 744.52 C 718.91 738.37 715.20 732.96 711.03 728.04 C 710.02 727.00 708.68 726.39 707.46 725.67 C 705.12 722.65 701.25 721.79 698.13 719.86 C 692.43 717.27 686.15 716.26 679.95 715.81 C 653.31 715.98 626.66 715.59 600.03 716.00 C 599.54 715.75 598.55 715.26 598.05 715.01 C 592.60 714.64 587.54 712.41 582.42 710.70 C 580.42 709.63 578.38 708.64 576.31 707.74 C 574.77 706.55 573.10 705.55 571.36 704.71 C 568.34 702.35 565.53 699.73 562.42 697.49 C 559.38 695.36 558.02 691.67 555.06 689.44 C 551.25 683.73 547.75 677.87 545.08 671.54 C 544.99 671.08 544.82 670.16 544.73 669.70 C 544.31 668.69 543.93 667.69 543.58 666.68 C 543.07 664.46 542.51 662.25 541.81 660.09 C 511.99 660.23 482.17 660.16 452.34 660.13 C 451.77 662.67 451.17 665.22 450.38 667.72 C 450.31 668.15 450.18 669.03 450.11 669.47 C 449.70 670.45 449.30 671.44 448.92 672.44 C 446.33 678.92 442.94 685.06 438.77 690.65 C 436.12 693.05 434.58 696.48 431.62 698.55 C 428.53 700.79 425.73 703.40 422.71 705.73 C 420.94 706.56 419.26 707.56 417.72 708.76 C 415.64 709.69 413.59 710.68 411.59 711.75 C 405.55 713.95 399.39 715.90 393.02 716.82 C 366.35 716.81 339.68 716.80 313.01 716.82 C 309.51 717.45 305.79 717.37 302.46 718.64 C 299.29 719.40 296.12 720.29 293.48 722.29 C 290.92 723.29 288.41 724.54 286.58 726.66 C 282.48 728.39 280.55 732.59 277.88 735.85 C 275.28 740.39 272.86 745.15 271.71 750.28 C 271.53 753.17 271.14 756.03 270.28 758.81 C 261.57 758.79 252.86 758.81 244.14 758.80 C 244.11 756.05 244.07 753.31 244.20 750.58 C 245.48 747.40 245.34 743.86 246.22 740.57 C 248.99 734.82 250.23 728.37 254.16 723.21 C 258.19 715.81 264.66 710.32 270.52 704.44 C 273.98 702.37 277.25 700.01 280.71 697.93 C 283.13 696.41 286.08 696.01 288.43 694.35 C 290.51 694.02 292.56 693.45 294.44 692.48 C 297.02 691.89 299.61 691.15 302.29 691.37 C 302.75 691.10 303.68 690.56 304.15 690.29 C 330.76 690.61 357.38 690.28 383.99 690.45 C 399.35 690.24 415.03 681.72 421.57 667.46 C 422.25 666.12 422.95 664.80 423.60 663.46 C 423.82 662.20 424.24 661.00 424.93 659.93 C 397.88 660.47 370.80 660.02 343.75 660.16 C 343.73 652.34 343.74 644.53 343.74 636.71 C 360.20 636.54 376.67 637.04 393.11 636.46 C 393.87 629.44 395.65 622.59 396.91 615.66 C 401.72 591.43 406.54 567.21 411.43 543.00 C 337.60 542.93 263.76 543.06 189.92 542.93 C 169.95 542.85 151.48 528.02 146.26 508.90 C 145.12 504.36 144.49 499.68 144.51 494.99 C 144.54 354.33 144.51 213.67 144.53 73.01 Z" />
<path fill="#feffff" d=" M 174.83 57.87 C 179.42 52.86 186.31 50.66 192.98 50.78 C 395.32 50.82 597.66 50.77 800.00 50.80 C 806.85 50.77 813.74 53.46 818.23 58.74 C 822.60 63.34 824.29 69.80 824.22 76.02 C 824.18 192.60 824.23 309.18 824.20 425.77 C 605.46 425.77 386.73 425.77 168.00 425.77 C 167.97 309.18 168.00 192.59 167.98 76.00 C 167.76 69.36 169.90 62.49 174.83 57.87 Z" />
<path fill="#6ddade" d=" M 191.39 74.22 C 394.52 74.18 597.65 74.20 800.78 74.21 C 800.82 183.59 800.78 292.96 800.80 402.33 C 597.71 402.44 394.61 402.25 191.52 402.42 C 191.22 293.02 191.48 183.62 191.39 74.22 Z" />
<path fill="#adedef" d=" M 214.93 97.76 C 359.93 97.59 504.94 97.74 649.95 97.68 C 692.38 97.74 734.81 97.58 777.24 97.76 C 777.41 153.86 777.27 209.95 777.31 266.05 C 777.22 303.66 777.50 341.27 777.18 378.88 C 589.77 378.89 402.36 378.92 214.95 378.86 C 214.83 285.16 214.88 191.46 214.93 97.76 Z" />
<path fill="#697c8c" d=" M 334.32 176.53 C 340.13 159.25 356.58 145.78 374.95 144.66 C 386.75 144.44 399.21 143.52 410.18 148.74 C 421.48 154.21 430.96 164.01 435.06 175.98 C 436.62 180.85 437.49 185.94 437.51 191.05 C 437.49 238.04 437.53 285.03 437.49 332.01 C 429.68 332.02 421.86 332.03 414.05 332.01 C 413.95 312.46 414.21 292.91 413.92 273.37 C 394.44 273.55 374.96 273.38 355.49 273.46 C 355.45 292.97 355.50 312.49 355.46 332.01 C 347.64 332.03 339.83 332.03 332.01 332.01 C 331.99 285.66 332.02 239.30 332.00 192.94 C 332.01 187.40 332.58 181.81 334.32 176.53 Z" />
<path fill="#697c8c" d=" M 495.02 146.19 C 503.81 143.72 513.02 144.66 522.02 144.58 C 541.08 145.08 558.52 159.02 564.26 177.01 C 565.74 181.84 566.47 186.91 566.43 191.97 C 566.38 203.99 566.44 216.00 566.40 228.02 C 566.15 239.81 561.27 251.46 552.69 259.61 C 544.53 268.26 532.84 273.19 520.99 273.43 C 508.79 273.48 496.59 273.42 484.39 273.45 C 484.36 292.97 484.40 312.49 484.37 332.01 C 476.56 332.03 468.76 332.03 460.95 332.01 C 460.93 289.35 460.95 246.70 460.94 204.04 C 461.03 194.53 460.20 184.69 463.57 175.59 C 468.67 161.62 480.62 150.15 495.02 146.19 Z" />
<path fill="#697c8c" d=" M 589.86 144.54 C 613.29 144.52 636.71 144.52 660.14 144.54 C 660.16 152.36 660.16 160.17 660.14 167.99 C 652.34 168.01 644.54 167.98 636.74 168.00 C 636.70 214.83 636.80 261.66 636.69 308.49 C 644.50 308.72 652.32 308.52 660.14 308.60 C 660.16 316.40 660.16 324.21 660.15 332.01 C 636.71 332.03 613.28 332.03 589.85 332.01 C 589.84 324.21 589.83 316.40 589.86 308.60 C 597.67 308.52 605.49 308.71 613.30 308.50 C 613.20 261.66 613.30 214.83 613.25 168.00 C 605.45 167.99 597.65 168.01 589.86 167.99 C 589.84 160.17 589.83 152.35 589.86 144.54 Z" />
<path fill="#adedef" d=" M 371.14 169.34 C 377.55 167.23 384.43 168.16 391.06 168.01 C 403.22 167.92 414.08 178.87 413.97 191.02 C 414.14 210.68 414.00 230.34 414.03 250.00 C 394.50 249.97 374.97 250.08 355.44 249.94 C 355.53 230.28 355.41 210.62 355.50 190.97 C 355.47 181.40 362.15 172.43 371.14 169.34 Z" />
<path fill="#adedef" d=" M 500.14 169.31 C 506.55 167.25 513.42 168.12 520.04 168.06 C 529.79 168.06 538.89 175.05 541.82 184.27 C 543.39 189.36 542.91 194.76 542.98 200.01 C 542.87 209.35 543.18 218.70 542.84 228.03 C 542.42 239.74 531.81 249.95 520.10 249.93 C 508.18 250.08 496.27 249.99 484.36 249.96 C 484.43 230.28 484.31 210.60 484.41 190.92 C 484.37 181.33 491.13 172.37 500.14 169.31 Z" />
<path fill="#feffff" d=" M 168.00 449.23 C 386.71 449.21 605.43 449.28 824.14 449.19 C 824.30 463.78 824.14 478.37 824.23 492.96 C 824.29 498.35 823.57 504.00 820.52 508.59 C 816.23 515.49 808.16 519.85 800.02 519.52 C 597.33 519.52 394.63 519.53 191.93 519.52 C 179.62 520.10 168.23 509.40 168.07 497.07 C 167.88 481.13 168.03 465.18 168.00 449.23 Z" />
<path fill="#697c8c" d=" M 484.36 496.09 C 484.40 488.26 484.27 480.43 484.44 472.60 C 492.23 472.70 500.03 472.61 507.83 472.66 C 507.83 480.47 507.83 488.28 507.82 496.10 C 500.00 496.10 492.18 496.12 484.36 496.09 Z" />
<path fill="#feffff" d=" M 434.88 543.48 C 437.53 542.96 440.25 542.89 442.95 542.96 C 477.31 543.07 511.67 542.87 546.03 543.06 C 555.37 574.26 564.73 605.45 573.93 636.68 C 521.52 636.74 469.11 636.69 416.70 636.70 C 421.69 611.24 426.95 585.82 431.96 560.35 C 432.97 554.74 434.52 549.20 434.88 543.48 Z" />
<path fill="#697c8c" d=" M 626.96 764.61 C 627.36 764.35 628.15 763.83 628.55 763.56 C 696.07 763.80 763.59 763.58 831.10 763.68 C 833.82 764.10 836.49 764.83 839.29 764.77 C 841.99 766.27 845.15 765.29 848.08 765.72 C 852.44 766.41 856.51 768.22 860.75 769.41 C 866.29 771.04 871.19 774.16 876.49 776.37 C 878.01 777.67 879.75 778.67 881.56 779.54 C 883.61 781.52 885.97 783.15 888.55 784.40 C 890.94 787.45 894.69 788.95 897.10 791.98 C 906.58 801.28 914.01 812.51 919.73 824.47 C 920.10 826.24 920.75 827.96 921.88 829.42 C 921.93 829.92 922.04 830.91 922.09 831.40 C 924.34 836.52 925.34 842.01 926.68 847.40 C 926.70 849.67 926.88 851.96 927.79 854.08 C 927.76 861.62 927.62 869.16 927.88 876.69 C 926.33 879.23 927.08 882.30 926.26 885.06 C 924.15 896.64 919.17 907.35 913.78 917.72 C 911.57 920.53 909.61 923.52 907.85 926.64 C 901.46 933.74 895.30 941.19 887.57 946.91 C 874.52 955.99 859.93 963.55 844.02 965.77 C 833.35 965.97 822.66 965.73 811.99 965.87 C 807.32 966.04 802.88 964.41 798.31 963.79 C 796.04 962.82 793.72 962.01 791.42 961.16 C 790.91 961.10 789.89 960.98 789.38 960.92 C 787.95 959.78 786.24 959.15 784.49 958.73 C 780.10 956.51 775.71 954.31 771.52 951.73 C 765.35 947.52 759.39 943.01 754.33 937.49 C 741.57 937.53 728.80 937.53 716.04 937.48 C 714.03 937.36 712.12 937.94 710.26 938.58 C 710.12 938.98 709.83 939.79 709.69 940.19 C 706.22 942.17 703.77 945.45 700.36 947.53 C 687.92 956.85 673.21 962.97 657.98 965.84 C 646.99 965.87 635.99 965.78 625.00 965.87 C 619.51 966.08 614.46 963.60 609.13 962.71 C 591.55 956.92 575.70 946.41 563.05 932.93 C 562.13 930.84 560.56 929.18 558.94 927.64 C 555.94 923.03 552.87 918.48 550.06 913.76 C 545.99 905.76 542.62 897.37 540.65 888.60 C 540.00 886.59 540.04 884.42 539.19 882.48 C 539.24 877.60 537.45 872.94 538.06 868.04 C 537.54 858.34 539.05 848.73 541.22 839.30 C 542.49 836.03 543.29 832.58 544.76 829.39 C 544.84 828.90 544.99 827.92 545.06 827.43 C 547.07 824.41 547.91 820.82 549.79 817.74 C 551.53 814.82 553.17 811.83 554.85 808.87 C 556.12 807.08 557.47 805.36 558.88 803.70 C 561.41 799.91 564.89 796.85 567.81 793.36 C 570.12 790.18 574.00 788.58 576.31 785.34 C 581.88 781.51 587.51 777.76 593.29 774.24 C 597.11 771.98 601.59 771.37 605.54 769.40 C 610.64 766.85 616.46 766.55 621.81 764.76 C 623.52 764.66 625.24 764.63 626.96 764.61 Z" />
<path fill="#697c8c" d=" M 141.88 768.74 C 145.49 767.76 149.33 767.93 152.87 766.68 C 221.57 766.44 290.27 766.71 358.98 766.55 C 362.16 766.57 365.19 767.85 368.41 767.67 C 369.99 768.32 371.69 768.53 373.38 768.73 C 381.78 771.07 390.20 773.62 397.85 777.90 C 403.34 780.20 407.64 784.41 412.78 787.28 C 415.09 790.02 418.41 791.59 420.83 794.21 C 427.97 801.07 434.06 809.01 439.07 817.57 C 440.83 820.84 442.22 824.31 444.12 827.52 C 446.32 833.93 448.93 840.26 450.20 846.96 C 451.04 850.23 450.99 853.68 452.06 856.91 C 452.28 862.92 452.06 868.95 452.20 874.98 C 452.46 878.87 451.01 882.59 450.99 886.48 C 450.28 888.52 450.08 890.69 449.41 892.75 C 449.35 893.30 449.22 894.41 449.15 894.97 C 447.90 897.77 446.95 900.70 446.04 903.64 C 444.23 909.66 440.49 914.86 438.35 920.75 C 438.00 921.05 437.32 921.66 436.97 921.96 C 433.14 929.12 427.65 935.20 421.95 940.91 C 414.69 948.66 405.59 954.34 396.40 959.51 C 392.53 961.45 388.37 962.76 384.56 964.84 C 384.07 964.91 383.09 965.07 382.60 965.15 C 381.23 965.70 379.83 966.19 378.43 966.65 C 377.08 966.85 375.56 966.76 374.56 967.90 C 373.68 967.87 372.82 967.87 371.95 967.88 C 370.38 968.50 368.72 968.85 367.03 968.80 C 356.66 968.75 346.30 968.74 335.93 968.80 C 332.21 968.88 328.59 967.90 325.02 966.97 C 324.41 966.94 323.19 966.87 322.58 966.84 C 320.45 965.65 318.11 964.94 315.78 964.27 C 306.61 961.28 298.31 956.22 290.36 950.87 C 286.20 947.66 282.27 944.20 278.61 940.43 C 265.42 940.45 252.22 940.43 239.03 940.43 C 236.46 940.13 234.77 942.36 232.91 943.74 C 225.74 950.25 217.76 955.97 208.93 960.02 C 201.12 964.31 192.36 966.29 183.87 968.75 C 172.25 968.80 160.62 968.72 148.99 968.79 C 144.41 969.05 140.20 966.95 135.77 966.18 C 132.13 965.54 128.84 963.78 125.31 962.77 C 120.79 960.21 116.08 957.99 111.41 955.70 C 109.59 954.14 107.59 952.82 105.46 951.76 C 98.33 945.93 90.87 940.25 85.40 932.75 C 81.01 927.89 77.92 922.10 74.26 916.71 C 69.22 906.63 65.48 895.91 63.63 884.78 C 63.32 882.41 63.74 879.89 62.40 877.78 C 62.88 870.20 61.68 862.51 63.34 855.03 C 63.62 851.60 64.26 848.22 65.07 844.88 C 65.98 839.91 68.26 835.34 69.40 830.44 C 73.10 822.73 76.71 814.85 82.03 808.07 C 84.96 803.77 88.91 800.34 92.23 796.36 C 94.56 793.29 98.19 791.56 100.55 788.48 C 102.01 787.64 103.38 786.66 104.56 785.47 C 110.30 782.28 115.39 777.96 121.44 775.33 C 124.17 774.61 126.87 773.77 129.41 772.53 C 133.29 770.47 137.72 770.00 141.88 768.74 Z" />
<path fill="#feffff" d=" M 624.41 791.65 C 627.89 790.86 631.48 790.65 635.00 790.07 C 699.34 790.00 763.69 790.10 828.03 790.02 C 841.09 791.02 854.29 794.31 865.40 801.48 C 867.97 802.86 870.44 804.49 872.43 806.67 C 877.01 809.15 880.19 813.49 883.88 817.07 C 889.22 823.88 893.86 831.41 896.53 839.70 C 897.72 843.41 899.43 847.05 899.46 851.03 C 899.68 851.45 900.12 852.28 900.34 852.70 C 900.62 858.93 901.88 865.06 901.39 871.34 C 901.07 871.79 900.43 872.69 900.11 873.13 C 900.96 877.57 899.07 881.80 898.19 886.07 C 895.22 897.94 888.35 908.35 880.41 917.49 C 879.06 918.09 878.05 919.11 877.44 920.45 C 875.75 921.69 874.19 923.07 872.75 924.59 C 872.40 924.67 871.71 924.82 871.36 924.89 C 868.47 928.02 864.67 930.06 860.84 931.78 C 857.86 933.09 855.21 935.29 851.89 935.64 C 850.97 936.18 850.06 936.74 849.16 937.30 C 836.95 940.26 824.23 941.77 811.81 939.20 C 801.15 936.62 790.30 933.27 781.87 925.92 C 781.46 925.77 780.64 925.47 780.23 925.32 C 777.16 921.25 771.75 919.45 769.72 914.55 C 768.17 913.08 766.64 911.61 765.13 910.13 C 743.55 910.18 721.97 910.08 700.39 910.18 C 697.30 913.52 694.91 917.48 691.39 920.42 C 686.77 924.22 682.15 928.09 676.86 930.95 C 673.35 933.42 669.08 934.30 665.35 936.33 C 661.68 937.49 657.87 938.10 654.20 939.22 C 652.15 939.37 650.10 939.56 648.18 940.31 C 631.72 941.43 614.35 938.53 600.51 929.14 C 586.42 920.89 575.97 907.41 569.72 892.49 C 568.13 887.99 566.91 883.36 566.20 878.65 C 565.01 876.16 565.51 873.35 565.39 870.72 C 563.68 867.76 564.63 864.33 565.06 861.19 C 565.65 851.28 567.77 841.24 572.65 832.52 C 573.78 829.83 574.98 827.13 576.85 824.85 C 578.25 820.87 581.87 818.47 584.13 815.05 C 587.70 810.93 591.75 807.06 596.54 804.40 C 604.42 797.71 614.41 793.88 624.41 791.65 Z" />
<path fill="#feffff" d=" M 140.53 797.29 C 155.73 791.57 172.14 793.18 188.03 792.98 C 243.03 792.98 298.02 792.99 353.02 792.98 C 356.86 793.57 360.83 793.68 364.59 794.70 C 367.30 795.04 370.00 795.58 372.53 796.63 C 373.52 796.95 374.51 797.28 375.51 797.62 C 387.73 801.65 398.52 809.39 407.09 818.91 C 409.90 822.76 413.38 826.21 415.28 830.66 C 419.51 836.48 421.30 843.63 423.49 850.39 C 425.04 858.81 426.93 867.56 425.09 876.11 C 423.86 889.58 418.81 902.77 410.33 913.36 C 408.64 916.83 405.34 918.98 402.68 921.64 C 397.76 927.57 391.23 932.10 384.19 935.18 C 381.68 936.39 379.39 938.23 376.53 938.56 C 371.44 940.62 366.12 942.35 360.58 942.47 C 354.58 944.30 348.08 943.02 341.88 943.22 C 339.64 941.73 336.54 943.20 334.55 941.35 C 333.14 941.27 331.68 941.36 330.47 940.56 C 317.38 937.51 305.94 929.73 296.29 920.67 C 294.33 917.90 292.11 915.35 289.62 913.06 C 268.08 913.07 246.55 913.10 225.01 913.04 C 221.00 917.60 217.47 922.70 212.36 926.16 C 188.40 946.68 150.89 949.27 124.53 931.86 C 123.54 931.23 122.56 930.58 121.59 929.95 C 115.47 925.79 109.65 920.78 105.58 914.57 C 102.30 911.62 100.50 907.55 98.40 903.77 C 93.30 894.38 89.90 883.87 89.78 873.13 C 89.43 870.76 88.43 868.35 89.30 865.99 C 90.53 862.37 89.21 858.44 90.73 854.89 C 91.70 848.54 93.36 841.94 96.88 836.53 C 96.91 836.30 96.96 835.85 96.99 835.63 C 98.14 833.60 99.07 831.46 99.99 829.32 C 101.34 827.89 102.49 826.29 103.55 824.65 C 107.22 819.46 110.94 813.86 116.66 810.73 C 117.84 809.49 119.12 808.36 120.60 807.52 C 122.18 806.37 123.76 805.23 125.34 804.08 C 128.43 802.66 131.42 801.03 134.53 799.65 C 136.40 798.56 138.46 797.89 140.53 797.29 Z" />
<path fill="#6ddade" d=" M 624.99 827.95 C 624.79 824.11 628.07 820.22 632.02 820.31 C 637.94 820.18 643.86 820.41 649.78 820.24 C 652.69 822.21 655.34 825.21 655.27 828.94 C 655.35 836.15 655.21 843.36 655.30 850.57 C 662.88 850.61 670.46 850.53 678.05 850.57 C 680.81 850.36 683.71 852.20 684.30 855.00 C 686.37 862.00 685.92 869.58 684.47 876.66 C 682.02 879.89 678.01 881.22 674.06 880.91 C 667.80 880.88 661.54 880.82 655.28 880.92 C 655.19 887.94 655.43 894.97 655.20 902.00 C 655.18 905.63 653.03 909.54 649.14 910.03 C 642.53 910.39 635.91 910.07 629.30 910.13 C 627.87 908.67 626.44 907.22 625.01 905.79 C 624.97 897.48 625.01 889.18 624.98 880.88 C 617.95 880.84 610.92 880.89 603.89 880.90 C 598.68 881.31 594.08 876.11 594.69 871.02 C 594.94 865.89 594.08 860.62 595.40 855.61 C 596.18 852.28 599.65 850.27 602.94 850.55 C 610.27 850.58 617.60 850.56 624.93 850.61 C 625.09 843.05 624.92 835.50 624.99 827.95 Z" />
<path fill="#adedef" d=" M 818.90 822.35 C 821.61 819.75 825.80 820.46 829.25 820.03 C 828.47 821.27 828.85 821.70 830.39 821.32 C 830.85 821.24 831.75 821.06 832.20 820.97 C 831.43 822.29 831.81 822.70 833.33 822.22 C 833.84 822.51 834.84 823.10 835.34 823.39 L 835.49 823.50 L 835.64 823.63 C 836.13 824.06 837.09 824.91 837.57 825.34 L 837.64 825.39 L 837.67 825.44 C 838.16 826.17 839.13 827.63 839.61 828.36 L 839.64 828.41 L 839.67 828.47 C 841.73 832.29 840.92 836.96 840.18 841.05 C 838.50 845.37 834.12 849.46 829.39 849.58 C 827.87 849.01 827.46 849.39 828.17 850.71 C 826.80 850.70 825.45 850.72 824.10 850.76 C 824.63 849.36 824.18 849.03 822.76 849.78 C 820.55 849.43 818.50 848.49 816.43 847.75 C 815.43 846.66 814.41 845.59 813.39 844.56 C 812.53 842.15 811.14 839.63 812.00 837.03 C 812.28 835.83 812.16 834.68 811.66 833.57 C 811.03 829.53 813.95 825.62 817.00 823.24 C 817.47 823.02 818.43 822.58 818.90 822.35 Z" />
<path fill="#697c8c" d=" M 829.25 820.03 C 829.53 820.35 830.11 821.00 830.39 821.32 C 828.85 821.70 828.47 821.27 829.25 820.03 Z" />
<path fill="#6ddade" d=" M 832.20 820.97 C 832.48 821.28 833.05 821.91 833.33 822.22 C 831.81 822.70 831.43 822.29 832.20 820.97 Z" />
<path fill="#6ddade" d=" M 817.14 822.34 L 818.12 821.88 L 818.90 822.35 C 818.43 822.58 817.47 823.02 817.00 823.24 L 817.14 822.34 Z" />
<path fill="#6ddade" d=" M 149.38 831.00 C 149.00 826.83 152.81 822.93 156.98 823.22 C 163.00 823.17 169.02 823.26 175.04 823.23 C 176.19 824.02 177.36 824.80 178.53 825.57 C 179.55 827.59 180.85 829.63 180.69 832.01 C 180.69 839.13 180.69 846.27 180.63 853.40 C 188.45 853.69 196.27 853.33 204.08 853.55 C 206.50 853.45 208.84 855.00 209.46 857.40 C 211.85 864.56 211.36 872.42 209.78 879.71 C 207.93 881.65 205.74 883.55 202.91 883.68 C 195.51 884.03 188.09 883.67 180.69 883.82 C 180.63 890.57 180.72 897.32 180.68 904.07 C 180.63 906.79 180.11 909.98 177.66 911.62 C 175.48 913.39 172.55 913.08 169.93 913.13 C 164.63 913.05 159.34 913.14 154.04 913.06 C 152.54 911.54 150.97 910.09 149.37 908.69 C 149.42 900.40 149.41 892.11 149.39 883.82 C 142.93 883.78 136.47 883.80 130.01 883.84 C 127.81 883.92 125.66 883.46 123.58 882.78 C 121.87 880.75 119.07 879.05 119.17 876.07 C 119.07 870.69 119.03 865.31 119.20 859.94 C 119.34 857.06 121.82 855.22 123.74 853.42 C 132.30 853.54 140.88 853.58 149.44 853.40 C 149.38 845.93 149.39 838.46 149.38 831.00 Z" />
<path fill="#adedef" d=" M 342.45 825.49 C 345.51 823.39 349.35 822.72 352.97 823.44 C 353.45 823.65 354.42 824.05 354.90 824.25 C 355.61 824.17 357.04 823.99 357.76 823.91 C 358.04 824.52 358.60 825.74 358.88 826.35 C 359.33 826.53 360.23 826.87 360.69 827.05 L 360.79 827.92 C 360.87 828.92 361.40 829.63 362.39 830.06 L 362.90 831.14 C 363.15 831.45 363.64 832.06 363.89 832.36 C 364.22 832.60 364.87 833.07 365.20 833.31 C 365.33 838.32 365.77 844.11 362.05 848.06 C 358.63 851.46 353.94 854.24 348.95 853.65 C 350.11 851.43 346.35 851.98 348.11 853.77 C 346.09 852.77 343.95 851.95 342.18 850.55 C 341.68 849.02 341.12 848.94 340.51 850.33 C 340.03 849.54 339.59 848.73 339.19 847.92 C 338.90 847.48 338.32 846.60 338.03 846.16 C 336.15 844.61 335.63 841.92 336.04 839.63 C 336.43 838.46 336.18 837.55 335.31 836.88 C 336.11 832.13 338.94 828.19 342.14 824.74 L 342.38 825.48 L 342.39 825.52 L 342.42 825.50 L 342.45 825.49 Z" />
<path fill="#697c8c" d=" M 352.97 823.44 L 353.73 822.95 L 354.71 823.36 L 354.90 824.25 C 354.42 824.05 353.45 823.65 352.97 823.44 Z" />
<path fill="#697c8c" d=" M 835.34 823.39 C 835.41 823.45 835.57 823.57 835.64 823.63 L 835.49 823.50 L 835.34 823.39 Z" />
<path fill="#697c8c" d=" M 342.38 825.48 L 342.45 825.49 L 342.42 825.50 L 342.39 825.52 L 342.38 825.48 Z" />
<path fill="#697c8c" d=" M 837.57 825.34 C 837.60 825.36 837.65 825.42 837.67 825.44 L 837.64 825.39 L 837.57 825.34 Z" />
<path fill="#697c8c" d=" M 358.88 826.35 C 359.28 826.32 360.09 826.26 360.49 826.23 L 360.69 827.05 C 360.23 826.87 359.33 826.53 358.88 826.35 Z" />
<path fill="#697c8c" d=" M 360.79 827.92 C 362.49 827.66 363.03 828.37 362.39 830.06 C 361.40 829.63 360.87 828.92 360.79 827.92 Z" />
<path fill="#697c8c" d=" M 839.61 828.36 C 839.62 828.39 839.65 828.44 839.67 828.47 L 839.64 828.41 L 839.61 828.36 Z" />
<path fill="#697c8c" d=" M 362.90 831.14 C 364.47 830.61 364.80 831.02 363.89 832.36 C 363.64 832.06 363.15 831.45 362.90 831.14 Z" />
<path fill="#6ddade" d=" M 812.00 837.03 C 809.68 838.24 809.23 833.31 811.66 833.57 C 812.16 834.68 812.28 835.83 812.00 837.03 Z" />
<path fill="#697c8c" d=" M 335.31 836.88 C 336.18 837.55 336.43 838.46 336.04 839.63 C 334.52 839.11 334.28 838.19 335.31 836.88 Z" />
<path fill="#6ddade" d=" M 338.03 846.16 C 338.32 846.60 338.90 847.48 339.19 847.92 L 338.25 847.90 L 337.66 846.99 L 338.03 846.16 Z" />
<path fill="#697c8c" d=" M 340.51 850.33 C 341.12 848.94 341.68 849.02 342.18 850.55 C 341.76 850.49 340.93 850.39 340.51 850.33 Z" />
<path fill="#697c8c" d=" M 822.76 849.78 C 824.18 849.03 824.63 849.36 824.10 850.76 C 823.77 850.51 823.10 850.02 822.76 849.78 Z" />
<path fill="#6ddade" d=" M 828.17 850.71 C 827.46 849.39 827.87 849.01 829.39 849.58 C 829.09 849.86 828.48 850.43 828.17 850.71 Z" />
<path fill="#697c8c" d=" M 790.92 851.79 C 790.87 850.10 791.37 849.93 792.41 851.26 C 792.03 851.39 791.29 851.66 790.92 851.79 Z" />
<path fill="#697c8c" d=" M 799.46 851.22 C 800.47 849.88 800.98 850.05 800.97 851.73 C 800.59 851.60 799.84 851.34 799.46 851.22 Z" />
<path fill="#adedef" d=" M 792.41 851.26 C 794.56 850.16 797.27 850.21 799.46 851.22 C 799.84 851.34 800.59 851.60 800.97 851.73 C 807.00 852.88 811.01 859.15 810.77 865.09 C 810.52 867.27 811.48 870.23 809.69 871.89 C 809.29 871.98 808.51 872.17 808.12 872.26 C 808.40 872.53 808.95 873.07 809.23 873.34 C 807.53 876.32 804.38 877.74 801.61 879.50 C 801.56 879.54 801.44 879.61 801.39 879.65 C 800.43 879.69 798.52 879.78 797.57 879.82 C 796.48 879.76 795.41 879.75 794.34 879.80 C 793.39 879.78 791.48 879.72 790.52 879.70 C 790.48 879.67 790.40 879.63 790.36 879.60 L 788.55 878.57 L 788.47 878.53 L 788.41 878.48 C 786.22 876.63 784.14 874.66 782.05 872.70 C 781.29 869.17 781.15 865.56 781.17 861.97 C 782.92 862.95 783.70 860.29 782.09 859.63 C 783.58 855.86 786.68 852.29 790.92 851.79 C 791.29 851.66 792.03 851.39 792.41 851.26 Z" />
<path fill="#6ddade" d=" M 844.19 856.24 C 849.07 848.88 861.50 848.43 866.99 855.13 C 867.25 855.58 867.78 856.49 868.04 856.94 C 868.25 857.24 868.66 857.85 868.87 858.15 C 869.16 858.58 869.75 859.44 870.04 859.87 L 870.02 860.94 C 870.24 861.41 870.70 862.36 870.92 862.83 C 871.72 866.56 870.74 870.39 868.73 873.58 L 868.71 873.62 L 868.69 873.66 C 866.19 877.14 862.21 880.34 857.68 879.84 C 856.60 879.74 855.54 879.74 854.49 879.83 C 852.27 880.06 849.59 879.77 848.20 877.82 C 847.76 877.54 846.87 876.98 846.43 876.70 L 845.62 876.60 C 845.48 876.19 845.18 875.38 845.03 874.97 L 844.84 874.18 L 844.20 873.67 C 842.17 872.34 841.93 869.75 841.19 867.66 L 841.18 867.60 L 841.17 867.53 C 840.02 863.51 841.96 859.49 844.19 856.24 Z" />
<path fill="#6ddade" d=" M 348.11 853.77 C 346.35 851.98 350.11 851.43 348.95 853.65 L 348.11 853.77 Z" />
<path fill="#adedef" d=" M 315.52 853.53 C 318.14 853.07 320.93 853.30 323.51 853.97 C 324.02 854.08 325.05 854.29 325.56 854.39 C 333.18 856.55 337.45 866.14 334.52 873.45 C 334.50 873.49 334.47 873.56 334.46 873.60 L 333.60 875.46 L 333.57 875.53 L 333.53 875.60 C 332.40 878.30 330.40 880.41 327.65 881.48 L 327.53 881.54 L 327.41 881.60 L 325.66 882.51 C 325.62 882.52 325.56 882.55 325.53 882.56 C 324.59 882.63 322.71 882.77 321.77 882.84 C 320.75 882.62 319.79 882.76 318.88 883.27 C 316.62 883.55 314.45 882.58 312.36 881.90 C 310.42 878.71 306.43 876.72 306.02 872.74 C 305.43 869.70 305.58 866.59 305.99 863.55 C 306.01 863.50 306.06 863.41 306.09 863.36 C 307.90 859.04 311.32 855.56 315.52 853.53 Z" />
<path fill="#697c8c" d=" M 324.16 853.32 L 325.21 853.54 L 325.56 854.39 C 325.05 854.29 324.02 854.08 323.51 853.97 L 324.16 853.32 Z" />
<path fill="#6ddade" d=" M 373.41 854.59 C 378.26 853.31 384.04 852.31 388.43 855.41 C 389.86 856.31 391.22 857.32 392.60 858.32 C 393.61 860.41 394.65 862.48 395.70 864.57 C 395.35 868.22 396.27 872.72 393.42 875.59 C 391.88 876.10 391.81 876.65 393.22 877.21 C 390.03 880.01 386.45 883.46 381.82 882.86 C 381.20 882.86 379.96 882.86 379.34 882.86 C 376.47 883.35 373.85 882.02 371.46 880.63 L 371.42 880.61 L 371.38 880.57 C 370.39 879.59 369.40 878.61 368.42 877.64 L 368.38 877.60 L 368.36 877.56 C 367.17 875.34 366.21 873.02 365.37 870.67 C 365.36 870.63 365.32 870.54 365.31 870.50 C 364.20 864.00 368.44 858.24 373.41 854.59 Z" />
<path fill="#697c8c" d=" M 866.99 855.13 L 867.90 855.19 L 868.44 856.12 L 868.04 856.94 C 867.78 856.49 867.25 855.58 866.99 855.13 Z" />
<path fill="#697c8c" d=" M 868.87 858.15 L 869.77 858.14 L 870.37 859.02 L 870.04 859.87 C 869.75 859.44 869.16 858.58 868.87 858.15 Z" />
<path fill="#6ddade" d=" M 780.82 861.05 C 781.14 860.69 781.77 859.98 782.09 859.63 C 783.70 860.29 782.92 862.95 781.17 861.97 L 780.82 861.05 Z" />
<path fill="#697c8c" d=" M 870.02 860.94 L 870.91 861.06 L 871.37 862.03 L 870.92 862.83 C 870.70 862.36 870.24 861.41 870.02 860.94 Z" />
<path fill="#697c8c" d=" M 305.99 863.55 C 306.01 863.50 306.06 863.41 306.09 863.36 C 306.06 863.41 306.01 863.50 305.99 863.55 Z" />
<path fill="#697c8c" d=" M 841.17 867.53 L 841.18 867.60 L 841.19 867.66 C 841.19 867.63 841.17 867.57 841.17 867.53 Z" />
<path fill="#697c8c" d=" M 365.31 870.50 C 365.32 870.54 365.36 870.63 365.37 870.67 C 365.36 870.63 365.32 870.54 365.31 870.50 Z" />
<path fill="#697c8c" d=" M 808.12 872.26 C 808.51 872.17 809.29 871.98 809.69 871.89 L 809.89 872.74 L 809.23 873.34 C 808.95 873.07 808.40 872.53 808.12 872.26 Z" />
<path fill="#697c8c" d=" M 334.46 873.60 C 334.47 873.56 334.50 873.49 334.52 873.45 C 334.50 873.49 334.47 873.56 334.46 873.60 Z" />
<path fill="#697c8c" d=" M 868.71 873.62 L 868.73 873.58 C 868.72 873.60 868.70 873.64 868.69 873.66 L 868.71 873.62 Z" />
<path fill="#697c8c" d=" M 845.03 874.97 C 843.42 875.33 843.15 874.90 844.20 873.67 L 844.84 874.18 L 845.03 874.97 Z" />
<path fill="#697c8c" d=" M 333.57 875.53 L 333.60 875.46 C 333.58 875.49 333.55 875.56 333.53 875.60 L 333.57 875.53 Z" />
<path fill="#697c8c" d=" M 393.22 877.21 C 391.81 876.65 391.88 876.10 393.42 875.59 C 393.37 875.99 393.27 876.81 393.22 877.21 Z" />
<path fill="#697c8c" d=" M 368.36 877.56 L 368.38 877.60 L 368.42 877.64 C 368.40 877.62 368.37 877.58 368.36 877.56 Z" />
<path fill="#697c8c" d=" M 846.43 876.70 C 846.87 876.98 847.76 877.54 848.20 877.82 L 847.37 878.19 L 846.46 877.61 L 846.43 876.70 Z" />
<path fill="#697c8c" d=" M 788.41 878.48 L 788.47 878.53 L 788.55 878.57 C 788.51 878.55 788.45 878.50 788.41 878.48 Z" />
<path fill="#697c8c" d=" M 790.36 879.60 C 790.40 879.63 790.48 879.67 790.52 879.70 C 790.48 879.67 790.40 879.63 790.36 879.60 Z" />
<path fill="#697c8c" d=" M 801.39 879.65 C 801.44 879.61 801.56 879.54 801.61 879.50 C 801.56 879.54 801.44 879.61 801.39 879.65 Z" />
<path fill="#697c8c" d=" M 371.38 880.57 L 371.42 880.61 L 371.46 880.63 C 371.44 880.62 371.40 880.59 371.38 880.57 Z" />
<path fill="#697c8c" d=" M 794.34 879.80 C 795.41 879.75 796.48 879.76 797.57 879.82 C 798.09 881.76 793.85 881.73 794.34 879.80 Z" />
<path fill="#697c8c" d=" M 854.49 879.83 C 855.54 879.74 856.60 879.74 857.68 879.84 C 858.17 881.76 853.97 881.75 854.49 879.83 Z" />
<path fill="#697c8c" d=" M 327.53 881.54 L 327.65 881.48 C 327.59 881.51 327.47 881.57 327.41 881.60 L 327.53 881.54 Z" />
<path fill="#6ddade" d=" M 819.83 881.96 C 820.91 880.26 823.37 880.95 825.08 880.67 C 831.24 880.11 838.47 884.04 839.79 890.33 C 840.02 890.79 840.49 891.73 840.72 892.20 C 840.98 894.39 840.98 896.63 840.71 898.83 C 840.48 899.30 840.00 900.23 839.76 900.69 C 839.65 903.53 837.29 905.64 835.25 907.33 C 830.77 910.97 824.19 911.08 819.07 908.87 C 815.74 906.33 811.70 903.54 811.26 899.00 C 810.23 896.09 810.90 893.09 811.58 890.21 C 813.50 887.68 814.75 884.12 818.05 883.08 C 818.49 882.80 819.39 882.24 819.83 881.96 Z" />
<path fill="#697c8c" d=" M 325.53 882.56 C 325.56 882.55 325.62 882.52 325.66 882.51 C 325.62 882.52 325.56 882.55 325.53 882.56 Z" />
<path fill="#697c8c" d=" M 818.08 882.16 L 819.00 881.59 L 819.83 881.96 C 819.39 882.24 818.49 882.80 818.05 883.08 L 818.08 882.16 Z" />
<path fill="#697c8c" d=" M 318.88 883.27 C 319.79 882.76 320.75 882.62 321.77 882.84 C 321.17 884.46 320.20 884.60 318.88 883.27 Z" />
<path fill="#697c8c" d=" M 379.34 882.86 C 379.96 882.86 381.20 882.86 381.82 882.86 C 382.47 884.63 378.63 884.63 379.34 882.86 Z" />
<path fill="#6ddade" d=" M 338.38 890.31 C 342.90 879.54 361.70 882.19 364.12 893.23 C 364.35 893.70 364.81 894.64 365.04 895.11 C 365.54 897.61 365.21 900.18 364.96 902.71 L 364.89 902.60 C 364.88 902.64 364.85 902.72 364.83 902.76 C 363.50 907.25 359.97 910.91 355.60 912.53 C 349.35 914.42 341.29 912.82 338.24 906.49 C 337.94 906.06 337.33 905.19 337.03 904.76 L 336.21 903.77 C 336.20 903.75 336.18 903.70 336.17 903.68 C 336.12 902.71 336.02 900.76 335.97 899.79 C 336.08 898.69 336.13 897.61 336.10 896.53 C 336.17 895.98 336.33 894.89 336.40 894.34 C 337.25 893.09 338.02 891.77 338.38 890.31 Z" />
<path fill="#697c8c" d=" M 336.40 894.34 C 335.16 893.05 336.53 889.78 338.38 890.31 C 338.02 891.77 337.25 893.09 336.40 894.34 Z" />
<path fill="#697c8c" d=" M 839.79 890.33 L 840.69 890.44 L 841.17 891.40 L 840.72 892.20 C 840.49 891.73 840.02 890.79 839.79 890.33 Z" />
<path fill="#697c8c" d=" M 364.12 893.23 L 365.02 893.35 L 365.49 894.31 L 365.04 895.11 C 364.81 894.64 364.35 893.70 364.12 893.23 Z" />
<path fill="#697c8c" d=" M 335.97 899.79 C 334.03 900.19 334.21 896.01 336.10 896.53 C 336.13 897.61 336.08 898.69 335.97 899.79 Z" />
<path fill="#697c8c" d=" M 839.76 900.69 C 840.00 900.23 840.48 899.30 840.71 898.83 L 841.15 899.64 L 840.66 900.59 L 839.76 900.69 Z" />
<path fill="#697c8c" d=" M 364.89 902.60 L 364.96 902.71 L 364.83 902.76 C 364.85 902.72 364.88 902.64 364.89 902.60 Z" />
<path fill="#697c8c" d=" M 336.17 903.68 C 336.18 903.70 336.20 903.75 336.21 903.77 C 336.20 903.75 336.18 903.70 336.17 903.68 Z" />
<path fill="#697c8c" d=" M 337.03 904.76 C 337.33 905.19 337.94 906.06 338.24 906.49 L 337.33 906.50 L 336.71 905.61 L 337.03 904.76 Z" />
</svg>
