<?xml version="1.0" encoding="UTF-8" ?>
<!DOCTYPE svg PUBLIC "-//W3C//DTD SVG 1.1//EN" "http://www.w3.org/Graphics/SVG/1.1/DTD/svg11.dtd">
<svg width="652pt" height="584pt" viewBox="0 0 652 584" version="1.1" xmlns="http://www.w3.org/2000/svg">
<path fill="#fcfdfe" d=" M 0.00 0.00 L 652.00 0.00 L 652.00 584.00 L 0.00 584.00 L 0.00 0.00 Z" />
<path fill="#61c69f" d=" M 312.27 37.51 C 331.91 36.01 351.67 37.95 371.05 41.14 C 427.58 50.97 480.32 80.76 518.09 123.92 C 555.20 165.78 577.79 220.18 581.26 276.01 C 583.04 294.69 581.47 313.51 578.86 332.03 C 572.33 375.31 554.31 416.77 527.21 451.14 C 503.13 481.83 471.92 506.88 436.73 523.73 C 402.62 540.24 364.77 548.54 326.94 549.00 C 286.75 548.84 246.48 539.70 210.61 521.44 C 172.24 502.11 138.92 472.90 114.71 437.41 C 93.47 406.41 79.22 370.66 73.38 333.53 C 70.59 314.55 68.92 295.24 70.74 276.08 C 73.53 231.89 88.12 188.53 112.64 151.65 C 140.47 109.53 181.06 76.00 227.71 56.70 C 254.53 45.52 283.27 39.12 312.27 37.51 Z" />
<path fill="#fcfdfe" d=" M 182.15 141.15 C 222.43 141.18 262.70 141.09 302.98 141.20 C 314.11 141.27 324.15 150.11 325.74 161.11 C 327.32 159.18 327.17 156.43 328.44 154.31 C 332.27 146.21 341.07 141.03 349.98 141.16 C 389.94 141.14 429.90 141.15 469.86 141.16 C 469.86 151.81 469.84 162.46 469.86 173.12 C 469.84 250.35 469.96 327.58 469.78 404.81 C 427.17 404.74 384.55 404.77 341.94 404.79 C 334.03 404.74 327.00 411.09 325.99 418.90 C 325.17 413.79 322.15 408.94 317.39 406.67 C 313.95 404.71 309.88 404.66 306.04 404.75 C 264.77 404.82 223.49 404.71 182.22 404.81 C 182.04 327.58 182.16 250.34 182.14 173.11 C 182.16 162.46 182.13 151.80 182.15 141.15 Z" />
<path fill="#61c69f" d=" M 214.28 165.29 C 224.79 165.37 235.30 165.40 245.81 165.28 C 245.75 183.79 245.71 202.31 245.84 220.83 C 235.31 220.71 224.79 220.75 214.26 220.81 C 214.38 202.31 214.35 183.80 214.28 165.29 Z" />
<path fill="#fcfdfe" d=" M 216.30 167.29 C 225.43 167.48 234.57 167.47 243.70 167.30 C 243.53 184.43 243.52 201.57 243.71 218.70 C 234.57 218.53 225.43 218.52 216.30 218.70 C 216.47 201.57 216.47 184.43 216.30 167.29 Z" />
<path fill="#424f73" d=" M 158.16 181.99 C 157.70 178.18 160.04 173.98 164.01 173.35 C 170.03 172.83 176.10 173.27 182.14 173.11 C 182.16 250.34 182.04 327.58 182.22 404.81 C 223.49 404.71 264.77 404.82 306.04 404.75 C 309.88 404.66 313.95 404.71 317.39 406.67 C 322.15 408.94 325.17 413.79 325.99 418.90 C 327.00 411.09 334.03 404.74 341.94 404.79 C 384.55 404.77 427.17 404.74 469.78 404.81 C 469.96 327.58 469.84 250.35 469.86 173.12 C 475.62 173.21 481.38 172.94 487.13 173.24 C 491.04 173.36 494.08 177.14 493.80 180.96 C 493.90 260.31 493.79 339.67 493.86 419.02 C 493.79 421.45 493.94 424.23 492.14 426.14 C 490.49 428.35 487.65 428.97 485.04 428.86 C 447.34 428.88 409.65 428.82 371.96 428.89 C 364.48 428.87 356.59 431.94 352.43 438.43 C 347.03 447.05 337.20 452.74 326.99 452.81 C 317.12 453.28 307.10 448.68 301.22 440.71 C 299.01 437.65 296.89 434.34 293.53 432.41 C 287.77 428.60 280.60 428.81 273.99 428.85 C 237.98 428.85 201.96 428.91 165.96 428.82 C 161.67 429.17 157.82 425.26 158.20 420.98 C 158.11 341.32 158.19 261.65 158.16 181.99 Z" />
</svg>
