<?xml version="1.0" encoding="UTF-8" ?>
<!DOCTYPE svg PUBLIC "-//W3C//DTD SVG 1.1//EN" "http://www.w3.org/Graphics/SVG/1.1/DTD/svg11.dtd">
<svg width="475pt" height="475pt" viewBox="0 0 475 475" version="1.1" xmlns="http://www.w3.org/2000/svg">
<path fill="#fffdf1" d=" M 0.00 0.00 L 475.00 0.00 L 475.00 475.00 L 0.00 475.00 L 0.00 0.00 Z" />
<path fill="#deb44d" d=" M 76.34 31.68 C 80.27 26.12 89.74 27.40 92.14 33.79 C 95.75 33.66 99.64 31.28 102.89 33.96 C 106.62 35.61 107.09 39.83 106.49 43.41 C 108.45 44.71 110.97 45.76 111.75 48.18 C 112.59 50.51 114.11 52.47 115.35 54.59 C 115.77 56.48 115.37 58.44 115.23 60.35 C 113.69 58.00 112.13 55.20 109.10 54.63 C 104.37 53.81 99.31 56.54 97.41 60.95 C 96.14 58.90 95.15 56.33 92.74 55.35 C 90.62 54.24 88.15 54.64 85.88 54.90 C 87.21 54.46 88.55 54.07 89.89 53.67 C 88.94 51.85 88.23 49.57 86.12 48.79 C 84.01 48.08 81.72 48.53 79.53 48.51 C 78.09 47.27 76.85 45.55 74.90 45.13 C 72.92 44.39 71.16 45.78 69.36 46.37 C 67.30 47.39 64.96 46.24 62.81 46.85 C 60.21 47.51 57.61 48.19 55.05 49.01 C 52.86 49.54 52.27 51.98 51.25 53.68 C 52.20 53.98 53.15 54.29 54.11 54.60 C 49.85 53.80 46.17 56.42 44.54 60.21 C 42.05 56.73 44.81 51.92 48.47 50.57 C 48.89 47.07 49.32 43.48 51.23 40.43 C 51.25 35.37 56.47 32.46 61.04 32.69 C 64.03 33.07 66.05 29.91 69.06 30.39 C 71.60 30.08 73.82 31.69 76.34 31.68 Z" />
<path fill="#dc6138" d=" M 176.61 42.59 C 179.97 41.53 183.50 41.94 186.96 41.89 C 215.65 41.94 244.34 41.86 273.04 41.89 C 275.64 41.72 278.84 43.04 278.77 46.08 C 278.77 71.06 278.80 96.05 278.75 121.03 C 279.05 123.68 276.68 125.97 274.04 125.51 C 242.33 125.47 210.62 125.56 178.91 125.45 C 176.09 125.72 174.76 122.40 174.78 120.08 C 174.77 95.70 174.76 71.32 174.77 46.94 C 174.63 45.26 175.87 43.96 176.61 42.59 Z" />
<path fill="#f1d17e" d=" M 69.36 46.37 C 71.16 45.78 72.92 44.39 74.90 45.13 C 76.85 45.55 78.09 47.27 79.53 48.51 C 81.72 48.53 84.01 48.08 86.12 48.79 C 88.23 49.57 88.94 51.85 89.89 53.67 C 88.55 54.07 87.21 54.46 85.88 54.90 C 83.06 55.66 81.44 58.24 79.73 60.39 C 77.17 57.50 74.20 54.06 69.92 54.43 C 65.79 54.01 63.66 58.13 61.75 61.06 C 60.33 57.83 57.62 55.31 54.11 54.60 C 53.15 54.29 52.20 53.98 51.25 53.68 C 52.27 51.98 52.86 49.54 55.05 49.01 C 57.61 48.19 60.21 47.51 62.81 46.85 C 64.96 46.24 67.30 47.39 69.36 46.37 Z" />
<path fill="#fffbf8" d=" M 180.50 46.34 C 183.52 46.28 186.53 46.28 189.55 46.34 C 190.30 48.74 190.19 51.23 189.56 53.64 C 186.54 53.71 183.51 53.72 180.48 53.68 C 179.70 51.27 179.65 48.73 180.50 46.34 Z" />
<path fill="#fffbfd" d=" M 194.41 46.40 C 197.43 46.26 200.46 46.28 203.48 46.37 C 204.56 48.69 204.01 51.19 203.53 53.59 C 200.49 53.72 197.44 53.73 194.40 53.61 C 193.85 51.22 193.86 48.79 194.41 46.40 Z" />
<path fill="#fffdfa" d=" M 208.43 46.32 C 211.47 46.27 214.52 46.26 217.56 46.39 C 218.01 48.77 217.96 51.19 217.60 53.58 C 214.55 53.73 211.50 53.71 208.45 53.64 C 207.52 51.29 207.56 48.68 208.43 46.32 Z" />
<path fill="#fffbf9" d=" M 250.45 46.30 C 253.46 46.26 256.48 46.25 259.50 46.43 C 259.91 48.79 259.88 51.18 259.53 53.54 C 256.48 53.75 253.43 53.73 250.39 53.65 C 249.35 51.35 249.40 48.59 250.45 46.30 Z" />
<path fill="#fffcf9" d=" M 264.39 46.32 C 267.44 46.28 270.49 46.23 273.53 46.49 C 273.77 48.83 273.78 51.20 273.53 53.54 C 270.51 53.69 267.48 53.88 264.47 53.57 C 263.02 51.51 263.49 48.53 264.39 46.32 Z" />
<path fill="#fffbfd" d=" M 222.61 46.27 C 225.41 46.35 228.22 46.20 231.03 46.36 C 232.62 48.24 231.54 51.26 231.54 53.59 C 228.53 53.73 225.53 53.70 222.52 53.65 C 221.37 51.35 221.48 48.56 222.61 46.27 Z" />
<path fill="#fdfdff" d=" M 236.54 46.28 C 239.47 46.32 242.41 46.32 245.35 46.31 C 246.05 48.71 246.02 51.26 245.36 53.67 C 242.40 53.68 239.45 53.69 236.51 53.68 C 235.70 51.29 235.38 48.62 236.54 46.28 Z" />
<path fill="#c99e6c" d=" M 325.72 51.23 C 358.70 51.09 391.69 51.25 424.67 51.15 C 424.71 51.88 424.79 53.35 424.82 54.08 C 424.17 53.04 423.51 51.74 422.05 51.92 C 420.20 52.66 418.86 54.22 417.37 55.47 C 418.29 55.93 419.22 56.38 420.15 56.84 C 390.11 56.92 360.05 56.66 330.01 56.97 C 330.45 73.51 329.67 90.10 330.42 106.62 C 330.65 107.10 331.13 108.08 331.37 108.56 C 330.12 109.85 328.84 111.11 327.51 112.31 C 326.04 113.38 325.30 111.12 325.44 110.06 C 325.05 106.79 321.84 104.08 318.55 104.19 C 317.89 101.95 319.81 100.68 320.83 99.00 C 320.85 97.91 320.82 96.83 320.73 95.75 C 319.90 94.93 319.08 94.10 318.26 93.27 C 318.08 90.66 321.35 89.67 320.87 87.03 C 321.24 84.61 317.67 83.41 318.50 80.96 C 319.48 79.35 321.39 78.04 320.83 75.89 C 320.93 73.89 318.35 72.95 318.49 70.94 C 318.33 68.92 321.16 68.14 320.85 66.00 C 321.48 63.35 318.29 62.17 318.15 59.67 C 322.30 58.98 326.17 55.79 325.72 51.23 Z" />
<path fill="#bf9160" d=" M 417.37 55.47 C 418.86 54.22 420.20 52.66 422.05 51.92 C 423.51 51.74 424.17 53.04 424.82 54.08 C 425.97 57.11 428.73 58.77 431.78 59.45 C 431.76 59.98 431.72 61.05 431.70 61.59 C 430.51 62.77 429.06 63.99 429.28 65.86 C 429.12 68.00 431.97 68.86 431.81 70.96 C 432.11 73.09 429.09 73.86 429.34 76.00 C 428.58 78.66 432.45 79.50 431.83 82.10 C 431.76 83.74 429.96 84.54 429.39 85.99 C 428.41 89.08 432.77 90.39 431.82 93.57 C 430.95 94.69 429.47 95.54 429.38 97.09 C 428.56 99.94 432.54 101.21 431.88 104.11 C 427.42 104.16 424.40 108.13 424.41 112.38 C 392.11 112.37 359.80 112.51 327.51 112.31 C 328.84 111.11 330.12 109.85 331.37 108.56 C 331.13 108.08 330.65 107.10 330.42 106.62 C 360.37 106.19 390.34 106.84 420.29 106.29 C 420.22 89.81 420.50 73.32 420.15 56.84 C 419.22 56.38 418.29 55.93 417.37 55.47 Z" />
<path fill="#fee4c1" d=" M 61.75 61.06 C 63.66 58.13 65.79 54.01 69.92 54.43 C 74.20 54.06 77.17 57.50 79.73 60.39 C 79.45 74.89 79.66 89.40 79.63 103.90 C 77.11 107.90 73.59 111.11 70.96 115.02 C 69.77 116.80 68.12 118.17 66.45 119.48 C 64.82 100.01 63.59 80.49 61.75 61.06 Z" />
<path fill="#e06137" d=" M 44.54 60.21 C 46.17 56.42 49.85 53.80 54.11 54.60 C 57.62 55.31 60.33 57.83 61.75 61.06 C 63.59 80.49 64.82 100.01 66.45 119.48 C 66.64 124.26 67.36 129.01 67.50 133.80 C 63.99 133.91 60.48 134.01 56.96 133.99 C 56.40 131.01 56.23 127.85 54.54 125.24 C 53.83 123.92 53.82 122.38 53.59 120.94 C 50.96 103.98 48.33 87.01 45.71 70.04 C 45.33 66.76 44.30 63.54 44.54 60.21 Z" />
<path fill="#e06138" d=" M 79.73 60.39 C 81.44 58.24 83.06 55.66 85.88 54.90 C 88.15 54.64 90.62 54.24 92.74 55.35 C 95.15 56.33 96.14 58.90 97.41 60.95 C 96.27 68.42 96.16 76.00 95.38 83.51 C 93.99 100.24 93.06 117.01 91.35 133.71 C 87.46 133.85 83.58 134.00 79.69 133.82 C 79.50 123.85 79.69 113.87 79.63 103.90 C 79.66 89.40 79.45 74.89 79.73 60.39 Z" />
<path fill="#ffe4c1" d=" M 97.41 60.95 C 99.31 56.54 104.37 53.81 109.10 54.63 C 112.13 55.20 113.69 58.00 115.23 60.35 C 114.92 62.26 114.63 64.18 114.22 66.07 C 114.16 64.71 114.09 63.35 113.99 61.98 C 107.56 68.96 102.44 77.12 95.38 83.51 C 96.16 76.00 96.27 68.42 97.41 60.95 Z" />
<path fill="#ffe8be" d=" M 330.01 56.97 C 360.05 56.66 390.11 56.92 420.15 56.84 C 420.50 73.32 420.22 89.81 420.29 106.29 C 390.34 106.84 360.37 106.19 330.42 106.62 C 329.67 90.10 330.45 73.51 330.01 56.97 Z" />
<path fill="#535d66" d=" M 180.27 60.94 C 180.40 59.76 179.84 57.25 181.92 57.68 C 200.29 57.66 218.67 57.71 237.05 57.67 C 242.73 57.93 248.45 57.18 254.09 58.13 C 260.60 57.67 267.30 57.06 273.75 58.36 C 273.70 75.48 273.77 92.60 273.70 109.72 C 247.15 109.80 220.60 109.75 194.04 109.75 C 189.42 109.39 184.80 110.89 180.25 109.58 C 180.29 93.37 180.23 77.15 180.27 60.94 Z" />
<path fill="#5d6771" d=" M 181.39 59.14 C 208.24 59.09 235.09 59.25 261.95 59.10 C 264.73 59.21 267.75 58.51 270.33 59.89 C 261.39 63.75 253.25 69.17 244.67 73.73 C 239.15 77.46 232.89 79.84 227.28 83.42 C 217.00 88.61 207.44 95.10 197.03 100.02 C 191.62 102.68 186.88 106.59 181.22 108.75 C 181.12 92.21 180.72 75.66 181.39 59.14 Z" />
<path fill="#bd9161" d=" M 410.28 59.43 C 412.76 59.40 415.25 59.39 417.73 59.41 C 417.72 74.28 417.75 89.15 417.72 104.02 C 415.24 104.13 412.76 104.14 410.29 104.03 C 410.26 89.17 410.26 74.30 410.28 59.43 Z" />
<path fill="#c99d6a" d=" M 332.49 59.46 C 335.04 59.38 337.59 59.41 340.14 59.56 C 339.81 74.36 340.44 89.17 339.82 103.94 C 337.45 104.07 335.07 104.06 332.70 103.92 C 332.23 89.11 332.63 74.28 332.49 59.46 Z" />
<path fill="#c99e6b" d=" M 342.50 59.43 C 364.25 59.45 386.00 59.30 407.75 59.51 C 405.88 63.46 401.81 65.27 398.09 67.05 C 398.76 67.71 399.43 68.37 400.11 69.03 C 398.45 68.73 396.81 68.42 395.17 68.10 C 394.26 66.69 393.31 65.31 392.37 63.93 C 391.51 65.25 390.73 66.63 389.72 67.85 C 388.15 68.43 386.49 68.67 384.86 69.00 C 385.99 70.33 387.12 71.66 388.26 73.00 C 388.10 74.66 387.90 76.33 387.74 78.00 C 387.30 76.96 386.87 75.93 386.45 74.90 C 382.66 76.43 379.55 79.13 376.37 81.62 C 375.38 81.66 374.41 81.71 373.43 81.76 C 373.03 82.21 372.23 83.12 371.83 83.57 C 370.21 82.22 368.25 80.79 366.08 81.94 C 362.81 82.66 363.49 86.45 363.32 88.94 L 361.77 89.09 C 361.77 86.65 361.79 84.22 361.81 81.78 C 361.02 81.74 359.45 81.66 358.67 81.62 C 358.58 86.83 358.85 92.03 358.75 97.24 C 358.45 95.63 358.06 94.04 357.71 92.45 C 356.70 93.02 355.69 93.60 354.70 94.18 C 354.66 91.18 354.66 88.17 354.78 85.17 C 356.24 84.49 358.01 83.86 358.01 81.93 C 354.99 81.67 351.96 81.63 348.94 81.78 C 348.68 83.81 349.72 84.80 351.74 84.77 C 351.73 88.17 351.71 91.57 351.71 94.97 C 349.50 96.90 347.04 98.55 345.02 100.71 C 344.40 100.58 343.16 100.33 342.55 100.21 C 342.37 86.62 342.50 73.02 342.50 59.43 Z" />
<path fill="#bd9060" d=" M 407.75 59.51 C 407.62 74.33 407.68 89.16 407.72 103.99 C 388.14 104.27 368.55 103.92 348.98 104.12 C 346.75 104.06 344.40 104.39 342.32 103.43 C 342.38 102.63 342.49 101.01 342.55 100.21 C 343.16 100.33 344.40 100.58 345.02 100.71 C 347.04 98.55 349.50 96.90 351.71 94.97 C 351.70 96.53 351.68 98.09 351.67 99.65 C 352.67 99.71 353.67 99.77 354.68 99.84 C 354.70 97.95 354.70 96.06 354.70 94.18 C 355.69 93.60 356.70 93.02 357.71 92.45 C 358.06 94.04 358.45 95.63 358.75 97.24 C 358.77 97.90 358.81 99.23 358.83 99.89 C 359.56 99.87 361.02 99.82 361.75 99.80 C 361.78 96.23 361.78 92.66 361.77 89.09 L 363.32 88.94 C 363.40 92.00 363.07 95.14 363.86 98.13 C 365.51 100.62 369.79 100.88 371.47 98.26 C 371.98 96.58 371.87 94.80 372.00 93.07 C 371.37 93.06 370.12 93.04 369.50 93.03 C 369.09 94.70 368.61 96.36 368.01 97.97 C 365.57 96.45 366.60 93.30 366.33 90.94 C 366.54 88.48 365.65 85.33 368.14 83.76 C 368.57 85.10 369.00 86.44 369.43 87.79 C 370.05 87.89 371.29 88.09 371.91 88.19 C 371.88 86.65 371.85 85.11 371.83 83.57 C 372.23 83.12 373.03 82.21 373.43 81.76 C 373.53 87.77 373.48 93.79 373.48 99.81 C 374.48 99.79 375.48 99.78 376.49 99.77 C 376.51 97.57 376.57 95.38 376.73 93.18 C 378.49 95.01 379.07 97.52 379.97 99.82 C 380.72 99.82 382.21 99.81 382.95 99.81 C 381.82 96.45 380.49 93.17 379.10 89.92 C 380.44 87.18 381.77 84.45 383.04 81.68 C 382.29 81.69 380.78 81.70 380.02 81.70 C 378.95 84.06 377.88 86.43 376.77 88.77 C 376.53 86.39 376.42 84.01 376.37 81.62 C 379.55 79.13 382.66 76.43 386.45 74.90 C 386.87 75.93 387.30 76.96 387.74 78.00 C 389.42 77.33 391.04 76.30 392.88 76.18 C 394.37 76.66 395.77 77.39 397.19 78.06 C 396.96 76.33 396.72 74.61 396.51 72.88 C 397.70 71.60 398.90 70.31 400.11 69.03 C 399.43 68.37 398.76 67.71 398.09 67.05 C 401.81 65.27 405.88 63.46 407.75 59.51 Z" />
<path fill="#f7c39e" d=" M 95.38 83.51 C 102.44 77.12 107.56 68.96 113.99 61.98 C 114.09 63.35 114.16 64.71 114.22 66.07 C 110.71 88.61 107.15 111.15 103.71 133.70 C 103.33 133.72 102.57 133.74 102.19 133.75 C 98.58 133.80 94.96 133.69 91.35 133.71 C 93.06 117.01 93.99 100.24 95.38 83.51 Z" />
<path fill="#ffe4c0" d=" M 353.89 67.92 C 354.69 66.47 355.42 64.94 356.64 63.79 C 357.46 65.24 358.26 66.70 359.06 68.16 C 360.44 68.74 363.19 67.79 363.67 69.52 C 362.70 70.67 361.62 71.72 360.57 72.80 C 360.72 74.53 360.87 76.25 361.02 77.98 C 359.64 77.34 358.27 76.63 356.82 76.14 C 354.93 76.17 353.35 77.48 351.66 78.18 C 351.91 76.42 352.17 74.67 352.43 72.92 C 351.23 71.62 350.05 70.31 348.88 68.99 C 350.54 68.63 352.21 68.29 353.89 67.92 Z" />
<path fill="#ffe4be" d=" M 374.28 63.64 C 375.37 64.98 376.08 66.60 377.15 67.97 C 378.74 68.56 380.45 68.68 382.13 68.97 C 380.88 70.25 379.66 71.57 378.48 72.91 C 378.69 74.61 378.90 76.32 379.12 78.02 C 377.47 77.30 375.81 76.62 374.14 75.97 C 372.65 76.69 371.16 77.40 369.67 78.10 C 369.87 76.38 370.07 74.67 370.26 72.96 C 369.05 71.70 367.93 70.36 366.91 68.95 C 368.54 68.61 370.27 68.56 371.79 67.84 C 372.77 66.53 373.47 65.05 374.28 63.64 Z" />
<path fill="#ffe5bf" d=" M 392.37 63.93 C 393.31 65.31 394.26 66.69 395.17 68.10 C 396.81 68.42 398.45 68.73 400.11 69.03 C 398.90 70.31 397.70 71.60 396.51 72.88 C 396.72 74.61 396.96 76.33 397.19 78.06 C 395.77 77.39 394.37 76.66 392.88 76.18 C 391.04 76.30 389.42 77.33 387.74 78.00 C 387.90 76.33 388.10 74.66 388.26 73.00 C 387.12 71.66 385.99 70.33 384.86 69.00 C 386.49 68.67 388.15 68.43 389.72 67.85 C 390.73 66.63 391.51 65.25 392.37 63.93 Z" />
<path fill="#ffe6bf" d=" M 373.43 81.76 C 374.41 81.71 375.38 81.66 376.37 81.62 C 376.42 84.01 376.53 86.39 376.77 88.77 C 377.88 86.43 378.95 84.06 380.02 81.70 C 380.78 81.70 382.29 81.69 383.04 81.68 C 381.77 84.45 380.44 87.18 379.10 89.92 C 380.49 93.17 381.82 96.45 382.95 99.81 C 382.21 99.81 380.72 99.82 379.97 99.82 C 379.07 97.52 378.49 95.01 376.73 93.18 C 376.57 95.38 376.51 97.57 376.49 99.77 C 375.48 99.78 374.48 99.79 373.48 99.81 C 373.48 93.79 373.53 87.77 373.43 81.76 Z" />
<path fill="#ffe5c0" d=" M 348.94 81.78 C 351.96 81.63 354.99 81.67 358.01 81.93 C 358.01 83.86 356.24 84.49 354.78 85.17 C 354.66 88.17 354.66 91.18 354.70 94.18 C 354.70 96.06 354.70 97.95 354.68 99.84 C 353.67 99.77 352.67 99.71 351.67 99.65 C 351.68 98.09 351.70 96.53 351.71 94.97 C 351.71 91.57 351.73 88.17 351.74 84.77 C 349.72 84.80 348.68 83.81 348.94 81.78 Z" />
<path fill="#ffe4b9" d=" M 358.67 81.62 C 359.45 81.66 361.02 81.74 361.81 81.78 C 361.79 84.22 361.77 86.65 361.77 89.09 C 361.78 92.66 361.78 96.23 361.75 99.80 C 361.02 99.82 359.56 99.87 358.83 99.89 C 358.81 99.23 358.77 97.90 358.75 97.24 C 358.85 92.03 358.58 86.83 358.67 81.62 Z" />
<path fill="#ffe6bc" d=" M 363.32 88.94 C 363.49 86.45 362.81 82.66 366.08 81.94 C 368.25 80.79 370.21 82.22 371.83 83.57 C 371.85 85.11 371.88 86.65 371.91 88.19 C 371.29 88.09 370.05 87.89 369.43 87.79 C 369.00 86.44 368.57 85.10 368.14 83.76 C 365.65 85.33 366.54 88.48 366.33 90.94 C 366.60 93.30 365.57 96.45 368.01 97.97 C 368.61 96.36 369.09 94.70 369.50 93.03 C 370.12 93.04 371.37 93.06 372.00 93.07 C 371.87 94.80 371.98 96.58 371.47 98.26 C 369.79 100.88 365.51 100.62 363.86 98.13 C 363.07 95.14 363.40 92.00 363.32 88.94 Z" />
<path fill="#ffe6bc" d=" M 384.09 81.71 C 386.71 81.67 389.35 81.56 391.98 81.80 C 392.06 82.46 392.21 83.78 392.29 84.45 C 390.59 84.45 388.90 84.44 387.21 84.43 C 387.18 86.07 387.14 87.71 387.11 89.35 C 388.35 89.37 389.59 89.39 390.84 89.42 C 390.89 89.99 390.99 91.12 391.05 91.69 C 389.73 91.85 388.41 92.00 387.10 92.16 C 387.08 93.88 387.22 95.60 387.52 97.30 C 388.99 97.23 390.47 97.17 391.95 97.11 C 391.94 97.79 391.90 99.14 391.88 99.81 C 389.30 99.80 386.71 99.79 384.14 99.80 C 384.21 93.77 384.18 87.74 384.09 81.71 Z" />
<path fill="#ffe6bb" d=" M 392.84 81.68 C 395.26 81.68 397.69 81.61 400.12 81.72 C 402.00 81.23 401.61 83.39 401.65 84.47 C 400.89 84.51 399.38 84.59 398.62 84.63 C 398.61 89.72 398.58 94.82 398.60 99.92 C 397.37 99.80 394.99 100.15 395.67 98.05 C 395.77 93.56 395.73 89.08 395.73 84.59 C 395.01 84.56 393.57 84.49 392.85 84.46 C 392.85 83.76 392.84 82.38 392.84 81.68 Z" />
<path fill="#f9c39e" d=" M 70.96 115.02 C 73.59 111.11 77.11 107.90 79.63 103.90 C 79.69 113.87 79.50 123.85 79.69 133.82 C 75.63 133.72 71.57 133.73 67.50 133.80 C 67.36 129.01 66.64 124.26 66.45 119.48 C 68.12 118.17 69.77 116.80 70.96 115.02 Z" />
<path fill="#fffdfb" d=" M 194.56 113.70 C 197.43 113.72 200.32 113.50 203.18 113.85 C 204.61 116.05 204.27 118.99 203.35 121.35 C 200.41 121.44 197.47 121.46 194.53 121.34 C 193.97 118.82 193.91 116.20 194.56 113.70 Z" />
<path fill="#fffbfc" d=" M 222.59 113.72 C 225.52 113.68 228.45 113.66 231.38 113.72 C 231.92 116.24 232.13 118.90 231.27 121.38 C 228.40 121.44 225.53 121.43 222.66 121.39 C 221.44 119.00 221.39 116.12 222.59 113.72 Z" />
<path fill="#fffbf9" d=" M 180.69 121.37 C 179.38 118.95 179.89 116.18 180.67 113.68 C 183.49 113.70 186.32 113.56 189.13 113.83 C 190.57 115.93 189.89 118.99 189.41 121.40 C 186.50 121.46 183.59 121.45 180.69 121.37 Z" />
<path fill="#fffefd" d=" M 208.68 121.41 C 207.64 119.11 207.04 115.74 208.99 113.80 C 211.67 113.59 214.37 113.59 217.06 113.78 C 218.53 115.83 218.02 119.04 217.27 121.40 C 214.41 121.41 211.55 121.41 208.68 121.41 Z" />
<path fill="#fffcfa" d=" M 236.79 121.42 C 235.26 119.12 235.50 116.05 236.65 113.65 C 239.53 113.68 242.40 113.71 245.28 113.70 C 246.07 116.19 246.02 118.86 245.33 121.37 C 242.48 121.41 239.63 121.41 236.79 121.42 Z" />
<path fill="#fffafc" d=" M 250.73 121.42 C 249.27 119.17 249.12 115.88 250.72 113.66 C 253.72 113.76 256.76 113.43 259.71 114.11 C 259.77 116.54 260.02 119.02 259.27 121.39 C 256.42 121.43 253.58 121.43 250.73 121.42 Z" />
<path fill="#fffcfb" d=" M 264.77 121.43 C 263.29 119.35 262.85 115.58 264.89 113.78 C 267.80 113.66 270.82 113.31 273.65 114.18 C 273.66 116.57 273.93 119.02 273.25 121.34 C 270.42 121.43 267.59 121.42 264.77 121.43 Z" />
<path fill="#cc5432" d=" M 54.54 125.24 C 56.23 127.85 56.40 131.01 56.96 133.99 C 60.48 134.01 63.99 133.91 67.50 133.80 C 71.57 133.73 75.63 133.72 79.69 133.82 C 83.58 134.00 87.46 133.85 91.35 133.71 C 94.96 133.69 98.58 133.80 102.19 133.75 C 101.83 134.95 101.49 136.16 101.16 137.37 C 98.49 138.02 95.75 138.26 93.01 138.14 C 82.33 137.78 71.63 138.38 60.96 137.89 C 58.87 138.05 57.46 136.52 56.15 135.17 C 56.09 135.70 55.97 136.75 55.91 137.27 L 55.82 138.08 C 55.81 133.75 54.79 129.54 54.54 125.24 Z" />
<path fill="#b25840" d=" M 102.19 133.75 C 102.57 133.74 103.33 133.72 103.71 133.70 C 103.70 135.85 103.83 138.69 101.21 139.39 C 87.15 139.66 73.08 139.43 59.01 139.50 C 57.43 139.59 56.39 138.85 55.91 137.27 C 55.97 136.75 56.09 135.70 56.15 135.17 C 57.46 136.52 58.87 138.05 60.96 137.89 C 71.63 138.38 82.33 137.78 93.01 138.14 C 95.75 138.26 98.49 138.02 101.16 137.37 C 101.49 136.16 101.83 134.95 102.19 133.75 Z" />
<path fill="#cecece" d=" M 108.13 175.48 C 110.59 174.77 112.99 173.36 115.61 173.44 C 117.76 173.56 117.83 176.14 118.60 177.65 L 118.46 177.92 C 115.89 183.89 114.34 190.24 112.23 196.37 L 112.16 196.60 C 108.20 198.18 104.20 199.70 100.05 200.69 C 102.38 192.41 105.10 184.24 107.90 176.11 L 108.13 175.48 Z" />
<path fill="#525e65" d=" M 96.99 179.81 C 100.60 178.49 104.18 177.08 107.90 176.11 C 105.10 184.24 102.38 192.41 100.05 200.69 C 97.06 201.74 94.11 202.87 91.09 203.84 L 89.51 204.29 C 91.76 196.05 94.91 188.09 96.99 179.81 Z" />
<path fill="#535e67" d=" M 112.23 196.37 C 114.34 190.24 115.89 183.89 118.46 177.92 C 120.08 182.75 121.73 187.57 123.56 192.33 C 119.81 193.75 116.06 195.18 112.23 196.37 Z" />
<path fill="#cececf" d=" M 85.10 184.10 C 88.61 181.78 93.00 181.09 96.99 179.81 C 94.91 188.09 91.76 196.05 89.51 204.29 L 91.09 203.84 C 89.64 205.09 87.70 205.38 85.95 206.01 C 83.11 206.83 80.45 208.53 77.40 208.31 C 79.58 200.13 82.22 192.06 85.10 184.10 Z" />
<path fill="#e5bc8d" d=" M 360.99 181.65 C 373.69 178.05 387.77 179.16 399.50 185.36 C 413.68 192.43 423.85 206.49 426.86 221.96 C 427.21 224.00 427.30 226.11 428.06 228.07 L 427.28 228.13 L 427.91 228.54 C 427.70 231.19 427.67 233.85 427.66 236.51 C 426.51 248.01 421.66 259.21 413.59 267.54 C 403.57 278.36 388.67 284.55 373.92 283.81 C 358.56 283.65 343.70 275.80 334.31 263.74 C 327.33 254.36 323.13 242.72 323.47 230.97 C 323.43 208.64 339.56 187.67 360.99 181.65 Z" />
<path fill="#535d66" d=" M 74.33 187.72 C 77.92 186.53 81.46 185.15 85.10 184.10 C 82.22 192.06 79.58 200.13 77.40 208.31 L 77.29 208.74 C 74.12 209.91 70.92 211.04 67.73 212.18 L 66.49 212.31 C 69.12 204.19 71.77 196.07 74.28 187.90 L 74.33 187.72 Z" />
<path fill="#fee4c1" d=" M 350.34 191.21 C 367.45 179.91 392.10 181.98 407.22 195.80 C 410.34 198.42 412.96 201.56 415.20 204.95 C 414.33 205.48 413.47 206.01 412.60 206.54 C 408.27 203.12 402.13 201.88 397.01 204.21 C 393.52 206.13 390.95 209.45 390.13 213.36 C 389.53 216.15 390.03 219.04 391.15 221.64 C 388.71 222.77 386.29 223.95 383.89 225.17 C 380.34 221.21 373.84 219.94 369.51 223.38 C 365.24 226.30 364.21 232.29 366.37 236.83 C 364.09 238.31 361.99 240.06 360.23 242.13 C 358.27 238.06 354.34 235.14 349.89 234.41 C 346.85 234.25 343.85 234.91 341.16 236.32 C 337.11 239.23 335.09 244.20 334.75 249.05 C 335.41 252.09 337.35 254.63 338.94 257.24 C 337.50 256.84 336.04 256.53 334.59 256.22 C 328.10 245.39 325.85 231.85 329.43 219.66 C 332.43 207.99 339.89 197.33 350.34 191.21 Z" />
<path fill="#c4a141" d=" M 181.75 185.74 C 184.89 184.96 188.56 185.39 190.66 188.09 C 193.14 190.47 193.23 194.30 192.33 197.40 C 190.89 199.69 188.59 201.26 186.82 203.28 C 186.33 203.32 185.34 203.39 184.84 203.43 C 186.43 199.49 191.03 196.30 189.55 191.60 C 189.03 187.69 184.83 186.84 181.75 185.74 Z" />
<path fill="#deb44e" d=" M 261.55 189.65 C 264.08 186.40 268.06 184.50 272.17 185.59 C 270.80 185.82 269.44 186.04 268.08 186.24 C 271.05 187.18 274.20 188.80 274.95 192.13 C 275.91 196.12 272.57 199.22 269.80 201.51 C 269.78 202.02 269.75 203.06 269.73 203.58 C 268.49 203.53 267.25 203.46 266.02 203.36 C 265.89 200.58 262.84 199.77 261.62 197.62 C 260.81 195.02 261.30 192.29 261.55 189.65 Z" />
<path fill="#deb44e" d=" M 177.85 188.81 C 178.82 187.42 180.37 186.65 181.75 185.74 C 184.83 186.84 189.03 187.69 189.55 191.60 C 191.03 196.30 186.43 199.49 184.84 203.43 C 184.28 203.48 183.15 203.58 182.59 203.63 C 182.69 202.50 182.27 201.73 181.33 201.33 C 176.12 199.89 174.49 192.73 177.85 188.81 Z" />
<path fill="#bd9b4d" d=" M 268.08 186.24 C 269.44 186.04 270.80 185.82 272.17 185.59 C 277.06 187.57 279.41 194.02 276.45 198.48 C 275.37 200.39 272.43 200.81 272.26 203.24 C 271.63 203.32 270.36 203.49 269.73 203.58 C 269.75 203.06 269.78 202.02 269.80 201.51 C 272.57 199.22 275.91 196.12 274.95 192.13 C 274.20 188.80 271.05 187.18 268.08 186.24 Z" />
<path fill="#fffdf1" d=" M 362.17 199.20 C 363.00 190.59 373.09 184.48 381.04 187.96 C 385.03 190.59 388.84 194.47 388.87 199.57 C 380.69 196.39 371.41 196.24 363.17 199.29 L 362.17 199.20 Z" />
<path fill="#cdcece" d=" M 60.18 192.79 C 64.70 190.71 69.40 188.91 74.28 187.90 C 71.77 196.07 69.12 204.19 66.49 212.31 L 67.73 212.18 C 63.41 214.16 58.85 215.63 54.27 216.90 C 56.68 208.71 59.27 200.56 62.04 192.49 C 61.57 192.56 60.65 192.71 60.18 192.79 Z" />
<path fill="#535d65" d=" M 51.46 195.78 C 54.41 194.90 57.23 193.64 60.18 192.79 C 60.65 192.71 61.57 192.56 62.04 192.49 C 59.27 200.56 56.68 208.71 54.27 216.90 C 52.85 217.33 51.46 217.85 50.05 218.32 L 49.24 218.56 L 48.55 218.77 L 48.79 218.31 C 47.54 217.65 46.26 217.02 45.03 216.31 C 47.03 209.57 49.30 202.91 51.33 196.18 L 51.46 195.78 Z" />
<path fill="#cfcecd" d=" M 37.01 200.96 C 41.68 199.13 46.28 196.72 51.33 196.18 C 49.30 202.91 47.03 209.57 45.03 216.31 C 41.89 214.49 38.68 212.79 35.68 210.74 C 36.89 207.28 37.99 203.78 39.15 200.30 C 38.62 200.47 37.54 200.79 37.01 200.96 Z" />
<path fill="#353536" d=" M 363.17 199.29 C 371.41 196.24 380.69 196.39 388.87 199.57 C 388.85 202.72 387.91 205.77 386.03 208.31 C 379.77 204.67 371.53 204.75 365.32 208.45 C 363.42 205.86 362.54 202.76 362.27 199.59 L 363.17 199.29 Z" />
<path fill="#333431" d=" M 433.83 199.72 C 434.13 197.86 437.50 198.14 437.22 200.01 C 436.84 212.66 433.91 225.43 427.66 236.51 C 427.67 233.85 427.70 231.19 427.91 228.54 L 427.28 228.13 L 428.06 228.07 C 431.55 219.02 433.43 209.41 433.83 199.72 Z" />
<path fill="#535c63" d=" M 30.56 203.53 C 32.50 202.24 34.84 201.73 37.01 200.96 C 37.54 200.79 38.62 200.47 39.15 200.30 C 37.99 203.78 36.89 207.28 35.68 210.74 C 34.45 210.39 33.22 210.08 31.97 209.80 C 31.46 207.74 30.01 205.70 30.56 203.53 Z" />
<path fill="#b84120" d=" M 181.33 201.33 C 182.27 201.73 182.69 202.50 182.59 203.63 C 183.15 203.58 184.28 203.48 184.84 203.43 C 185.34 203.39 186.33 203.32 186.82 203.28 L 187.67 203.23 C 201.68 210.96 218.28 212.19 233.99 211.49 C 244.77 210.59 255.63 208.36 265.28 203.31 L 266.02 203.36 C 267.25 203.46 268.49 203.53 269.73 203.58 C 270.36 203.49 271.63 203.32 272.26 203.24 C 272.31 204.02 272.40 205.60 272.45 206.39 C 270.67 206.17 268.89 205.93 267.11 205.75 C 265.07 205.54 263.30 206.74 261.50 207.49 C 250.04 212.65 237.37 213.70 224.98 214.20 C 217.55 213.45 210.00 213.45 202.77 211.36 C 197.47 210.22 192.59 207.78 187.43 206.21 C 186.35 206.12 185.26 206.07 184.18 206.05 C 183.49 206.04 182.12 206.01 181.44 206.00 C 181.34 204.45 180.97 202.86 181.33 201.33 Z" />
<path fill="#fffdf1" d=" M 341.10 205.12 C 344.49 202.70 348.92 202.47 352.86 203.43 C 353.00 203.82 353.28 204.60 353.42 204.99 C 346.89 210.53 342.47 218.40 341.19 226.87 C 333.15 222.89 333.27 209.37 341.10 205.12 Z" />
<path fill="#fffdf0" d=" M 397.01 204.21 C 402.13 201.88 408.27 203.12 412.60 206.54 C 414.47 209.70 417.13 213.19 416.16 217.09 C 415.58 221.42 413.15 225.68 409.12 227.64 C 409.37 227.47 409.86 227.13 410.11 226.96 C 408.81 218.04 403.99 209.88 397.01 204.21 Z" />
<path fill="#c16e44" d=" M 261.50 207.49 C 263.30 206.74 265.07 205.54 267.11 205.75 C 266.52 206.33 265.93 206.90 265.35 207.47 C 264.27 208.65 262.70 209.09 261.29 209.71 C 251.02 213.68 240.01 215.63 229.01 215.71 C 215.65 215.98 201.90 214.35 189.65 208.79 C 188.88 207.95 188.16 207.08 187.43 206.21 C 192.59 207.78 197.47 210.22 202.77 211.36 C 210.00 213.45 217.55 213.45 224.98 214.20 C 237.37 213.70 250.04 212.65 261.50 207.49 Z" />
<path fill="#353535" d=" M 353.42 204.99 C 354.68 203.71 355.99 205.36 356.99 206.09 C 358.60 207.44 359.61 209.31 360.63 211.11 L 360.42 211.25 C 353.89 214.69 350.45 222.10 349.77 229.18 C 346.83 229.11 343.52 228.83 341.19 226.87 C 342.47 218.40 346.89 210.53 353.42 204.99 Z" />
<path fill="#363535" d=" M 390.13 213.36 C 390.95 209.45 393.52 206.13 397.01 204.21 C 403.99 209.88 408.81 218.04 410.11 226.96 C 409.86 227.13 409.37 227.47 409.12 227.64 C 406.88 228.68 404.42 229.08 401.98 229.17 C 400.54 222.87 398.15 216.38 392.77 212.39 C 391.87 212.68 390.99 213.01 390.13 213.36 Z" />
<path fill="#f9d6ac" d=" M 412.60 206.54 C 413.47 206.01 414.33 205.48 415.20 204.95 C 424.56 217.45 425.91 234.84 420.37 249.22 C 412.45 271.12 386.52 284.70 364.05 278.19 C 356.98 276.91 350.76 273.10 345.09 268.87 C 340.68 265.52 337.14 261.11 334.59 256.22 C 336.04 256.53 337.50 256.84 338.94 257.24 C 343.28 260.53 349.18 261.77 354.22 259.27 C 356.92 257.73 359.12 255.37 360.38 252.51 C 361.71 249.16 361.48 245.47 360.23 242.13 C 361.99 240.06 364.09 238.31 366.37 236.83 C 369.46 242.42 377.79 244.06 382.53 239.61 C 386.68 236.08 387.09 229.45 383.89 225.17 C 386.29 223.95 388.71 222.77 391.15 221.64 C 393.34 225.71 397.41 228.48 401.98 229.17 C 404.42 229.08 406.88 228.68 409.12 227.64 C 413.15 225.68 415.58 221.42 416.16 217.09 C 417.13 213.19 414.47 209.70 412.60 206.54 Z" />
<path fill="#d3b05c" d=" M 181.44 206.00 C 182.12 206.01 183.49 206.04 184.18 206.05 C 184.37 226.16 183.93 246.28 184.40 266.39 C 183.66 266.41 182.18 266.45 181.44 266.47 C 181.40 246.31 181.41 226.16 181.44 206.00 Z" />
<path fill="#c79d3e" d=" M 184.18 206.05 C 185.26 206.07 186.35 206.12 187.43 206.21 C 188.16 207.08 188.88 207.95 189.65 208.79 C 189.14 208.67 188.12 208.43 187.60 208.31 C 187.68 227.69 187.75 247.07 187.56 266.44 C 186.51 266.40 185.45 266.38 184.40 266.39 C 183.93 246.28 184.37 226.16 184.18 206.05 Z" />
<path fill="#d5ab4a" d=" M 265.35 207.47 C 265.93 206.90 266.52 206.33 267.11 205.75 C 268.89 205.93 270.67 206.17 272.45 206.39 C 272.38 226.38 272.57 246.38 272.36 266.37 C 270.38 266.33 268.39 266.33 266.41 266.39 C 266.20 247.92 266.40 229.44 266.32 210.96 C 266.41 209.67 266.09 208.51 265.35 207.47 Z" />
<path fill="#474845" d=" M 365.32 208.45 C 371.53 204.75 379.77 204.67 386.03 208.31 C 384.07 210.30 381.83 212.18 379.04 212.83 C 374.09 214.38 368.66 212.22 365.32 208.45 Z" />
<path fill="#747c84" d=" M 31.97 209.80 C 33.22 210.08 34.45 210.39 35.68 210.74 C 38.68 212.79 41.89 214.49 45.03 216.31 C 46.26 217.02 47.54 217.65 48.79 218.31 L 48.55 218.77 L 49.24 218.56 C 50.26 219.38 51.27 220.20 52.28 221.03 C 46.92 224.60 40.10 226.48 36.82 232.52 C 36.91 224.69 33.46 217.40 31.97 209.80 Z" />
<path fill="#474846" d=" M 349.77 229.18 C 350.45 222.10 353.89 214.69 360.42 211.25 C 364.01 218.97 357.88 228.11 349.77 229.18 Z" />
<path fill="#494748" d=" M 392.77 212.39 C 398.15 216.38 400.54 222.87 401.98 229.17 C 397.41 228.48 393.34 225.71 391.15 221.64 C 390.03 219.04 389.53 216.15 390.13 213.36 C 390.99 213.01 391.87 212.68 392.77 212.39 Z" />
<path fill="#ccd3d9" d=" M 41.06 222.78 C 37.99 221.88 38.07 218.29 40.97 217.24 C 43.82 218.24 43.91 221.71 41.06 222.78 Z" />
<path fill="#cecdce" d=" M 49.24 218.56 L 50.05 218.32 C 53.18 219.21 56.46 218.78 59.65 219.24 C 55.24 225.70 50.26 231.74 45.66 238.07 C 45.13 238.71 44.61 239.35 44.10 240.01 C 42.56 239.95 41.03 239.91 39.50 239.87 C 38.92 239.85 37.76 239.80 37.18 239.77 C 36.67 237.55 36.46 235.27 36.46 232.99 L 36.82 232.52 C 40.10 226.48 46.92 224.60 52.28 221.03 C 51.27 220.20 50.26 219.38 49.24 218.56 Z" />
<path fill="#535d65" d=" M 59.65 219.24 C 63.49 219.32 67.34 219.14 71.18 219.41 C 65.58 225.95 60.71 233.09 55.41 239.87 C 52.35 239.91 49.29 240.12 46.24 239.81 C 46.10 239.38 45.81 238.50 45.66 238.07 C 50.26 231.74 55.24 225.70 59.65 219.24 Z" />
<path fill="#cecece" d=" M 71.18 219.41 L 71.66 218.86 C 75.72 218.95 79.80 218.67 83.83 219.29 C 79.03 226.45 73.50 233.10 68.39 240.04 C 64.07 239.89 59.73 240.16 55.41 239.87 C 60.71 233.09 65.58 225.95 71.18 219.41 Z" />
<path fill="#525d65" d=" M 83.83 219.29 C 87.70 219.29 91.57 219.23 95.44 219.32 C 89.90 225.91 85.14 233.11 79.61 239.71 C 75.89 240.17 72.13 240.69 68.39 240.04 C 73.50 233.10 79.03 226.45 83.83 219.29 Z" />
<path fill="#cdcecd" d=" M 95.44 219.32 L 95.77 218.92 C 99.92 219.00 104.12 218.43 108.24 219.20 C 103.48 226.15 97.98 232.56 93.31 239.57 C 88.78 240.36 84.17 240.14 79.61 239.71 C 85.14 233.11 89.90 225.91 95.44 219.32 Z" />
<path fill="#545d66" d=" M 108.24 219.20 C 112.03 219.32 115.83 219.23 119.63 219.29 C 114.30 226.08 109.12 232.99 103.96 239.91 C 100.40 240.34 96.87 239.58 93.31 239.57 C 97.98 232.56 103.48 226.15 108.24 219.20 Z" />
<path fill="#cdcece" d=" M 119.63 219.29 C 122.64 218.42 126.00 219.01 129.14 218.85 C 129.12 220.50 129.11 222.14 129.08 223.79 L 128.85 224.11 C 125.22 229.11 121.47 234.01 117.79 238.97 C 117.07 240.21 115.45 239.79 114.29 240.04 C 110.85 240.08 107.41 239.89 103.96 239.91 C 109.12 232.99 114.30 226.08 119.63 219.29 Z" />
<path fill="#916741" d=" M 369.51 223.38 C 373.84 219.94 380.34 221.21 383.89 225.17 C 387.09 229.45 386.68 236.08 382.53 239.61 C 377.79 244.06 369.46 242.42 366.37 236.83 C 364.21 232.29 365.24 226.30 369.51 223.38 Z" />
<path fill="#535e66" d=" M 117.79 238.97 C 121.47 234.01 125.22 229.11 128.85 224.11 C 128.75 228.72 129.01 233.34 128.77 237.95 C 128.58 239.20 127.12 239.62 126.35 240.47 C 126.45 254.96 126.34 269.46 126.41 283.95 C 126.61 285.56 126.03 287.04 125.34 288.47 C 98.23 289.00 71.09 288.52 43.96 288.71 C 42.20 288.88 39.38 288.38 39.58 286.03 C 39.61 270.79 39.23 255.51 39.78 240.29 C 40.41 241.78 41.17 243.28 41.03 244.96 C 41.06 258.99 40.78 273.03 41.16 287.06 C 46.12 286.35 49.10 281.72 53.55 279.81 C 53.45 279.25 53.26 278.13 53.16 277.57 C 74.07 277.52 94.97 277.65 115.88 277.50 C 115.87 276.93 115.85 275.78 115.84 275.20 C 98.11 275.01 80.37 275.16 62.64 275.13 C 62.66 274.69 62.69 273.81 62.71 273.37 C 65.62 271.16 68.74 269.22 71.45 266.76 C 64.58 265.15 57.44 266.82 50.49 265.81 L 50.24 265.16 C 72.10 265.10 93.98 265.36 115.82 264.93 C 115.83 264.34 115.84 263.18 115.84 262.59 C 103.09 262.49 90.34 262.60 77.59 262.52 C 82.28 259.80 87.24 257.10 90.57 252.69 C 98.99 252.59 107.41 252.75 115.83 252.59 C 115.86 252.04 115.93 250.92 115.97 250.36 C 109.50 250.10 103.03 250.29 96.55 250.23 C 101.99 246.14 107.07 240.51 114.29 240.04 C 115.45 239.79 117.07 240.21 117.79 238.97 Z" />
<path fill="#542e14" d=" M 372.35 227.42 C 375.45 224.92 380.59 227.00 381.08 230.97 C 382.01 235.11 376.91 238.73 373.27 236.71 C 369.65 235.23 369.24 229.67 372.35 227.42 Z" />
<path fill="#353535" d=" M 341.16 236.32 C 343.85 234.91 346.85 234.25 349.89 234.41 C 349.83 235.80 349.56 237.22 349.85 238.61 C 351.99 244.12 355.49 249.09 360.38 252.51 C 359.12 255.37 356.92 257.73 354.22 259.27 C 347.24 253.54 342.35 245.32 341.16 236.32 Z" />
<path fill="#484847" d=" M 349.89 234.41 C 354.34 235.14 358.27 238.06 360.23 242.13 C 361.48 245.47 361.71 249.16 360.38 252.51 C 355.49 249.09 351.99 244.12 349.85 238.61 C 349.56 237.22 349.83 235.80 349.89 234.41 Z" />
<path fill="#484748" d=" M 390.46 251.55 C 388.05 243.98 393.57 235.69 401.30 234.46 C 402.07 238.87 399.24 242.60 397.25 246.26 C 395.67 248.70 393.87 251.98 390.46 251.55 Z" />
<path fill="#353634" d=" M 401.30 234.46 C 404.29 234.25 407.15 235.14 409.93 236.16 L 409.85 236.96 C 409.13 244.64 404.91 251.49 399.76 257.03 C 405.80 254.24 411.35 250.44 416.19 245.88 C 416.24 248.33 416.32 251.14 413.90 252.56 C 410.08 255.37 406.04 257.88 401.76 259.95 C 396.69 261.04 392.21 255.97 390.46 251.55 C 393.87 251.98 395.67 248.70 397.25 246.26 C 399.24 242.60 402.07 238.87 401.30 234.46 Z" />
<path fill="#fffdf2" d=" M 334.75 249.05 C 335.09 244.20 337.11 239.23 341.16 236.32 C 342.35 245.32 347.24 253.54 354.22 259.27 C 349.18 261.77 343.28 260.53 338.94 257.24 C 337.35 254.63 335.41 252.09 334.75 249.05 Z" />
<path fill="#fcfcf5" d=" M 409.85 236.96 C 413.79 238.09 415.12 242.39 416.19 245.88 C 411.35 250.44 405.80 254.24 399.76 257.03 C 404.91 251.49 409.13 244.64 409.85 236.96 Z" />
<path fill="#5d6771" d=" M 44.10 240.01 C 44.61 239.35 45.13 238.71 45.66 238.07 C 45.81 238.50 46.10 239.38 46.24 239.81 C 49.29 240.12 52.35 239.91 55.41 239.87 C 59.73 240.16 64.07 239.89 68.39 240.04 C 72.13 240.69 75.89 240.17 79.61 239.71 C 84.17 240.14 88.78 240.36 93.31 239.57 C 96.87 239.58 100.40 240.34 103.96 239.91 C 107.41 239.89 110.85 240.08 114.29 240.04 C 107.07 240.51 101.99 246.14 96.55 250.23 C 81.03 250.26 65.51 250.18 49.99 250.27 C 50.02 250.86 50.08 252.05 50.12 252.64 C 63.60 252.69 77.09 252.62 90.57 252.69 C 87.24 257.10 82.28 259.80 77.59 262.52 C 68.43 262.60 59.27 262.49 50.10 262.56 C 50.14 263.21 50.21 264.51 50.24 265.16 L 50.49 265.81 C 57.44 266.82 64.58 265.15 71.45 266.76 C 68.74 269.22 65.62 271.16 62.71 273.37 C 62.69 273.81 62.66 274.69 62.64 275.13 C 58.33 275.13 54.03 275.11 49.73 275.20 C 49.83 275.78 50.04 276.94 50.14 277.52 C 50.90 277.53 52.41 277.56 53.16 277.57 C 53.26 278.13 53.45 279.25 53.55 279.81 C 49.10 281.72 46.12 286.35 41.16 287.06 C 40.78 273.03 41.06 258.99 41.03 244.96 C 41.17 243.28 40.41 241.78 39.78 240.29 L 39.50 239.87 C 41.03 239.91 42.56 239.95 44.10 240.01 Z" />
<path fill="#d2d7dd" d=" M 49.99 250.27 C 65.51 250.18 81.03 250.26 96.55 250.23 C 103.03 250.29 109.50 250.10 115.97 250.36 C 115.93 250.92 115.86 252.04 115.83 252.59 C 107.41 252.75 98.99 252.59 90.57 252.69 C 77.09 252.62 63.60 252.69 50.12 252.64 C 50.08 252.05 50.02 250.86 49.99 250.27 Z" />
<path fill="#474747" d=" M 364.96 255.71 C 369.92 248.77 381.30 248.51 386.21 255.65 C 379.50 258.59 371.69 258.61 364.96 255.71 Z" />
<path fill="#f8f2e2" d=" M 401.76 259.95 C 406.04 257.88 410.08 255.37 413.90 252.56 L 415.35 252.44 C 413.13 257.82 407.26 261.39 401.51 261.26 L 401.76 259.95 Z" />
<path fill="#353534" d=" M 364.96 255.71 C 371.69 258.61 379.50 258.59 386.21 255.65 C 388.11 258.13 388.73 261.22 388.76 264.28 L 387.83 264.52 C 380.13 266.88 371.69 267.39 364.05 264.49 C 363.63 264.35 362.80 264.06 362.38 263.92 C 362.64 261.02 363.43 258.20 364.96 255.71 Z" />
<path fill="#d5d9dc" d=" M 50.10 262.56 C 59.27 262.49 68.43 262.60 77.59 262.52 C 90.34 262.60 103.09 262.49 115.84 262.59 C 115.84 263.18 115.83 264.34 115.82 264.93 C 93.98 265.36 72.10 265.10 50.24 265.16 C 50.21 264.51 50.14 263.21 50.10 262.56 Z" />
<path fill="#fefdf2" d=" M 362.50 265.91 C 362.88 265.56 363.66 264.85 364.05 264.49 C 371.69 267.39 380.13 266.88 387.83 264.52 L 388.88 264.71 C 387.84 269.05 385.38 273.65 380.94 275.24 C 377.00 276.95 372.07 277.12 368.50 274.47 C 365.48 272.50 363.73 269.20 362.50 265.91 Z" />
<path fill="#555f68" d=" M 176.95 272.00 C 178.50 270.17 177.98 265.90 181.44 266.47 C 182.18 266.45 183.66 266.41 184.40 266.39 C 185.45 266.38 186.51 266.40 187.56 266.44 C 190.13 266.07 190.83 268.97 191.29 270.87 C 192.68 272.51 193.41 274.50 192.90 276.66 C 187.29 276.56 181.69 276.63 176.08 276.65 C 176.12 275.07 175.61 273.18 176.95 272.00 Z" />
<path fill="#565f68" d=" M 262.72 271.08 C 262.50 268.85 263.76 266.03 266.41 266.39 C 268.39 266.33 270.38 266.33 272.36 266.37 C 274.94 266.04 275.71 269.03 276.20 270.95 C 277.79 272.49 277.91 274.57 277.71 276.68 C 272.10 276.58 266.48 276.60 260.88 276.67 C 260.87 275.39 260.87 274.10 260.87 272.82 C 261.48 272.24 262.10 271.66 262.72 271.08 Z" />
<path fill="#d3d7da" d=" M 49.73 275.20 C 54.03 275.11 58.33 275.13 62.64 275.13 C 80.37 275.16 98.11 275.01 115.84 275.20 C 115.85 275.78 115.87 276.93 115.88 277.50 C 94.97 277.65 74.07 277.52 53.16 277.57 C 52.41 277.56 50.90 277.53 50.14 277.52 C 50.04 276.94 49.83 275.78 49.73 275.20 Z" />
<path fill="#f7c695" d=" M 39.59 325.87 C 48.47 322.84 58.19 327.20 63.45 334.58 C 63.74 334.59 64.31 334.62 64.60 334.63 C 68.82 328.37 76.48 324.44 84.07 325.23 C 88.60 325.22 92.62 327.60 96.28 330.01 C 101.26 334.88 104.44 341.93 103.42 348.99 C 102.67 354.98 98.87 360.19 94.13 363.75 C 95.84 364.04 97.55 364.37 99.25 364.74 C 96.76 365.14 94.25 365.33 91.74 365.13 C 91.23 364.93 90.22 364.53 89.72 364.33 C 93.67 362.26 97.52 359.54 99.48 355.38 C 102.49 349.95 102.39 343.27 99.95 337.65 C 96.75 332.60 91.76 328.13 85.67 327.21 C 77.47 325.75 68.59 330.25 65.06 337.82 C 65.28 338.30 65.71 339.25 65.92 339.73 C 66.15 340.49 66.37 341.25 66.59 342.02 C 66.65 344.77 66.66 347.52 66.67 350.27 C 66.42 351.12 66.17 351.98 65.93 352.84 C 65.74 353.36 65.37 354.42 65.19 354.94 C 67.12 359.39 71.08 362.51 75.41 364.47 C 67.81 364.91 60.17 364.97 52.57 364.46 C 63.57 360.50 68.90 345.61 62.01 335.95 C 58.23 329.94 51.02 326.32 43.93 327.02 C 35.14 327.67 27.35 335.20 26.54 344.01 C 25.89 348.52 27.33 353.03 29.55 356.91 C 31.70 360.54 35.24 363.10 39.16 364.51 C 37.08 364.65 35.00 364.78 32.94 365.10 C 32.77 362.24 29.87 361.03 28.52 358.81 C 26.34 355.24 24.45 351.25 24.51 346.98 C 23.97 337.62 30.59 328.43 39.59 325.87 Z" />
<path fill="#ec7252" d=" M 26.54 344.01 C 27.35 335.20 35.14 327.67 43.93 327.02 C 51.02 326.32 58.23 329.94 62.01 335.95 L 60.45 335.68 C 58.54 335.17 56.58 333.98 54.61 334.98 C 53.59 335.62 52.64 336.35 51.76 337.18 C 51.29 339.16 51.17 341.23 50.40 343.15 C 47.80 342.54 44.20 340.34 42.17 343.17 C 41.31 345.70 40.67 348.29 39.89 350.84 C 38.00 348.03 34.73 346.43 31.49 348.02 C 28.78 350.38 28.96 354.20 31.10 356.87 L 29.55 356.91 C 27.33 353.03 25.89 348.52 26.54 344.01 Z" />
<path fill="#ef7154" d=" M 65.06 337.82 C 68.59 330.25 77.47 325.75 85.67 327.21 C 91.76 328.13 96.75 332.60 99.95 337.65 L 98.59 338.15 C 97.01 335.70 94.32 333.42 91.27 335.02 L 90.87 335.21 C 88.05 336.50 88.29 339.72 88.39 342.34 C 85.18 342.77 80.82 340.20 78.70 343.66 C 77.84 345.91 77.23 348.25 76.56 350.56 C 74.70 347.85 71.27 346.56 68.21 348.05 C 67.83 348.61 67.06 349.72 66.67 350.27 C 66.66 347.52 66.65 344.77 66.59 342.02 C 66.99 342.56 67.80 343.65 68.20 344.19 C 69.13 344.62 70.06 345.03 71.00 345.44 C 72.76 344.48 75.29 344.13 76.03 341.99 C 77.31 339.46 76.01 336.20 73.53 334.96 C 69.93 333.36 66.46 336.17 65.92 339.73 C 65.71 339.25 65.28 338.30 65.06 337.82 Z" />
<path fill="#fafffa" d=" M 40.08 332.70 C 41.22 330.85 42.55 328.37 45.06 328.33 C 48.00 327.73 50.51 330.15 50.89 332.94 C 48.07 332.24 45.15 331.97 42.28 332.48 L 40.08 332.70 Z" />
<path fill="#f4faf8" d=" M 77.02 333.01 C 77.62 330.68 79.38 328.20 82.06 328.35 C 84.86 327.72 86.61 330.45 87.89 332.46 C 86.20 332.22 84.52 332.14 82.82 332.21 C 80.85 332.14 78.92 332.56 77.02 333.01 Z" />
<path fill="#343c39" d=" M 42.28 332.48 C 45.15 331.97 48.07 332.24 50.89 332.94 C 51.08 336.43 47.42 339.76 43.99 338.21 C 41.78 337.65 40.73 335.58 40.18 333.57 C 40.71 333.29 41.76 332.75 42.28 332.48 Z" />
<path fill="#3b3b38" d=" M 77.02 333.01 C 78.92 332.56 80.85 332.14 82.82 332.21 C 84.45 332.93 86.26 332.99 87.92 333.61 C 87.76 335.79 85.95 337.04 84.53 338.43 C 80.87 339.59 76.98 336.90 77.02 333.01 Z" />
<path fill="#f8f9f4" d=" M 31.48 344.10 C 26.37 341.00 31.62 331.56 36.54 335.51 C 33.84 337.66 32.50 340.91 31.48 344.10 Z" />
<path fill="#3c3a39" d=" M 36.54 335.51 C 36.82 335.44 37.39 335.31 37.67 335.24 C 39.55 337.01 40.23 339.80 39.30 342.23 C 37.67 344.70 33.99 346.24 31.48 344.10 C 32.50 340.91 33.84 337.66 36.54 335.51 Z" />
<path fill="#fff6f3" d=" M 54.61 334.98 C 56.58 333.98 58.54 335.17 60.45 335.68 C 62.01 338.24 62.64 342.13 59.76 344.04 C 58.87 340.60 57.05 337.55 54.61 334.98 Z" />
<path fill="#fefef2" d=" M 65.92 339.73 C 66.46 336.17 69.93 333.36 73.53 334.96 C 70.97 337.53 69.06 340.64 68.20 344.19 C 67.80 343.65 66.99 342.56 66.59 342.02 C 66.37 341.25 66.15 340.49 65.92 339.73 Z" />
<path fill="#3c3c41" d=" M 73.53 334.96 C 76.01 336.20 77.31 339.46 76.03 341.99 C 75.29 344.13 72.76 344.48 71.00 345.44 C 70.06 345.03 69.13 344.62 68.20 344.19 C 69.06 340.64 70.97 337.53 73.53 334.96 Z" />
<path fill="#3b383b" d=" M 88.39 342.34 C 88.29 339.72 88.05 336.50 90.87 335.21 L 91.27 335.02 C 93.85 337.58 95.62 340.76 96.61 344.25 C 93.68 345.44 90.54 344.53 88.39 342.34 Z" />
<path fill="#f7f9ed" d=" M 91.27 335.02 C 94.32 333.42 97.01 335.70 98.59 338.15 C 98.64 340.37 98.26 342.63 96.61 344.25 C 95.62 340.76 93.85 337.58 91.27 335.02 Z" />
<path fill="#37383b" d=" M 51.76 337.18 C 52.64 336.35 53.59 335.62 54.61 334.98 C 57.05 337.55 58.87 340.60 59.76 344.04 C 59.06 344.42 57.65 345.19 56.95 345.58 C 53.55 344.20 50.58 341.16 51.76 337.18 Z" />
<path fill="#d65b40" d=" M 60.45 335.68 L 62.01 335.95 C 68.90 345.61 63.57 360.50 52.57 364.46 C 50.54 364.61 48.48 364.62 46.46 364.30 C 48.72 363.49 50.55 361.78 50.95 359.35 C 50.66 357.49 49.75 355.87 48.64 354.39 C 46.56 354.56 43.89 353.44 42.29 355.23 C 40.74 356.46 39.69 358.65 40.75 360.53 C 41.06 362.01 42.63 362.82 43.57 363.89 C 42.10 364.11 40.65 364.42 39.16 364.51 C 35.24 363.10 31.70 360.54 29.55 356.91 L 31.10 356.87 C 33.01 357.56 35.01 357.83 37.04 357.60 C 39.05 355.85 39.61 353.36 39.89 350.84 C 40.67 348.29 41.31 345.70 42.17 343.17 C 44.20 340.34 47.80 342.54 50.40 343.15 C 51.17 341.23 51.29 339.16 51.76 337.18 C 50.58 341.16 53.55 344.20 56.95 345.58 C 57.65 345.19 59.06 344.42 59.76 344.04 C 62.64 342.13 62.01 338.24 60.45 335.68 Z" />
<path fill="#d55b41" d=" M 98.59 338.15 L 99.95 337.65 C 102.39 343.27 102.49 349.95 99.48 355.38 C 97.52 359.54 93.67 362.26 89.72 364.33 C 89.04 364.44 88.37 364.54 87.69 364.62 C 86.23 364.57 84.78 364.42 83.34 364.29 C 85.48 363.39 86.85 361.54 88.01 359.62 L 86.25 359.84 C 86.67 359.43 87.51 358.62 87.93 358.21 C 87.04 356.95 86.16 355.70 85.28 354.45 C 82.48 354.11 79.41 353.98 77.49 356.45 C 77.43 357.18 77.30 358.65 77.24 359.38 C 77.26 361.57 78.90 363.02 80.65 364.05 C 78.91 364.20 77.16 364.39 75.41 364.47 C 71.08 362.51 67.12 359.39 65.19 354.94 C 65.37 354.42 65.74 353.36 65.93 352.84 C 66.16 356.53 70.33 358.67 73.65 357.46 C 76.06 355.89 76.56 353.24 76.56 350.56 C 77.23 348.25 77.84 345.91 78.70 343.66 C 80.82 340.20 85.18 342.77 88.39 342.34 C 90.54 344.53 93.68 345.44 96.61 344.25 C 98.26 342.63 98.64 340.37 98.59 338.15 Z" />
<path fill="#da5941" d=" M 271.67 338.96 C 272.78 338.49 273.89 338.01 275.00 337.53 C 277.47 338.16 280.09 340.00 279.75 342.89 C 279.87 367.58 279.78 392.27 279.80 416.96 C 279.84 419.15 279.74 421.35 279.20 423.49 L 278.35 423.56 C 275.81 423.60 272.49 424.58 270.82 422.01 C 270.23 418.36 270.61 414.65 270.55 410.98 C 270.51 390.01 270.61 369.03 270.53 348.06 C 270.47 344.99 270.95 341.94 271.67 338.96 Z" />
<path fill="#a08565" d=" M 269.40 340.38 C 270.15 339.91 270.91 339.43 271.67 338.96 C 270.95 341.94 270.47 344.99 270.53 348.06 C 270.61 369.03 270.51 390.01 270.55 410.98 C 270.61 414.65 270.23 418.36 270.82 422.01 C 272.49 424.58 275.81 423.60 278.35 423.56 C 276.01 426.89 271.95 424.55 269.39 422.79 C 269.47 408.59 269.39 394.40 269.42 380.20 C 269.51 366.97 269.48 353.74 269.40 340.51 L 269.40 340.38 Z" />
<path fill="#60c69e" d=" M 228.56 354.20 C 242.16 349.63 255.65 344.55 269.40 340.51 C 269.48 353.74 269.51 366.97 269.42 380.20 C 239.85 379.94 210.27 380.35 180.70 379.97 C 180.58 376.95 180.52 373.91 179.72 370.98 L 179.67 370.77 C 181.84 370.08 183.98 369.28 186.12 368.50 C 187.31 368.10 188.50 367.72 189.69 367.33 C 199.77 363.94 209.80 360.39 219.91 357.08 C 221.65 356.51 223.28 355.67 224.93 354.88 C 226.14 354.64 227.34 354.37 228.56 354.20 Z" />
<path fill="#dfbb9c" d=" M 351.89 344.94 C 353.20 343.76 354.50 341.43 356.59 342.36 C 360.58 344.63 364.27 347.39 368.19 349.79 C 370.30 350.75 371.11 353.65 369.53 355.45 C 367.13 357.76 363.43 356.45 361.03 354.82 C 359.23 353.92 356.74 352.02 354.90 353.85 C 348.09 362.77 340.86 371.38 334.31 380.50 C 328.71 381.49 323.02 381.23 317.41 380.53 C 329.18 368.93 340.31 356.72 351.89 344.94 Z" />
<path fill="#e0bb9b" d=" M 389.78 342.82 C 390.76 342.05 392.18 342.01 393.16 342.81 C 405.12 354.90 416.69 367.38 428.68 379.44 C 424.35 382.68 418.38 380.61 413.38 380.61 C 409.50 376.13 406.16 371.23 402.31 366.73 C 398.45 362.15 395.42 356.79 390.92 352.81 C 387.09 353.31 384.14 357.49 379.96 356.54 C 378.11 356.24 377.31 354.44 376.56 352.98 C 377.20 351.88 377.69 350.60 378.88 349.96 C 382.53 347.60 386.06 345.06 389.78 342.82 Z" />
<path fill="#4e2f11" d=" M 43.45 343.53 C 44.37 343.56 46.21 343.63 47.13 343.66 C 47.52 344.25 48.29 345.42 48.68 346.00 C 48.34 346.64 47.68 347.92 47.35 348.56 C 46.35 348.54 44.35 348.51 43.35 348.50 C 43.37 346.83 43.41 345.18 43.45 343.53 Z" />
<path fill="#54340e" d=" M 79.21 345.84 C 80.45 344.01 82.37 343.16 84.59 343.50 C 84.58 345.17 84.57 346.83 84.56 348.51 C 83.62 348.52 81.75 348.56 80.81 348.58 C 80.41 347.89 79.61 346.53 79.21 345.84 Z" />
<path fill="#d25a47" d=" M 186.35 356.03 C 187.42 350.33 193.21 346.08 198.96 346.48 C 205.34 346.50 211.73 346.41 218.11 346.57 C 222.80 346.76 226.57 350.16 228.56 354.20 C 227.34 354.37 226.14 354.64 224.93 354.88 C 222.97 353.00 221.06 350.29 218.02 350.39 C 212.69 350.14 207.34 350.39 202.00 350.27 C 198.79 350.31 194.99 349.86 192.57 352.46 C 188.49 356.30 189.89 362.35 189.69 367.33 C 188.50 367.72 187.31 368.10 186.12 368.50 C 185.75 364.36 185.63 360.15 186.35 356.03 Z" />
<path fill="#3a3c37" d=" M 31.49 348.02 C 34.73 346.43 38.00 348.03 39.89 350.84 C 39.61 353.36 39.05 355.85 37.04 357.60 C 34.33 354.97 32.28 351.74 31.49 348.02 Z" />
<path fill="#3b393b" d=" M 51.58 352.78 C 51.33 348.84 56.91 345.60 59.79 348.70 C 58.68 352.03 56.92 355.08 54.38 357.51 C 53.21 356.12 51.35 354.83 51.58 352.78 Z" />
<path fill="#344136" d=" M 68.21 348.05 C 71.27 346.56 74.70 347.85 76.56 350.56 C 76.56 353.24 76.06 355.89 73.65 357.46 C 70.93 354.92 69.02 351.70 68.21 348.05 Z" />
<path fill="#3e383c" d=" M 88.40 352.99 C 87.68 348.73 93.23 346.22 96.55 348.21 C 95.75 351.28 94.28 354.11 92.15 356.48 C 90.00 357.75 88.31 354.82 88.40 352.99 Z" />
<path fill="#fff6ee" d=" M 31.10 356.87 C 28.96 354.20 28.78 350.38 31.49 348.02 C 32.28 351.74 34.33 354.97 37.04 357.60 C 35.01 357.83 33.01 357.56 31.10 356.87 Z" />
<path fill="#fffbe9" d=" M 59.79 348.70 L 60.09 348.04 C 61.87 350.39 62.78 354.10 60.27 356.29 C 58.82 358.10 56.39 357.71 54.38 357.51 C 56.92 355.08 58.68 352.03 59.79 348.70 Z" />
<path fill="#fdfaed" d=" M 66.67 350.27 C 67.06 349.72 67.83 348.61 68.21 348.05 C 69.02 351.70 70.93 354.92 73.65 357.46 C 70.33 358.67 66.16 356.53 65.93 352.84 C 66.17 351.98 66.42 351.12 66.67 350.27 Z" />
<path fill="#fffef6" d=" M 96.55 348.21 C 98.82 350.18 99.30 353.89 97.18 356.16 C 96.00 357.74 93.90 357.65 92.15 357.89 C 92.15 357.54 92.15 356.83 92.15 356.48 C 94.28 354.11 95.75 351.28 96.55 348.21 Z" />
<path fill="#fffcf2" d=" M 192.57 352.46 C 194.99 349.86 198.79 350.31 202.00 350.27 C 207.34 350.39 212.69 350.14 218.02 350.39 C 221.06 350.29 222.97 353.00 224.93 354.88 C 223.28 355.67 221.65 356.51 219.91 357.08 C 209.80 360.39 199.77 363.94 189.69 367.33 C 189.89 362.35 188.49 356.30 192.57 352.46 Z" />
<path fill="#3b3939" d=" M 42.29 355.23 C 43.89 353.44 46.56 354.56 48.64 354.39 C 49.75 355.87 50.66 357.49 50.95 359.35 C 47.79 360.63 44.34 359.79 41.17 360.33 L 40.75 360.53 C 39.69 358.65 40.74 356.46 42.29 355.23 Z" />
<path fill="#3c3a34" d=" M 77.49 356.45 C 79.41 353.98 82.48 354.11 85.28 354.45 C 86.16 355.70 87.04 356.95 87.93 358.21 C 87.51 358.62 86.67 359.43 86.25 359.84 C 83.24 360.52 80.15 360.37 77.24 359.38 C 77.30 358.65 77.43 357.18 77.49 356.45 Z" />
<path fill="#f7fbe7" d=" M 64.11 357.13 C 66.00 359.60 68.37 361.67 70.28 364.15 C 66.17 364.60 62.02 364.58 57.91 364.18 C 59.43 361.40 61.95 359.39 64.11 357.13 Z" />
<path fill="#fffdf5" d=" M 41.17 360.33 C 44.34 359.79 47.79 360.63 50.95 359.35 C 50.55 361.78 48.72 363.49 46.46 364.30 C 45.49 364.17 44.53 364.03 43.57 363.89 C 42.63 362.82 41.06 362.01 40.75 360.53 L 41.17 360.33 Z" />
<path fill="#fdfff7" d=" M 77.24 359.38 C 80.15 360.37 83.24 360.52 86.25 359.84 L 88.01 359.62 C 86.85 361.54 85.48 363.39 83.34 364.29 C 82.44 364.21 81.55 364.14 80.65 364.05 C 78.90 363.02 77.26 361.57 77.24 359.38 Z" />
<path fill="#f07150" d=" M 39.16 364.51 C 40.65 364.42 42.10 364.11 43.57 363.89 C 44.53 364.03 45.49 364.17 46.46 364.30 C 48.48 364.62 50.54 364.61 52.57 364.46 C 60.17 364.97 67.81 364.91 75.41 364.47 C 77.16 364.39 78.91 364.20 80.65 364.05 C 81.55 364.14 82.44 364.21 83.34 364.29 C 84.78 364.42 86.23 364.57 87.69 364.62 C 88.37 364.54 89.04 364.44 89.72 364.33 C 90.22 364.53 91.23 364.93 91.74 365.13 C 94.66 366.47 97.92 366.40 101.05 366.81 C 99.79 368.42 98.47 369.99 97.14 371.56 C 94.65 370.08 91.99 368.53 88.98 368.65 C 80.01 368.55 71.03 368.63 62.05 368.57 C 59.37 368.49 56.69 368.85 54.13 369.62 C 51.43 370.99 49.44 373.80 49.59 376.91 C 49.53 383.27 49.43 389.63 49.57 395.99 C 49.50 400.04 53.68 402.40 57.05 403.52 C 53.11 404.67 49.05 406.86 47.10 410.63 C 44.88 409.53 42.57 407.82 39.95 408.64 C 38.26 409.40 36.89 410.67 35.53 411.89 C 35.05 414.34 35.18 416.92 34.38 419.30 C 33.11 420.71 31.32 421.51 29.74 422.53 C 28.36 419.53 29.30 416.18 28.95 413.02 C 28.72 403.68 28.90 394.33 28.86 384.99 C 29.40 378.95 28.52 372.82 29.67 366.84 C 30.69 366.12 31.78 365.54 32.94 365.10 C 35.00 364.78 37.08 364.65 39.16 364.51 Z" />
<path fill="#db5941" d=" M 91.74 365.13 C 94.25 365.33 96.76 365.14 99.25 364.74 C 101.03 365.71 103.32 366.73 103.52 369.06 C 103.87 372.04 103.59 375.04 103.61 378.03 C 103.70 388.71 103.22 399.41 103.97 410.06 L 103.93 410.42 C 103.31 414.14 103.90 417.91 103.57 421.64 C 102.97 424.17 100.63 425.97 98.04 426.03 C 89.03 426.46 80.01 425.48 71.00 426.15 C 61.66 425.73 52.30 426.10 42.96 426.00 C 38.29 425.33 32.27 427.56 29.14 422.89 L 29.74 422.53 C 31.32 421.51 33.11 420.71 34.38 419.30 C 35.18 416.92 35.05 414.34 35.53 411.89 C 35.59 414.34 34.82 417.26 36.97 419.08 C 39.35 422.69 45.16 421.98 47.26 418.46 C 48.20 415.94 47.60 413.18 47.10 410.63 C 49.05 406.86 53.11 404.67 57.05 403.52 C 68.03 403.54 79.02 403.50 90.00 403.54 C 93.86 403.76 97.52 400.65 98.64 397.09 C 98.70 389.85 98.67 382.60 98.62 375.38 C 99.41 376.79 99.24 378.48 99.30 380.04 C 99.24 386.08 99.08 392.13 99.50 398.17 C 99.42 391.10 99.74 384.02 99.40 376.96 C 99.48 374.87 98.16 373.24 97.14 371.56 C 98.47 369.99 99.79 368.42 101.05 366.81 C 97.92 366.40 94.66 366.47 91.74 365.13 Z" />
<path fill="#5d6771" d=" M 123.24 368.22 C 126.03 367.13 128.76 368.81 130.15 371.21 C 127.77 378.54 129.94 386.37 128.84 393.90 C 120.91 394.61 112.96 393.77 105.03 394.30 C 104.11 399.52 105.23 404.88 103.97 410.06 C 103.22 399.41 103.70 388.71 103.61 378.03 C 110.26 374.99 116.60 371.28 123.24 368.22 Z" />
<path fill="#d75a44" d=" M 172.95 368.75 C 175.20 368.80 178.82 367.85 179.67 370.77 L 179.72 370.98 C 179.88 378.08 179.09 385.32 180.08 392.33 C 179.37 395.82 175.74 395.50 172.97 395.27 C 172.65 394.78 171.99 393.81 171.66 393.33 C 171.73 385.79 171.72 378.26 171.67 370.72 C 171.99 370.23 172.63 369.25 172.95 368.75 Z" />
<path fill="#525c65" d=" M 54.13 369.62 C 56.69 368.85 59.37 368.49 62.05 368.57 C 71.03 368.63 80.01 368.55 88.98 368.65 C 91.99 368.53 94.65 370.08 97.14 371.56 C 98.16 373.24 99.48 374.87 99.40 376.96 C 99.74 384.02 99.42 391.10 99.50 398.17 C 99.08 392.13 99.24 386.08 99.30 380.04 C 99.24 378.48 99.41 376.79 98.62 375.38 C 98.67 382.60 98.70 389.85 98.64 397.09 C 97.60 397.74 96.56 398.39 95.52 399.05 C 94.19 391.61 95.66 383.98 94.66 376.48 C 94.10 376.15 93.00 375.47 92.45 375.14 C 90.60 373.67 88.64 371.98 86.09 372.29 C 76.20 372.30 66.30 372.17 56.40 372.36 C 55.64 371.44 54.89 370.53 54.13 369.62 Z" />
<path fill="#545c68" d=" M 49.59 376.91 C 49.44 373.80 51.43 370.99 54.13 369.62 C 54.89 370.53 55.64 371.44 56.40 372.36 C 55.96 372.47 55.07 372.67 54.63 372.78 C 54.58 379.85 54.58 386.92 54.61 394.00 C 54.30 396.50 56.36 399.03 58.98 398.69 C 70.47 398.66 81.97 398.88 93.45 398.57 C 94.07 392.73 93.76 386.84 93.83 380.98 C 93.92 378.93 93.29 376.97 92.45 375.14 C 93.00 375.47 94.10 376.15 94.66 376.48 C 95.66 383.98 94.19 391.61 95.52 399.05 C 96.56 398.39 97.60 397.74 98.64 397.09 C 97.52 400.65 93.86 403.76 90.00 403.54 C 79.02 403.50 68.03 403.54 57.05 403.52 C 53.68 402.40 49.50 400.04 49.57 395.99 C 49.43 389.63 49.53 383.27 49.59 376.91 Z" />
<path fill="#50af87" d=" M 179.72 370.98 C 180.52 373.91 180.58 376.95 180.70 379.97 C 210.27 380.35 239.85 379.94 269.42 380.20 C 269.39 394.40 269.47 408.59 269.39 422.79 C 245.13 414.72 220.97 406.33 196.74 398.18 C 191.19 396.22 185.52 394.59 180.08 392.33 C 179.09 385.32 179.88 378.08 179.72 370.98 Z" />
<path fill="#f1d17e" d=" M 54.63 372.78 C 55.07 372.67 55.96 372.47 56.40 372.36 C 66.30 372.17 76.20 372.30 86.09 372.29 C 88.64 371.98 90.60 373.67 92.45 375.14 C 93.29 376.97 93.92 378.93 93.83 380.98 C 93.76 386.84 94.07 392.73 93.45 398.57 C 81.97 398.88 70.47 398.66 58.98 398.69 C 56.36 399.03 54.30 396.50 54.61 394.00 C 54.58 386.92 54.58 379.85 54.63 372.78 Z" />
<path fill="#535d66" d=" M 128.84 393.90 C 129.94 386.37 127.77 378.54 130.15 371.21 C 130.76 385.11 130.06 399.05 130.30 412.97 C 130.38 415.38 130.32 418.55 127.83 419.79 C 125.64 421.45 122.85 420.33 120.73 419.16 C 115.20 416.10 109.44 413.50 103.93 410.42 L 103.97 410.06 C 105.23 404.88 104.11 399.52 105.03 394.30 C 112.96 393.77 120.91 394.61 128.84 393.90 Z" />
<path fill="#eacbad" d=" M 428.68 379.44 C 429.95 380.75 431.94 381.91 431.74 384.01 C 431.84 393.21 431.12 402.40 430.40 411.57 C 429.60 413.75 426.97 413.67 425.06 413.65 C 412.36 413.48 399.66 413.68 386.97 413.55 C 380.81 413.42 377.61 407.19 374.89 402.56 C 372.36 395.72 373.99 388.22 373.75 381.10 C 382.83 380.62 391.92 380.96 401.00 380.84 C 405.13 380.99 409.27 381.24 413.38 380.61 C 418.38 380.61 424.35 382.68 428.68 379.44 Z" />
<path fill="#fbe8d0" d=" M 315.33 383.06 C 315.37 381.97 316.32 380.66 317.41 380.53 C 323.02 381.23 328.71 381.49 334.31 380.50 C 342.16 381.94 350.11 380.34 358.02 380.95 C 363.26 381.41 368.52 380.60 373.75 381.10 C 373.99 388.22 372.36 395.72 374.89 402.56 C 374.16 402.56 373.44 402.60 372.73 402.68 C 369.81 406.08 367.60 410.26 363.86 412.86 C 355.29 414.12 346.63 413.68 338.01 413.59 C 331.63 413.10 325.20 414.43 318.87 413.25 C 316.69 413.07 316.65 410.59 316.45 408.93 C 316.16 400.30 314.74 391.71 315.33 383.06 Z" />
<path fill="#e8f4eb" d=" M 328.83 385.37 C 329.23 383.48 331.51 383.98 332.90 383.86 C 341.65 384.34 350.43 383.44 359.16 384.16 C 361.82 384.07 362.89 387.03 362.74 389.25 C 361.48 387.24 359.60 385.30 357.02 385.43 C 347.63 385.27 338.22 385.42 328.83 385.37 Z" />
<path fill="#4789a5" d=" M 325.08 386.14 C 326.29 385.76 327.54 385.42 328.83 385.37 C 338.22 385.42 347.63 385.27 357.02 385.43 C 359.60 385.30 361.48 387.24 362.74 389.25 C 363.43 392.78 363.00 396.40 363.15 399.97 C 363.09 402.11 363.50 404.47 362.21 406.37 C 362.40 401.07 362.67 395.70 361.77 390.46 C 361.22 387.38 357.62 386.68 355.03 386.32 C 348.38 385.95 341.70 386.39 335.04 386.18 C 332.09 386.27 328.86 385.65 326.21 387.29 C 321.75 392.54 325.17 400.09 324.10 406.28 C 322.34 401.76 322.97 396.75 322.76 392.00 C 322.44 389.73 323.80 387.85 325.08 386.14 Z" />
<path fill="#fffdfb" d=" M 321.94 387.97 C 322.02 386.39 323.93 386.34 325.08 386.14 C 323.80 387.85 322.44 389.73 322.76 392.00 C 322.97 396.75 322.34 401.76 324.10 406.28 L 323.65 407.06 L 324.67 406.52 C 325.37 407.50 326.16 408.41 327.04 409.26 C 336.72 410.70 346.58 409.41 356.34 409.81 C 355.27 411.13 353.40 410.40 351.96 410.58 C 343.97 410.43 335.98 410.51 327.99 410.56 C 325.23 410.81 323.23 408.24 322.60 405.84 C 321.88 399.93 321.39 393.92 321.94 387.97 Z" />
<path fill="#eb1c24" d=" M 384.42 391.95 C 384.36 389.85 385.45 387.52 387.20 386.41 C 388.02 387.35 388.77 388.39 389.75 389.20 C 400.20 395.54 410.74 401.78 420.90 408.60 C 419.65 409.03 418.37 409.43 417.03 409.34 C 408.03 409.31 399.02 409.29 390.01 409.33 C 387.20 409.43 384.35 406.96 384.42 404.09 C 384.33 400.04 384.35 396.00 384.42 391.95 Z" />
<path fill="#d30d1c" d=" M 387.20 386.41 C 388.94 385.29 391.06 385.61 393.01 385.52 C 401.69 385.53 410.36 385.51 419.04 385.52 C 422.27 385.53 424.75 388.91 424.37 392.01 C 424.25 396.40 424.11 400.80 423.60 405.17 C 423.45 406.75 421.86 407.53 420.90 408.60 C 410.74 401.78 400.20 395.54 389.75 389.20 C 388.77 388.39 388.02 387.35 387.20 386.41 Z" />
<path fill="#0073ac" d=" M 326.21 387.29 C 328.86 385.65 332.09 386.27 335.04 386.18 C 341.70 386.39 348.38 385.95 355.03 386.32 C 357.62 386.68 361.22 387.38 361.77 390.46 C 362.67 395.70 362.40 401.07 362.21 406.37 C 362.04 406.72 361.71 407.41 361.54 407.75 L 360.91 407.68 C 360.08 407.59 359.25 407.52 358.43 407.46 C 353.80 403.44 347.95 401.32 342.84 398.03 C 337.38 394.29 331.14 391.80 326.21 387.29 Z" />
<path fill="#0081d0" d=" M 324.10 406.28 C 325.17 400.09 321.75 392.54 326.21 387.29 C 331.14 391.80 337.38 394.29 342.84 398.03 C 347.95 401.32 353.80 403.44 358.43 407.46 C 351.68 408.89 344.80 407.46 337.99 408.09 C 333.46 408.49 329.06 407.39 324.67 406.52 L 323.65 407.06 L 324.10 406.28 Z" />
<path fill="#267bad" d=" M 324.67 406.52 C 329.06 407.39 333.46 408.49 337.99 408.09 C 344.80 407.46 351.68 408.89 358.43 407.46 C 359.25 407.52 360.08 407.59 360.91 407.68 C 360.51 408.02 359.72 408.69 359.32 409.03 C 348.56 409.43 337.79 408.76 327.04 409.26 C 326.16 408.41 325.37 407.50 324.67 406.52 Z" />
<path fill="#585a61" d=" M 35.53 411.89 C 36.89 410.67 38.26 409.40 39.95 408.64 C 42.57 407.82 44.88 409.53 47.10 410.63 C 47.60 413.18 48.20 415.94 47.26 418.46 C 45.16 421.98 39.35 422.69 36.97 419.08 C 34.82 417.26 35.59 414.34 35.53 411.89 Z" />
<path fill="#a4d4eb" d=" M 327.04 409.26 C 337.79 408.76 348.56 409.43 359.32 409.03 C 358.40 409.58 357.41 409.84 356.34 409.81 C 346.58 409.41 336.72 410.70 327.04 409.26 Z" />
<path fill="#edd67a" d=" M 38.64 414.84 C 39.38 412.92 41.19 411.81 43.15 412.75 C 43.47 413.34 44.13 414.51 44.46 415.10 C 43.64 418.52 39.26 418.22 38.64 414.84 Z" />
<path fill="#565a5b" d=" M 52.69 415.76 C 54.27 415.34 55.89 415.32 57.50 415.59 C 57.51 416.89 57.50 418.19 57.50 419.50 C 55.89 419.66 54.28 419.62 52.68 419.34 C 52.69 418.14 52.69 416.95 52.69 415.76 Z" />
<path fill="#575d56" d=" M 64.50 415.53 C 65.51 415.35 66.53 415.32 67.55 415.45 C 69.16 416.25 68.44 418.23 68.62 419.64 C 66.95 419.70 65.27 419.62 63.61 419.40 C 63.83 418.13 63.13 416.30 64.50 415.53 Z" />
</svg>
