<?xml version="1.0" encoding="UTF-8" ?>
<!DOCTYPE svg PUBLIC "-//W3C//DTD SVG 1.1//EN" "http://www.w3.org/Graphics/SVG/1.1/DTD/svg11.dtd">
<svg width="195pt" height="195pt" viewBox="0 0 195 195" version="1.1" xmlns="http://www.w3.org/2000/svg">
<path fill="#ffffff" d=" M 0.00 0.00 L 195.00 0.00 L 195.00 195.00 L 0.00 195.00 L 0.00 0.00 Z" />
<path fill="#131313" d=" M 169.75 12.76 C 174.72 10.97 179.82 9.33 185.07 8.66 C 189.00 8.29 190.40 13.11 190.78 16.21 C 189.64 23.01 189.36 30.02 190.85 36.79 C 187.17 53.69 175.21 67.47 161.82 77.79 C 156.57 82.05 149.65 84.83 146.42 91.14 C 145.38 93.30 143.90 95.47 143.98 97.97 C 144.60 100.11 146.82 101.65 146.63 104.06 C 146.65 106.32 145.00 108.04 144.15 110.01 C 145.95 115.23 148.83 120.34 153.09 123.95 C 156.83 127.07 161.86 127.31 166.49 127.77 C 164.25 129.14 161.69 129.82 159.19 130.54 C 150.86 132.79 142.46 134.76 134.18 137.17 C 132.09 137.71 129.96 138.15 127.81 138.28 C 129.65 135.57 132.65 134.14 135.07 132.06 C 137.72 129.78 138.05 126.08 138.63 122.87 C 139.08 119.59 139.67 116.25 139.21 112.94 C 138.71 109.97 134.54 111.05 133.26 108.63 C 131.13 106.24 132.13 102.77 131.00 100.01 C 127.88 96.11 123.30 92.97 118.15 92.90 C 108.37 92.47 98.36 92.01 89.09 88.56 C 90.86 86.72 92.66 84.90 94.46 83.08 C 99.62 83.86 104.72 84.97 109.91 85.52 C 105.34 79.35 98.96 74.82 94.40 68.63 C 89.70 62.86 86.81 55.95 82.93 49.66 C 77.68 50.70 72.52 53.75 67.05 52.25 C 66.72 50.84 66.38 49.44 66.03 48.04 C 63.11 47.88 60.35 48.85 57.89 50.34 C 58.83 53.30 60.03 56.17 61.14 59.07 C 59.99 61.52 58.61 63.86 57.17 66.15 C 55.12 62.54 53.92 58.55 53.15 54.49 C 52.60 51.50 50.81 48.95 50.09 46.02 C 51.63 43.78 54.48 43.37 56.86 42.55 C 60.85 41.46 64.88 40.18 69.05 40.18 C 71.58 40.44 72.02 43.46 73.30 45.16 C 75.64 44.51 78.04 44.03 80.29 43.11 C 80.22 39.78 78.03 36.77 78.35 33.41 C 96.15 27.66 114.50 23.72 132.45 18.45 C 141.03 16.38 149.44 13.34 158.28 12.60 C 158.85 15.73 159.36 18.87 159.99 21.98 C 162.55 21.38 165.20 20.88 167.57 19.69 C 168.19 17.41 166.93 13.79 169.75 12.76 Z" />
<path fill="#ffffff" d=" M 176.06 18.21 C 178.42 17.39 180.84 16.74 183.31 16.35 C 184.83 21.05 184.74 26.05 184.19 30.91 C 183.66 43.12 176.51 53.82 168.48 62.54 C 164.61 66.41 160.46 70.08 155.73 72.89 C 156.69 68.21 158.81 63.87 159.67 59.17 C 162.18 49.16 162.04 38.75 161.38 28.53 C 166.02 27.50 170.72 26.65 175.21 25.05 C 175.59 22.79 175.78 20.49 176.06 18.21 Z" />
<path fill="#000000" d=" M 190.85 36.79 C 189.36 30.02 189.64 23.01 190.78 16.21 C 191.39 23.05 191.31 29.94 190.85 36.79 Z" />
<path fill="#6ddade" d=" M 122.57 32.94 C 125.23 32.39 126.95 34.09 127.77 36.43 C 128.04 37.49 128.33 38.55 128.65 39.59 C 128.94 41.37 129.53 43.08 130.31 44.71 C 130.80 46.30 131.19 47.92 131.66 49.53 C 131.98 50.53 132.31 51.52 132.66 52.52 C 132.96 53.53 133.29 54.53 133.65 55.52 C 134.01 56.57 134.41 57.61 134.82 58.64 C 134.88 59.23 134.99 60.41 135.04 61.01 C 136.92 61.00 138.80 60.99 140.68 60.99 C 140.94 61.63 141.45 62.90 141.70 63.53 C 141.98 65.30 142.47 67.02 143.07 68.70 C 142.42 68.94 141.12 69.42 140.47 69.67 C 139.44 69.98 138.43 70.32 137.43 70.69 C 136.09 70.98 134.76 71.26 133.44 71.60 C 132.44 71.93 131.44 72.28 130.46 72.66 C 129.44 72.99 128.43 73.33 127.42 73.69 C 125.96 73.97 124.44 74.16 123.19 75.06 C 119.91 75.24 119.89 71.58 118.73 69.38 C 116.65 67.05 120.39 65.32 122.15 64.52 C 121.99 63.14 121.80 61.77 121.44 60.43 C 121.07 59.42 120.69 58.43 120.29 57.44 C 120.02 56.10 119.75 54.76 119.38 53.44 C 118.89 51.92 118.36 50.42 117.86 48.91 C 116.59 49.68 115.32 50.49 113.92 51.01 C 111.74 49.81 110.27 47.59 108.66 45.73 C 110.94 43.61 113.54 41.61 114.70 38.62 C 115.49 37.35 116.38 36.15 117.27 34.96 C 117.83 34.97 118.95 34.98 119.52 34.99 C 120.54 34.32 121.56 33.63 122.57 32.94 Z" />
<path fill="#131313" d=" M 41.04 47.96 C 44.63 45.36 47.49 49.97 49.23 52.64 C 51.36 58.65 49.84 65.32 52.02 71.37 C 52.76 71.36 54.25 71.35 54.99 71.34 C 55.38 73.03 55.56 74.87 56.77 76.22 C 59.15 78.99 60.10 82.74 62.94 85.15 C 65.20 87.11 65.08 90.70 67.72 92.34 C 69.93 93.57 72.50 93.92 74.71 95.16 C 77.72 97.19 81.05 94.89 84.00 93.96 C 81.29 101.02 77.70 107.69 74.25 114.41 C 63.99 111.04 53.85 107.29 43.75 103.46 C 43.47 96.33 42.81 89.20 41.50 82.18 C 40.29 73.08 42.57 64.02 43.22 54.97 C 43.21 52.46 41.90 50.24 41.04 47.96 Z" />
<path fill="#131313" d=" M 64.53 59.40 C 66.22 57.34 69.14 58.51 71.33 58.86 C 71.36 63.72 67.66 67.29 64.60 70.61 C 63.27 71.75 61.93 73.60 59.93 73.21 C 58.16 68.13 61.61 63.27 64.53 59.40 Z" />
<path fill="#131313" d=" M 71.48 67.56 C 72.71 65.84 73.76 63.39 76.19 63.26 C 78.16 63.10 81.02 64.65 79.99 67.00 C 78.13 73.82 72.43 79.39 65.74 81.58 C 64.68 80.04 63.05 78.17 64.07 76.20 C 66.19 73.03 69.50 70.85 71.48 67.56 Z" />
<path fill="#131313" d=" M 82.39 69.35 C 83.15 67.82 85.08 69.46 85.98 70.07 C 87.71 71.83 86.14 74.30 85.17 76.02 C 82.49 79.96 79.29 83.56 75.87 86.87 C 74.14 88.64 70.41 89.59 69.00 86.95 C 67.78 84.43 70.16 82.24 72.12 81.07 C 76.66 78.27 79.33 73.54 82.39 69.35 Z" />
<path fill="#131313" d=" M 87.50 78.06 C 88.97 75.70 92.86 78.64 91.64 80.83 C 89.96 84.01 86.92 86.23 84.02 88.24 C 81.53 89.69 78.67 91.78 75.68 90.51 C 79.65 86.38 83.85 82.48 87.50 78.06 Z" />
<path fill="#131313" d=" M 35.55 119.78 C 37.48 115.34 38.85 110.69 40.70 106.22 C 46.32 107.96 51.76 110.19 57.13 112.59 C 63.44 115.35 70.12 117.14 76.40 119.96 C 75.14 124.37 73.49 128.66 71.65 132.86 C 59.40 129.10 47.70 123.78 35.55 119.78 Z" />
<path fill="#131313" d=" M 23.05 123.14 C 23.40 121.19 25.33 122.22 26.51 122.57 C 39.73 127.01 52.57 132.49 65.69 137.17 C 68.92 138.38 72.15 139.64 75.55 140.27 C 76.02 144.61 74.23 148.73 73.38 152.91 C 70.37 164.26 68.12 175.81 64.93 187.11 C 59.68 187.82 54.37 187.69 49.08 187.81 C 32.94 187.98 16.80 188.13 0.66 187.74 C 2.28 180.70 5.04 173.99 7.39 167.18 C 12.64 152.51 17.55 137.71 23.05 123.14 Z" />
<path fill="#131313" d=" M 133.81 140.68 C 144.17 137.83 154.61 135.27 164.94 132.29 C 168.04 131.10 171.59 131.86 174.01 134.10 C 178.47 138.07 182.01 142.97 185.23 147.97 C 163.86 153.53 142.64 159.74 121.15 164.81 C 121.52 158.58 122.46 152.30 124.53 146.39 C 125.84 142.45 130.44 141.92 133.81 140.68 Z" />
<path fill="#131313" d=" M 184.47 152.27 C 186.98 151.54 189.54 150.97 192.15 150.70 C 192.71 152.54 193.24 154.40 193.75 156.27 C 187.06 159.33 179.75 160.63 172.77 162.84 C 154.51 167.73 136.30 172.84 118.01 177.54 C 117.49 175.42 117.01 173.29 116.81 171.11 C 139.30 164.63 161.96 158.70 184.47 152.27 Z" />
</svg>
